{"glyphs":{"0":{"ha":886,"x_min":65,"x_max":822,"o":"m 65 463 q 95 659 65 572 q 176 806 125 746 q 296 896 226 865 q 446 926 365 926 q 600 892 531 926 q 719 795 669 857 q 795 647 768 733 q 821 454 822 560 q 790 258 819 344 q 710 112 761 172 q 590 20 658 51 q 440 -11 521 -11 q 294 21 363 -11 q 175 113 226 53 q 94 261 124 174 q 65 463 65 349 m 194 458 q 213 325 193 388 q 265 215 232 263 q 344 140 299 168 q 440 113 389 113 q 538 139 492 113 q 617 213 583 165 q 672 323 651 260 q 692 457 692 386 q 680 569 692 508 q 639 681 668 629 q 563 768 610 733 q 446 803 515 803 q 326 767 374 803 q 249 677 278 731 q 207 564 219 624 q 194 458 194 504 z "},"1":{"ha":422,"x_min":65,"x_max":283,"o":"m 65 792 l 65 915 l 283 915 l 283 0 l 154 0 l 154 792 l 65 792 z "},"2":{"ha":754,"x_min":58,"x_max":703,"o":"m 378 124 l 703 124 l 703 0 l 72 0 q 240 169 158 88 q 383 328 321 251 q 484 477 446 406 q 522 615 522 549 q 506 699 522 664 q 465 758 489 735 q 411 792 440 781 q 357 803 382 803 q 273 785 306 803 q 221 741 240 767 q 194 688 201 715 q 186 639 186 660 q 201 557 186 592 q 240 494 215 522 l 165 415 q 120 458 140 431 q 86 516 100 485 q 65 580 72 547 q 58 639 58 613 q 78 747 58 694 q 135 839 97 799 q 229 903 174 879 q 357 926 285 926 q 478 903 424 926 q 570 838 532 879 q 630 744 608 797 q 651 632 651 690 q 629 499 651 564 q 569 372 607 435 q 481 247 531 308 q 378 124 432 186 z "},"3":{"ha":647,"x_min":39,"x_max":581,"o":"m 174 454 q 276 622 219 538 q 378 790 333 706 l 96 790 l 96 915 l 581 915 q 479 749 532 832 q 378 582 426 665 q 522 471 467 546 q 576 296 576 396 q 551 177 576 233 q 484 79 526 121 q 385 13 442 38 q 267 -11 329 -11 q 140 17 199 -11 q 39 89 82 44 l 132 176 q 191 129 157 146 q 265 113 225 113 q 336 127 303 113 q 394 167 369 142 q 434 225 419 192 q 449 296 449 258 q 434 366 449 333 q 394 424 419 399 q 336 463 369 449 q 265 476 303 476 q 174 454 214 476 z "},"4":{"ha":732,"x_min":0,"x_max":682,"o":"m 0 236 q 272 581 129 404 q 546 926 415 758 l 546 360 l 682 360 l 682 236 l 546 236 l 546 0 l 417 0 l 417 236 l 0 236 m 417 581 l 247 360 l 417 360 l 417 581 z "},"5":{"ha":633,"x_min":51,"x_max":575,"o":"m 110 424 l 110 915 l 514 915 l 514 792 l 219 792 l 219 592 q 240 599 231 596 q 264 601 249 601 q 392 577 335 601 q 490 512 449 553 q 553 417 531 471 q 575 301 575 363 q 550 178 575 235 q 483 79 525 121 q 383 13 440 38 q 264 -11 326 -11 q 147 12 201 -11 q 51 75 93 35 q 99 118 75 97 q 144 161 122 139 q 199 126 168 139 q 265 113 229 113 q 336 127 303 113 q 394 167 369 142 q 434 225 419 192 q 449 296 449 258 q 434 367 449 333 q 394 424 419 400 q 335 463 368 449 q 264 478 301 478 q 185 468 226 478 q 110 424 144 458 z "},"6":{"ha":736,"x_min":58,"x_max":676,"o":"m 189 296 q 203 225 189 258 q 240 167 217 192 q 296 127 264 142 q 365 113 328 113 q 436 127 403 113 q 494 167 469 142 q 534 225 519 192 q 549 296 549 258 q 534 367 549 333 q 494 425 519 400 q 436 464 469 450 q 365 478 403 478 q 297 464 329 478 q 240 425 264 450 q 203 367 217 400 q 189 296 189 333 m 58 296 q 81 435 58 369 q 142 559 104 501 q 228 666 181 617 q 327 758 276 715 q 426 835 378 800 q 514 897 475 869 q 553 849 533 874 q 593 800 574 824 q 507 740 553 772 q 418 676 461 708 q 342 615 375 644 q 293 567 308 586 q 325 592 307 582 q 365 601 343 601 q 485 578 428 601 q 584 513 542 554 q 651 417 626 472 q 676 297 676 361 q 651 177 676 233 q 584 79 626 121 q 485 13 542 38 q 367 -11 429 -11 q 260 7 314 -11 q 160 63 206 25 q 87 159 115 101 q 58 296 58 217 z "},"7":{"ha":635,"x_min":42,"x_max":625,"o":"m 42 790 l 42 915 l 625 915 q 531 681 576 796 q 440 452 485 565 q 351 226 396 339 q 263 0 307 114 l 118 0 q 268 385 189 182 q 426 790 347 589 l 42 790 z "},"8":{"ha":735,"x_min":58,"x_max":676,"o":"m 265 699 q 274 660 265 678 q 298 630 283 643 q 331 609 313 617 q 371 601 350 601 q 409 609 390 601 q 442 630 428 617 q 464 660 456 643 q 472 699 472 678 q 464 738 472 719 q 442 772 456 757 q 410 794 428 786 q 371 803 392 803 q 297 772 329 803 q 265 699 265 740 m 189 296 q 203 225 189 258 q 240 167 217 192 q 297 127 264 142 q 365 113 329 113 q 436 127 403 113 q 495 167 469 142 q 535 225 521 192 q 550 296 550 258 q 536 366 550 333 q 498 423 522 399 q 442 462 474 447 q 372 478 410 476 q 301 464 335 478 q 243 426 268 450 q 203 368 218 401 q 189 296 189 335 m 58 290 q 71 383 58 342 q 105 458 83 425 q 155 514 126 490 q 214 551 183 538 q 158 617 174 579 q 142 692 142 656 q 159 786 142 743 q 207 860 176 829 q 278 909 238 892 q 367 926 319 926 q 455 909 414 926 q 526 860 496 892 q 575 786 557 829 q 593 693 593 743 q 576 619 593 657 q 519 551 560 581 q 578 513 550 536 q 629 456 607 489 q 664 382 651 424 q 676 290 676 340 q 654 176 676 231 q 591 79 632 121 q 493 13 550 38 q 365 -11 436 -11 q 238 13 294 -11 q 142 79 182 38 q 80 176 101 121 q 58 290 58 231 z "},"9":{"ha":738,"x_min":60,"x_max":678,"o":"m 678 590 q 655 450 678 515 q 594 327 632 385 q 507 220 556 269 q 408 128 458 171 q 308 51 357 86 q 221 -11 260 17 l 142 86 q 228 145 182 113 q 317 210 275 178 q 393 271 360 242 q 442 319 426 300 q 410 294 428 304 q 369 285 392 285 q 251 308 307 285 q 152 373 194 332 q 85 469 110 414 q 60 589 60 525 q 85 709 60 653 q 151 807 110 765 q 249 873 193 849 q 368 897 306 897 q 475 879 419 897 q 575 823 531 861 q 649 727 619 785 q 678 590 678 669 m 546 590 q 532 661 546 628 q 494 719 518 694 q 439 759 471 744 q 369 774 407 774 q 299 759 332 774 q 240 719 265 744 q 201 661 215 694 q 186 590 186 628 q 201 519 186 553 q 240 461 215 486 q 299 422 265 436 q 369 408 332 408 q 438 422 406 408 q 494 461 469 436 q 532 519 518 486 q 546 590 546 553 z "},"\u0000":{"ha":0,"x_min":0,"x_max":0,"o":""},"\r":{"ha":417,"x_min":0,"x_max":0,"o":""}," ":{"ha":319,"x_min":0,"x_max":0,"o":""},"t":{"ha":422,"x_min":29,"x_max":407,"o":"m 133 836 l 251 836 l 251 579 l 407 579 l 407 474 l 251 474 l 251 0 l 133 0 l 133 474 l 29 474 l 29 579 l 133 579 l 133 836 z "},"b":{"ha":750,"x_min":83,"x_max":704,"o":"m 704 289 q 682 168 704 224 q 619 72 660 113 q 523 9 579 32 q 400 -14 467 -14 q 334 -6 365 -14 q 276 15 303 1 q 231 44 250 28 q 201 76 211 60 q 202 62 201 69 q 203 47 203 54 l 203 0 l 83 0 l 83 1079 l 203 1079 l 203 496 q 233 530 214 513 q 277 562 251 547 q 335 586 303 576 q 406 596 367 596 q 527 574 472 596 q 622 513 582 553 q 683 417 661 474 q 704 289 704 360 m 575 292 q 563 366 575 332 q 526 425 550 400 q 469 465 503 450 q 394 479 436 479 q 317 465 353 479 q 257 425 282 450 q 217 366 232 400 q 203 292 203 332 q 217 217 203 251 q 257 157 232 182 q 317 117 282 132 q 394 103 353 103 q 469 117 436 103 q 526 158 503 132 q 563 217 550 183 q 575 292 575 251 z "},"l":{"ha":288,"x_min":85,"x_max":203,"o":"m 203 0 l 85 0 l 85 1079 l 203 1079 l 203 0 z "},"m":{"ha":1114,"x_min":83,"x_max":1036,"o":"m 83 581 l 188 581 q 192 502 190 538 q 197 432 194 467 q 281 551 229 507 q 421 596 333 594 q 557 553 506 596 q 617 440 608 510 q 702 553 651 511 q 839 596 753 594 q 981 547 929 596 q 1036 422 1033 499 l 1036 0 l 917 0 l 917 368 q 887 444 914 413 q 799 478 860 475 q 668 424 715 478 q 618 288 621 371 l 618 0 l 500 0 l 500 368 q 469 444 497 413 q 382 478 440 475 q 307 463 340 478 q 250 424 274 449 q 214 364 226 399 q 201 288 201 329 l 201 0 l 83 0 l 83 581 z "},"i":{"ha":285,"x_min":68,"x_max":219,"o":"m 68 803 q 92 858 68 836 q 144 881 117 881 q 196 858 172 881 q 219 803 219 836 q 196 748 219 769 q 144 726 172 726 q 92 748 117 726 q 68 803 68 769 m 201 0 l 83 0 l 83 581 l 201 581 l 201 0 z "},"h":{"ha":707,"x_min":83,"x_max":629,"o":"m 83 1079 l 201 1079 l 201 440 q 288 552 232 510 q 431 596 343 594 q 573 549 519 597 q 629 422 626 500 l 629 0 l 510 0 l 510 368 q 479 444 507 413 q 392 478 451 475 q 315 463 350 478 q 256 424 281 449 q 216 364 231 399 q 201 288 201 329 l 201 0 l 83 0 l 83 1079 z "},"c":{"ha":578,"x_min":43,"x_max":549,"o":"m 472 143 q 509 98 492 119 q 544 53 526 76 q 457 4 506 22 q 351 -14 408 -14 q 231 10 288 -14 q 133 76 175 35 q 67 174 92 118 q 43 292 43 229 q 67 410 43 354 q 133 506 92 465 q 231 572 175 547 q 351 596 288 596 q 459 578 410 596 q 549 529 508 560 l 472 439 q 418 469 449 458 q 351 479 388 479 q 275 465 310 479 q 215 425 240 450 q 175 366 189 400 q 161 292 161 332 q 175 217 161 251 q 215 158 189 183 q 275 117 240 132 q 351 103 310 103 q 418 113 388 103 q 472 143 449 124 z "},"q":{"ha":749,"x_min":44,"x_max":665,"o":"m 164 292 q 178 217 164 251 q 218 157 193 182 q 278 117 243 132 q 354 103 313 103 q 431 117 396 103 q 492 158 467 132 q 532 217 518 183 q 546 292 546 251 q 532 366 546 332 q 492 425 518 400 q 431 465 467 450 q 354 479 396 479 q 278 465 313 479 q 218 425 243 450 q 178 366 193 400 q 164 292 164 332 m 44 290 q 67 415 44 358 q 131 511 90 471 q 226 574 171 551 q 344 596 281 596 q 422 585 388 596 q 480 560 456 575 q 521 528 504 546 q 546 496 538 510 q 548 540 546 515 q 550 581 550 564 l 665 581 l 665 -279 l 546 -279 l 546 43 q 547 62 546 51 q 549 79 549 72 q 516 47 535 63 q 472 17 497 31 q 415 -6 447 3 q 340 -14 382 -14 q 216 10 271 -14 q 123 76 161 35 q 65 172 85 117 q 44 290 44 228 z "},"u":{"ha":707,"x_min":78,"x_max":624,"o":"m 624 -12 l 524 -12 l 510 149 q 420 32 478 78 q 274 -14 363 -14 q 133 34 185 -14 q 78 160 81 82 l 78 581 l 196 581 l 196 213 q 227 139 199 169 q 315 104 256 108 q 392 119 357 104 q 451 158 426 133 q 490 218 476 183 q 504 294 504 253 l 504 581 l 624 581 l 624 -12 z "},"r":{"ha":432,"x_min":83,"x_max":429,"o":"m 403 443 q 328 433 364 443 q 263 401 292 422 q 218 349 235 381 q 201 278 201 318 l 201 0 l 83 0 l 83 581 l 188 581 q 192 502 190 538 q 197 432 194 467 q 244 500 215 469 q 307 551 274 531 q 372 584 340 572 q 429 596 404 596 l 403 443 z "},"e":{"ha":643,"x_min":43,"x_max":624,"o":"m 575 68 q 474 8 533 31 q 351 -14 414 -14 q 231 10 288 -14 q 133 76 175 35 q 67 172 92 117 q 43 290 43 228 q 67 408 43 353 q 133 506 92 464 q 230 572 175 547 q 347 596 285 596 q 519 537 446 596 q 624 382 592 478 q 525 344 581 367 q 410 298 469 322 q 290 250 350 274 q 179 207 231 226 q 248 131 203 160 q 349 103 293 103 q 424 117 386 103 q 486 154 463 131 l 575 68 m 475 410 q 422 462 458 444 q 349 479 386 479 q 274 464 308 479 q 215 423 240 449 q 176 364 190 397 q 161 296 161 331 q 162 286 161 289 q 163 282 163 283 q 241 313 199 296 q 325 348 283 331 q 406 381 367 365 q 475 410 444 397 z "},"p":{"ha":750,"x_min":83,"x_max":704,"o":"m 575 292 q 563 366 575 332 q 526 425 550 400 q 469 465 503 450 q 394 479 436 479 q 317 465 353 479 q 257 425 282 450 q 217 366 232 400 q 203 292 203 332 q 217 217 203 251 q 257 157 232 182 q 317 117 282 132 q 394 103 353 103 q 469 117 436 103 q 526 158 503 132 q 563 217 550 183 q 575 292 575 251 m 704 289 q 682 168 704 224 q 619 72 660 113 q 523 9 579 32 q 400 -14 467 -14 q 334 -6 365 -14 q 276 15 303 1 q 231 44 250 28 q 201 76 211 60 q 202 62 201 69 q 203 47 203 54 l 203 -279 l 83 -279 l 83 581 l 199 581 q 201 540 199 564 q 203 496 203 515 q 233 530 214 513 q 277 562 251 547 q 335 586 303 576 q 406 596 367 596 q 527 574 472 596 q 622 513 582 553 q 683 417 661 474 q 704 289 704 360 z "},"á":{"ha":747,"x_min":43,"x_max":664,"o":"m 43 285 q 67 405 43 349 q 133 503 92 461 q 230 571 175 546 q 347 596 285 596 q 424 585 389 596 q 483 560 458 575 q 524 528 508 544 q 544 499 539 511 l 550 581 l 664 581 l 664 0 l 544 0 l 544 74 q 522 47 538 63 q 483 19 507 32 q 425 -4 458 6 q 349 -14 392 -14 q 226 10 282 -14 q 129 76 169 35 q 66 171 89 117 q 43 285 43 225 m 163 292 q 177 217 163 251 q 217 157 192 182 q 276 117 242 132 q 353 103 311 103 q 430 117 394 103 q 491 158 465 132 q 531 217 517 183 q 544 292 544 251 q 531 366 544 332 q 491 425 517 400 q 430 465 465 450 q 353 479 394 479 q 276 465 311 479 q 217 425 242 450 q 177 366 192 400 q 163 292 163 332 m 296 675 q 360 768 328 721 q 424 861 392 815 l 551 861 l 386 675 l 296 675 z "},"é":{"ha":643,"x_min":43,"x_max":624,"o":"m 575 68 q 474 8 533 31 q 351 -14 414 -14 q 231 10 288 -14 q 133 76 175 35 q 67 172 92 117 q 43 290 43 228 q 67 408 43 353 q 133 506 92 464 q 230 572 175 547 q 347 596 285 596 q 519 537 446 596 q 624 382 592 478 q 525 344 581 367 q 410 298 469 322 q 290 250 350 274 q 179 207 231 226 q 248 131 203 160 q 349 103 293 103 q 424 117 386 103 q 486 154 463 131 l 575 68 m 475 410 q 422 462 458 444 q 349 479 386 479 q 274 464 308 479 q 215 423 240 449 q 176 364 190 397 q 161 296 161 331 q 162 286 161 289 q 163 282 163 283 q 241 313 199 296 q 325 348 283 331 q 406 381 367 365 q 475 410 444 397 m 263 675 q 326 768 294 721 q 390 861 358 815 l 518 861 l 353 675 l 263 675 z "},"í":{"ha":285,"x_min":83,"x_max":340,"o":"m 201 0 l 83 0 l 83 581 l 201 581 l 201 0 m 85 675 q 149 768 117 721 q 213 861 181 815 l 340 861 l 175 675 l 85 675 z "},"ó":{"ha":701,"x_min":43,"x_max":658,"o":"m 43 292 q 67 410 43 354 q 133 506 92 465 q 231 572 175 547 q 353 596 288 596 q 474 572 418 596 q 572 506 531 547 q 635 410 613 465 q 658 292 658 354 q 635 174 658 229 q 572 76 613 118 q 474 10 531 35 q 351 -14 418 -14 q 231 8 288 -14 q 133 71 175 31 q 67 167 92 111 q 43 292 43 224 m 161 290 q 176 217 161 251 q 216 158 190 183 q 276 117 242 132 q 349 103 310 103 q 422 117 388 103 q 483 158 457 132 q 524 217 508 183 q 539 290 539 251 q 524 364 539 329 q 483 424 508 399 q 422 465 457 450 q 349 479 388 479 q 276 465 310 479 q 216 424 242 450 q 176 364 190 399 q 161 290 161 329 m 349 675 q 413 768 381 721 q 476 861 444 815 l 604 861 l 439 675 l 349 675 z "},"ú":{"ha":706,"x_min":78,"x_max":624,"o":"m 624 -12 l 524 -12 l 510 149 q 420 32 478 78 q 274 -14 363 -14 q 133 34 185 -14 q 78 160 81 82 l 78 581 l 196 581 l 196 213 q 227 139 199 169 q 315 104 256 108 q 392 119 357 104 q 451 158 426 133 q 490 218 476 183 q 504 294 504 253 l 504 581 l 624 581 l 624 -12 m 279 675 q 343 768 311 721 q 407 861 375 815 l 535 861 l 369 675 l 279 675 z "},"ä":{"ha":747,"x_min":43,"x_max":664,"o":"m 43 285 q 67 405 43 349 q 133 503 92 461 q 230 571 175 546 q 347 596 285 596 q 424 585 389 596 q 483 560 458 575 q 524 528 508 544 q 544 499 539 511 l 550 581 l 664 581 l 664 0 l 544 0 l 544 74 q 522 47 538 63 q 483 19 507 32 q 425 -4 458 6 q 349 -14 392 -14 q 226 10 282 -14 q 129 76 169 35 q 66 171 89 117 q 43 285 43 225 m 163 292 q 177 217 163 251 q 217 157 192 182 q 276 117 242 132 q 353 103 311 103 q 430 117 394 103 q 491 158 465 132 q 531 217 517 183 q 544 292 544 251 q 531 366 544 332 q 491 425 517 400 q 430 465 465 450 q 353 479 394 479 q 276 465 311 479 q 217 425 242 450 q 177 366 192 400 q 163 292 163 332 m 146 735 q 170 792 146 769 q 225 814 194 814 q 277 792 253 814 q 301 735 301 769 q 277 678 301 700 q 225 657 253 657 q 170 678 194 657 q 146 735 146 700 m 410 735 q 434 792 410 769 q 488 814 458 814 q 540 792 515 814 q 564 735 564 769 q 540 678 564 700 q 488 657 515 657 q 434 678 458 657 q 410 735 410 700 z "},"ë":{"ha":643,"x_min":43,"x_max":624,"o":"m 575 68 q 474 8 533 31 q 351 -14 414 -14 q 231 10 288 -14 q 133 76 175 35 q 67 172 92 117 q 43 290 43 228 q 67 408 43 353 q 133 506 92 464 q 230 572 175 547 q 347 596 285 596 q 519 537 446 596 q 624 382 592 478 q 525 344 581 367 q 410 298 469 322 q 290 250 350 274 q 179 207 231 226 q 248 131 203 160 q 349 103 293 103 q 424 117 386 103 q 486 154 463 131 l 575 68 m 475 410 q 422 462 458 444 q 349 479 386 479 q 274 464 308 479 q 215 423 240 449 q 176 364 190 397 q 161 296 161 331 q 162 286 161 289 q 163 282 163 283 q 241 313 199 296 q 325 348 283 331 q 406 381 367 365 q 475 410 444 397 m 376 735 q 401 792 376 769 q 454 814 425 814 q 506 792 482 814 q 531 735 531 769 q 506 678 531 700 q 454 657 482 657 q 401 678 425 657 q 376 735 376 700 m 113 735 q 137 792 113 769 q 192 814 161 814 q 244 792 219 814 q 268 735 268 769 q 244 678 268 700 q 192 657 219 657 q 137 678 161 657 q 113 735 113 700 z "},"ö":{"ha":701,"x_min":43,"x_max":658,"o":"m 43 292 q 67 410 43 354 q 133 506 92 465 q 231 572 175 547 q 353 596 288 596 q 474 572 418 596 q 572 506 531 547 q 635 410 613 465 q 658 292 658 354 q 635 174 658 229 q 572 76 613 118 q 474 10 531 35 q 351 -14 418 -14 q 231 8 288 -14 q 133 71 175 31 q 67 167 92 111 q 43 292 43 224 m 161 290 q 176 217 161 251 q 216 158 190 183 q 276 117 242 132 q 349 103 310 103 q 422 117 388 103 q 483 158 457 132 q 524 217 508 183 q 539 290 539 251 q 524 364 539 329 q 483 424 508 399 q 422 465 457 450 q 349 479 388 479 q 276 465 310 479 q 216 424 242 450 q 176 364 190 399 q 161 290 161 329 m 425 735 q 449 792 425 769 q 503 814 474 814 q 555 792 531 814 q 579 735 579 769 q 555 678 579 700 q 503 657 531 657 q 449 678 474 657 q 425 735 425 700 m 161 735 q 185 792 161 769 q 240 814 210 814 q 292 792 268 814 q 317 735 317 769 q 292 678 317 700 q 240 657 268 657 q 185 678 210 657 q 161 735 161 700 z "},"ü":{"ha":707,"x_min":78,"x_max":624,"o":"m 624 -12 l 524 -12 l 510 149 q 420 32 478 78 q 274 -14 363 -14 q 133 34 185 -14 q 78 160 81 82 l 78 581 l 196 581 l 196 213 q 227 139 199 169 q 315 104 256 108 q 392 119 357 104 q 451 158 426 133 q 490 218 476 183 q 504 294 504 253 l 504 581 l 624 581 l 624 -12 m 389 735 q 413 792 389 769 q 467 814 438 814 q 519 792 494 814 q 543 735 543 769 q 519 678 543 700 q 467 657 494 657 q 413 678 438 657 q 389 735 389 700 m 125 735 q 149 792 125 769 q 204 814 174 814 q 256 792 232 814 q 281 735 281 769 q 256 678 281 700 q 204 657 232 657 q 149 678 174 657 q 125 735 125 700 z "},"à":{"ha":747,"x_min":43,"x_max":664,"o":"m 43 285 q 67 405 43 349 q 133 503 92 461 q 230 571 175 546 q 347 596 285 596 q 424 585 389 596 q 483 560 458 575 q 524 528 508 544 q 544 499 539 511 l 550 581 l 664 581 l 664 0 l 544 0 l 544 74 q 522 47 538 63 q 483 19 507 32 q 425 -4 458 6 q 349 -14 392 -14 q 226 10 282 -14 q 129 76 169 35 q 66 171 89 117 q 43 285 43 225 m 163 292 q 177 217 163 251 q 217 157 192 182 q 276 117 242 132 q 353 103 311 103 q 430 117 394 103 q 491 158 465 132 q 531 217 517 183 q 544 292 544 251 q 531 366 544 332 q 491 425 517 400 q 430 465 465 450 q 353 479 394 479 q 276 465 311 479 q 217 425 242 450 q 177 366 192 400 q 163 292 163 332 m 257 861 q 320 768 289 815 q 383 675 351 721 l 294 675 q 211 768 253 721 q 129 861 169 815 l 257 861 z "},"è":{"ha":643,"x_min":43,"x_max":624,"o":"m 575 68 q 474 8 533 31 q 351 -14 414 -14 q 231 10 288 -14 q 133 76 175 35 q 67 172 92 117 q 43 290 43 228 q 67 408 43 353 q 133 506 92 464 q 230 572 175 547 q 347 596 285 596 q 519 537 446 596 q 624 382 592 478 q 525 344 581 367 q 410 298 469 322 q 290 250 350 274 q 179 207 231 226 q 248 131 203 160 q 349 103 293 103 q 424 117 386 103 q 486 154 463 131 l 575 68 m 475 410 q 422 462 458 444 q 349 479 386 479 q 274 464 308 479 q 215 423 240 449 q 176 364 190 397 q 161 296 161 331 q 162 286 161 289 q 163 282 163 283 q 241 313 199 296 q 325 348 283 331 q 406 381 367 365 q 475 410 444 397 m 232 861 q 295 768 264 815 q 358 675 326 721 l 269 675 q 186 768 228 721 q 104 861 144 815 l 232 861 z "},"ì":{"ha":285,"x_min":-56,"x_max":201,"o":"m 201 0 l 83 0 l 83 581 l 201 581 l 201 0 m 72 861 q 135 768 104 815 q 199 675 167 721 l 110 675 q 26 768 68 721 q -56 861 -15 815 l 72 861 z "},"ò":{"ha":701,"x_min":43,"x_max":658,"o":"m 43 292 q 67 410 43 354 q 133 506 92 465 q 231 572 175 547 q 353 596 288 596 q 474 572 418 596 q 572 506 531 547 q 635 410 613 465 q 658 292 658 354 q 635 174 658 229 q 572 76 613 118 q 474 10 531 35 q 351 -14 418 -14 q 231 8 288 -14 q 133 71 175 31 q 67 167 92 111 q 43 292 43 224 m 161 290 q 176 217 161 251 q 216 158 190 183 q 276 117 242 132 q 349 103 310 103 q 422 117 388 103 q 483 158 457 132 q 524 217 508 183 q 539 290 539 251 q 524 364 539 329 q 483 424 508 399 q 422 465 457 450 q 349 479 388 479 q 276 465 310 479 q 216 424 242 450 q 176 364 190 399 q 161 290 161 329 m 251 861 q 315 768 283 815 q 378 675 346 721 l 289 675 q 206 768 247 721 q 124 861 164 815 l 251 861 z "},"ù":{"ha":706,"x_min":78,"x_max":624,"o":"m 624 -12 l 524 -12 l 510 149 q 420 32 478 78 q 274 -14 363 -14 q 133 34 185 -14 q 78 160 81 82 l 78 581 l 196 581 l 196 213 q 227 139 199 169 q 315 104 256 108 q 392 119 357 104 q 451 158 426 133 q 490 218 476 183 q 504 294 504 253 l 504 581 l 624 581 l 624 -12 m 272 861 q 335 768 304 815 q 399 675 367 721 l 310 675 q 226 768 268 721 q 144 861 185 815 l 272 861 z "},",":{"ha":335,"x_min":7,"x_max":243,"o":"m 243 121 l 121 -168 l 7 -168 q 61 -24 35 -96 q 115 121 88 47 l 243 121 z "},".":{"ha":306,"x_min":75,"x_max":231,"o":"m 75 78 q 99 134 75 111 q 154 157 124 157 q 206 134 182 157 q 231 78 231 111 q 206 21 231 42 q 154 0 182 0 q 99 21 124 0 q 75 78 75 42 z "},"f":{"ha":447,"x_min":33,"x_max":460,"o":"m 33 465 l 33 582 l 132 582 l 132 717 q 217 987 132 899 q 460 1079 303 1075 l 460 965 q 301 896 351 960 q 251 714 251 832 l 251 582 l 435 582 l 435 465 l 251 465 l 251 0 l 132 0 l 132 465 l 33 465 z "},"å":{"ha":747,"x_min":43,"x_max":664,"o":"m 43 285 q 67 405 43 349 q 133 503 92 461 q 230 571 175 546 q 347 596 285 596 q 424 585 389 596 q 483 560 458 575 q 524 528 508 544 q 544 499 539 511 l 550 581 l 664 581 l 664 0 l 544 0 l 544 74 q 522 47 538 63 q 483 19 507 32 q 425 -4 458 6 q 349 -14 392 -14 q 226 10 282 -14 q 129 76 169 35 q 66 171 89 117 q 43 285 43 225 m 163 292 q 177 217 163 251 q 217 157 192 182 q 276 117 242 132 q 353 103 311 103 q 430 117 394 103 q 491 158 465 132 q 531 217 517 183 q 544 292 544 251 q 531 366 544 332 q 491 425 517 400 q 430 465 465 450 q 353 479 394 479 q 276 465 311 479 q 217 425 242 450 q 177 366 192 400 q 163 292 163 332 m 240 756 q 250 801 240 779 q 276 838 260 822 q 313 864 292 854 q 360 874 335 874 q 442 839 407 874 q 476 756 476 804 q 467 709 476 731 q 441 672 457 688 q 404 646 425 656 q 360 636 383 636 q 313 646 335 636 q 276 672 292 656 q 250 709 260 688 q 240 756 240 731 m 311 753 q 325 719 311 733 q 360 706 339 706 q 394 719 379 706 q 408 753 408 733 q 394 789 408 775 q 360 803 379 803 q 325 789 339 803 q 311 753 311 775 z "},"v":{"ha":618,"x_min":6,"x_max":615,"o":"m 310 -35 q 156 273 228 121 q 6 581 85 425 l 135 581 q 215 419 185 482 q 263 315 244 357 q 290 245 281 274 q 310 188 300 217 q 331 245 321 217 q 359 315 342 274 q 406 419 376 357 q 486 581 436 482 l 615 581 q 463 273 536 425 q 310 -35 389 121 z "},"j":{"ha":285,"x_min":-1,"x_max":222,"o":"m 82 -281 l -1 -192 q 61 -112 39 -160 q 83 3 83 -64 l 83 581 l 201 581 l 201 -1 q 169 -165 201 -96 q 82 -281 138 -235 m 71 803 q 94 858 71 836 q 147 881 118 881 q 199 858 175 881 q 222 803 222 836 q 199 748 222 769 q 147 726 175 726 q 94 748 118 726 q 71 803 71 769 z "},"s":{"ha":472,"x_min":39,"x_max":429,"o":"m 407 529 l 344 446 q 335 453 343 447 q 313 464 326 458 q 283 474 300 469 q 247 479 265 479 q 201 468 224 479 q 178 426 178 457 q 197 383 178 400 q 243 353 215 367 q 303 326 271 340 q 364 292 336 313 q 410 242 392 272 q 429 167 429 213 q 376 38 429 89 q 229 -12 322 -12 q 123 6 175 -12 q 39 61 71 25 q 60 86 49 71 q 84 115 72 101 q 103 138 96 129 q 113 147 111 147 q 123 139 113 146 q 150 124 133 132 q 188 110 167 117 q 229 104 208 104 q 286 121 263 104 q 310 165 310 138 q 291 205 310 190 q 244 232 272 219 q 183 258 217 244 q 122 292 150 271 q 76 344 94 313 q 57 425 57 375 q 74 504 57 472 q 119 556 92 536 q 179 585 146 576 q 243 594 213 594 q 329 578 283 594 q 407 529 375 561 z "},"k":{"ha":614,"x_min":83,"x_max":608,"o":"m 496 596 l 567 525 q 466 431 514 476 q 365 335 418 385 q 488 167 428 251 q 608 0 547 83 l 472 0 q 377 128 425 65 q 282 257 329 192 l 201 183 l 201 0 l 83 0 l 83 1079 l 201 1079 l 201 322 q 350 459 279 393 q 496 596 421 525 z "},"y":{"ha":665,"x_min":8,"x_max":657,"o":"m 243 -279 l 124 -279 q 160 -202 143 -239 q 195 -127 178 -165 q 231 -48 213 -89 q 271 40 249 -7 q 206 172 239 103 q 139 310 172 240 q 73 449 106 379 q 8 581 40 518 l 138 581 q 220 414 188 482 q 274 297 253 346 q 309 213 296 247 q 332 149 322 178 q 356 213 343 178 q 391 297 369 247 q 445 414 413 346 q 528 581 478 482 l 657 581 l 243 -279 z "},"ø":{"ha":701,"x_min":43,"x_max":658,"o":"m 43 292 q 67 410 43 354 q 133 506 92 465 q 231 572 175 547 q 353 596 288 596 q 438 584 397 596 q 514 551 479 572 q 547 590 532 574 q 569 617 561 606 l 632 567 l 575 501 q 637 406 615 460 q 658 292 658 353 q 635 174 658 229 q 572 76 613 118 q 474 10 531 35 q 351 -14 418 -14 q 171 39 249 -14 l 106 -36 l 47 18 l 113 93 q 61 182 79 132 q 43 292 43 232 m 250 129 q 349 103 296 103 q 422 117 388 103 q 483 158 457 132 q 524 217 508 183 q 539 290 539 251 q 527 354 539 324 q 496 410 515 385 l 250 129 m 161 290 q 193 185 161 232 q 313 323 250 251 q 433 460 376 394 q 349 479 392 479 q 276 465 310 479 q 216 424 242 450 q 176 364 190 399 q 161 290 161 329 z "},"w":{"ha":908,"x_min":13,"x_max":903,"o":"m 400 488 l 357 581 l 460 581 q 528 430 500 493 q 575 320 556 367 q 607 242 594 274 q 628 188 619 210 q 648 263 636 229 q 678 340 660 297 q 722 438 696 382 q 783 581 747 494 l 903 581 l 628 -35 q 581 67 603 17 q 540 168 560 118 q 498 268 519 218 q 451 371 476 318 l 275 -35 l 13 581 l 132 581 q 192 438 168 494 q 231 339 215 381 q 257 263 247 297 q 275 188 267 229 q 288 225 281 204 q 309 278 296 246 q 344 361 322 311 q 400 488 367 411 z "},"x":{"ha":603,"x_min":15,"x_max":593,"o":"m 228 307 q 127 444 179 376 q 28 581 75 513 l 174 581 q 206 531 190 553 q 238 488 222 508 q 270 445 254 467 q 304 397 286 424 q 369 488 339 449 q 436 581 400 528 l 568 581 q 519 509 543 542 q 472 444 496 476 q 424 377 449 411 q 374 301 400 343 q 427 229 399 268 q 485 151 456 190 q 542 72 514 111 q 593 0 569 33 l 442 0 q 365 100 403 54 q 289 199 328 146 q 218 100 253 146 q 147 0 183 54 l 15 0 q 122 155 68 79 q 228 307 176 231 z "},"z":{"ha":610,"x_min":21,"x_max":572,"o":"m 568 0 l 21 0 l 354 479 l 160 479 q 79 506 111 479 q 47 576 47 532 l 47 636 l 154 636 l 154 618 q 165 588 154 594 q 201 581 176 581 l 572 581 l 249 117 l 568 117 l 568 0 z "},"o":{"ha":701,"x_min":43,"x_max":658,"o":"m 43 292 q 67 410 43 354 q 133 506 92 465 q 231 572 175 547 q 353 596 288 596 q 474 572 418 596 q 572 506 531 547 q 635 410 613 465 q 658 292 658 354 q 635 174 658 229 q 572 76 613 118 q 474 10 531 35 q 351 -14 418 -14 q 231 8 288 -14 q 133 71 175 31 q 67 167 92 111 q 43 292 43 224 m 161 290 q 176 217 161 251 q 216 158 190 183 q 276 117 242 132 q 349 103 310 103 q 422 117 388 103 q 483 158 457 132 q 524 217 508 183 q 539 290 539 251 q 524 364 539 329 q 483 424 508 399 q 422 465 457 450 q 349 479 388 479 q 276 465 310 479 q 216 424 242 450 q 176 364 190 399 q 161 290 161 329 z "},"æ":{"ha":965,"x_min":39,"x_max":946,"o":"m 897 68 q 796 8 856 31 q 674 -14 736 -14 q 560 7 613 -14 q 467 64 507 28 q 372 8 429 28 q 247 -12 314 -12 q 151 2 190 -12 q 86 40 111 17 q 50 94 61 64 q 39 158 39 125 q 57 233 39 201 q 103 286 75 265 q 165 317 131 307 q 231 326 199 326 l 367 326 q 403 438 375 383 q 286 479 374 479 q 188 467 231 479 q 114 436 146 454 l 65 528 q 172 578 111 560 q 301 596 232 596 q 408 578 363 596 q 481 529 454 561 q 569 578 521 561 q 669 596 617 596 q 841 537 768 596 q 946 382 914 478 q 847 344 903 367 q 732 298 792 322 q 613 250 672 274 q 501 207 553 226 q 570 131 525 160 q 671 103 615 103 q 747 117 708 103 q 808 154 785 131 l 897 68 m 797 410 q 744 462 781 444 q 671 479 708 479 q 597 464 631 479 q 538 423 563 449 q 498 364 513 397 q 483 296 483 331 q 484 286 483 289 q 485 282 485 283 q 563 313 521 296 q 647 348 606 331 q 728 381 689 365 q 797 410 767 397 m 149 169 q 158 136 149 149 q 183 116 168 124 q 217 106 199 108 q 256 103 236 103 q 342 114 304 103 q 400 149 381 125 q 369 239 378 188 l 297 239 q 180 219 211 239 q 149 169 149 199 z "},"A":{"ha":899,"x_min":1,"x_max":897,"o":"m 747 0 q 728 44 740 15 q 699 112 715 74 q 665 195 683 150 q 626 289 646 240 l 271 289 l 151 0 l 1 0 l 450 1054 q 480 983 458 1035 q 531 860 501 932 q 598 702 561 789 q 673 526 635 615 q 748 351 711 438 q 815 193 785 265 q 867 70 846 121 q 897 0 889 19 l 747 0 m 324 417 l 575 417 q 538 505 556 463 q 506 583 521 547 q 481 644 492 618 q 464 686 469 671 q 458 706 463 689 q 450 736 453 722 q 442 706 447 722 q 435 686 436 689 l 324 417 z "},"ï":{"ha":285,"x_min":-61,"x_max":357,"o":"m 201 0 l 83 0 l 83 581 l 201 581 l 201 0 m 203 735 q 227 792 203 769 q 281 814 251 814 q 333 792 308 814 q 357 735 357 769 q 333 678 357 700 q 281 657 308 657 q 227 678 251 657 q 203 735 203 700 m -61 735 q -37 792 -61 769 q 18 814 -12 814 q 70 792 46 814 q 94 735 94 769 q 70 678 94 700 q 18 657 46 657 q -37 678 -12 657 q -61 735 -61 700 z "},"ý":{"ha":664,"x_min":8,"x_max":657,"o":"m 243 -279 l 124 -279 q 160 -202 143 -239 q 195 -127 178 -165 q 231 -48 213 -89 q 271 40 249 -7 q 206 172 239 103 q 139 310 172 240 q 73 449 106 379 q 8 581 40 518 l 138 581 q 220 414 188 482 q 274 297 253 346 q 309 213 296 247 q 332 149 322 178 q 356 213 343 178 q 391 297 369 247 q 445 414 413 346 q 528 581 478 482 l 657 581 l 243 -279 m 283 675 q 347 768 315 721 q 411 861 379 815 l 539 861 l 374 675 l 283 675 z "},"ÿ":{"ha":665,"x_min":8,"x_max":657,"o":"m 243 -279 l 124 -279 q 160 -202 143 -239 q 195 -127 178 -165 q 231 -48 213 -89 q 271 40 249 -7 q 206 172 239 103 q 139 310 172 240 q 73 449 106 379 q 8 581 40 518 l 138 581 q 220 414 188 482 q 274 297 253 346 q 309 213 296 247 q 332 149 322 178 q 356 213 343 178 q 391 297 369 247 q 445 414 413 346 q 528 581 478 482 l 657 581 l 243 -279 m 374 735 q 398 792 374 769 q 451 814 422 814 q 503 792 479 814 q 528 735 528 769 q 503 678 528 700 q 451 657 479 657 q 398 678 422 657 q 374 735 374 700 m 110 735 q 134 792 110 769 q 189 814 158 814 q 241 792 217 814 q 265 735 265 769 q 241 678 265 700 q 189 657 217 657 q 134 678 158 657 q 110 735 110 700 z "},"B":{"ha":825,"x_min":124,"x_max":761,"o":"m 276 869 l 276 572 l 413 572 q 525 617 488 572 q 563 725 563 661 q 517 835 563 800 q 397 869 472 869 l 276 869 m 276 443 l 276 138 l 418 138 q 494 147 458 138 q 556 176 529 157 q 597 224 582 194 q 613 292 613 253 q 594 363 613 335 q 547 410 576 392 q 478 435 517 428 q 400 443 440 443 l 276 443 m 124 0 l 124 1007 l 390 1007 q 524 992 464 1007 q 625 947 583 978 q 690 866 667 915 q 713 746 713 817 q 705 669 713 707 q 680 601 697 632 q 634 546 663 569 q 564 510 606 522 q 635 486 600 503 q 699 441 671 469 q 744 371 726 413 q 761 272 761 329 q 733 149 761 200 q 660 64 706 97 q 554 15 614 31 q 431 0 494 0 l 124 0 z "},"D":{"ha":988,"x_min":124,"x_max":932,"o":"m 124 1007 l 376 1007 q 635 961 529 1007 q 806 841 740 915 q 902 674 872 767 q 932 490 932 582 q 892 287 932 378 q 782 132 851 196 q 621 34 713 68 q 426 0 529 0 l 124 0 l 124 1007 m 404 144 q 553 168 485 144 q 673 237 622 192 q 752 348 724 282 q 781 500 781 414 q 749 660 781 592 q 665 773 717 728 q 549 840 614 818 q 418 861 485 861 l 275 861 l 275 144 l 404 144 z "},"E":{"ha":857,"x_min":124,"x_max":804,"o":"m 124 0 l 124 1007 l 785 1007 l 785 869 l 276 869 l 276 575 l 729 575 l 729 435 l 276 435 l 276 140 l 804 140 l 804 0 l 124 0 z "},"H":{"ha":1056,"x_min":124,"x_max":932,"o":"m 124 0 l 124 1007 l 275 1007 l 275 579 l 779 579 l 779 1007 l 932 1007 q 932 940 932 989 q 932 822 932 890 q 932 672 932 754 q 931 503 932 589 q 931 335 931 418 q 931 185 931 253 q 931 67 931 117 q 931 0 931 18 l 779 0 l 779 435 l 275 435 l 275 0 l 124 0 z "},"I":{"ha":399,"x_min":124,"x_max":275,"o":"m 124 1007 l 275 1007 l 275 0 l 124 0 l 124 1007 z "},"J":{"ha":454,"x_min":-39,"x_max":335,"o":"m -39 -208 l -39 -65 q 120 1 58 -60 q 182 192 182 63 l 182 1007 l 335 1007 l 335 188 q 307 22 335 94 q 229 -101 279 -50 q 110 -178 179 -151 q -39 -208 42 -206 z "},"K":{"ha":899,"x_min":124,"x_max":908,"o":"m 721 0 q 628 119 672 63 q 540 233 583 176 q 453 349 497 290 q 361 469 410 407 q 326 434 343 450 q 290 401 310 418 q 291 201 290 294 q 292 0 292 107 l 124 0 l 124 1007 l 292 1007 l 292 631 q 290 606 292 618 q 288 582 288 594 q 301 599 294 592 q 315 618 308 607 q 506 812 414 711 q 696 1007 597 913 l 889 1007 q 683 789 785 899 q 476 571 581 679 q 588 426 535 496 q 694 286 642 356 q 799 146 746 217 q 908 0 851 75 l 721 0 z "},"M":{"ha":1256,"x_min":124,"x_max":1132,"o":"m 124 1051 q 176 977 136 1032 q 267 850 215 922 q 378 697 319 778 q 488 544 436 615 q 577 419 539 472 q 628 350 615 367 q 654 388 632 357 q 709 464 676 418 q 783 567 742 510 q 869 685 825 625 q 955 806 913 746 q 1033 915 997 865 q 1095 1001 1069 964 q 1132 1051 1121 1038 l 1132 0 l 971 0 l 971 564 q 973 588 971 575 q 975 606 975 600 q 935 549 963 589 q 873 459 908 510 q 799 352 838 408 q 725 246 760 296 q 664 158 690 196 q 628 104 638 119 q 590 156 618 117 q 523 249 561 196 q 442 361 485 301 q 364 472 400 421 q 301 560 328 524 q 271 606 275 597 q 273 588 271 600 q 275 564 275 575 l 275 0 l 124 0 l 124 1051 z "},"N":{"ha":1131,"x_min":124,"x_max":1007,"o":"m 1007 1007 l 1007 -46 q 932 35 988 -21 q 804 163 876 90 q 651 314 732 235 q 497 465 569 393 q 371 592 425 536 q 299 672 317 649 l 272 708 l 276 664 l 276 0 l 124 0 l 124 1054 q 174 999 139 1035 q 258 915 210 963 q 363 811 306 867 q 480 699 421 756 q 597 587 539 642 q 702 485 654 532 q 785 401 750 438 q 833 347 819 365 l 860 308 l 856 356 l 856 1007 l 1007 1007 z "},"P":{"ha":801,"x_min":124,"x_max":758,"o":"m 276 503 l 414 503 q 507 522 469 503 q 566 569 544 542 q 597 629 588 597 q 606 686 606 661 q 597 744 606 713 q 565 802 588 775 q 506 847 543 829 q 415 865 469 865 l 276 865 l 276 503 m 124 0 l 124 1007 l 399 1007 q 544 986 478 1007 q 658 924 610 965 q 732 824 706 883 q 758 689 758 765 q 740 570 758 629 q 682 465 722 511 q 576 389 642 418 q 418 360 511 360 l 276 360 l 276 0 l 124 0 z "},"R":{"ha":872,"x_min":124,"x_max":857,"o":"m 124 0 l 124 1007 l 399 1007 q 544 986 478 1007 q 658 924 610 965 q 732 824 706 883 q 758 689 758 765 q 750 606 758 647 q 723 527 742 565 q 675 456 704 489 q 604 401 646 424 q 725 208 660 314 q 857 0 790 101 l 675 0 q 617 90 647 43 q 558 184 588 138 q 499 276 528 231 q 446 360 471 321 l 418 360 l 276 360 l 276 0 l 124 0 m 276 503 l 414 503 q 507 522 469 503 q 566 568 544 540 q 597 628 588 596 q 606 686 606 660 q 597 744 606 713 q 565 802 588 775 q 506 847 543 829 q 415 865 469 865 l 276 865 l 276 503 z "},"U":{"ha":993,"x_min":113,"x_max":881,"o":"m 496 -11 q 346 15 415 -11 q 224 90 276 42 q 142 205 172 138 q 113 356 113 272 l 113 1007 l 265 1007 l 265 360 q 283 270 265 311 q 331 198 300 229 q 404 149 363 167 q 496 132 446 132 q 587 149 544 132 q 660 198 629 167 q 710 270 692 229 q 728 360 728 311 l 728 1007 l 881 1007 l 881 356 q 851 205 881 272 q 769 90 821 138 q 647 15 717 42 q 496 -11 576 -11 z "},"Y":{"ha":911,"x_min":6,"x_max":903,"o":"m 532 332 l 532 0 l 379 0 l 379 332 q 341 399 369 347 q 274 520 313 450 q 192 669 236 590 q 110 819 149 749 q 44 940 72 889 q 6 1007 15 992 l 178 1007 q 222 927 190 986 q 293 794 254 868 q 372 644 332 719 q 440 514 413 568 l 456 468 q 465 491 461 479 q 474 514 469 503 q 542 644 503 568 q 619 794 581 719 q 688 927 657 868 q 732 1007 719 986 l 903 1007 l 532 332 z "},"~":{"ha":650,"x_min":100,"x_max":553,"o":"m 314 675 q 276 703 292 696 q 242 711 261 711 q 197 699 222 711 q 168 647 172 686 l 100 651 q 114 704 101 681 q 145 744 126 728 q 186 770 164 761 q 231 779 208 779 q 290 767 264 779 q 339 732 317 754 q 377 704 361 711 q 413 697 393 697 q 434 700 422 697 q 456 710 446 703 q 475 729 467 717 q 486 761 483 742 l 553 757 q 539 705 551 728 q 508 665 526 682 q 467 640 489 649 q 424 631 444 631 q 365 642 392 631 q 314 675 338 654 z "},"ñ":{"ha":707,"x_min":83,"x_max":629,"o":"m 83 581 l 188 581 q 192 502 190 538 q 197 432 194 467 q 288 551 229 507 q 433 596 347 596 q 574 547 521 596 q 629 422 626 499 l 629 0 l 510 0 l 510 368 q 479 444 507 413 q 392 478 451 475 q 315 463 350 478 q 256 424 281 449 q 216 364 231 399 q 201 288 201 329 l 201 0 l 83 0 l 83 581 m 374 707 q 336 735 351 728 q 301 743 321 743 q 257 731 282 743 q 228 679 232 718 l 160 683 q 174 736 161 713 q 205 776 186 760 q 246 802 224 793 q 290 811 268 811 q 350 799 324 811 q 399 764 376 786 q 437 736 421 743 q 472 729 453 729 q 494 732 482 729 q 516 742 506 735 q 535 761 526 749 q 546 793 543 774 l 613 789 q 599 737 611 760 q 567 697 586 714 q 526 672 549 681 q 483 663 504 663 q 424 674 451 663 q 374 707 397 686 z "},"F":{"ha":771,"x_min":124,"x_max":726,"o":"m 124 0 l 124 1007 l 726 1007 l 726 867 l 275 867 l 275 563 l 669 563 l 669 421 l 275 421 l 275 0 l 124 0 z "},"L":{"ha":793,"x_min":124,"x_max":776,"o":"m 124 0 l 124 1007 l 276 1007 l 276 144 l 776 144 l 776 0 l 124 0 z "},"C":{"ha":886,"x_min":54,"x_max":871,"o":"m 871 72 q 824 45 854 60 q 754 18 794 31 q 665 -3 714 6 q 560 -11 615 -11 q 348 30 442 -11 q 189 140 254 71 q 89 301 124 210 q 54 496 54 393 q 95 706 54 610 q 207 871 136 801 q 373 979 278 940 q 575 1018 468 1018 q 657 1013 615 1018 q 735 997 699 1007 q 801 974 772 988 q 844 947 829 961 q 827 919 833 931 q 814 897 821 908 q 799 869 807 885 q 776 829 790 854 q 734 850 758 842 q 683 864 710 858 q 630 872 657 869 q 581 875 603 875 q 431 845 500 875 q 313 765 363 815 q 234 647 263 714 q 206 508 206 581 q 233 372 206 438 q 308 256 260 307 q 423 174 356 204 q 571 143 490 143 q 654 151 614 143 q 727 171 694 160 q 781 193 760 182 q 807 210 803 204 l 871 72 z "},"Q":{"ha":1142,"x_min":53,"x_max":1114,"o":"m 53 503 q 93 701 53 607 q 203 865 133 794 q 365 977 272 936 q 565 1018 458 1018 q 765 977 671 1018 q 929 865 858 936 q 1041 701 1000 794 q 1082 503 1082 607 q 1044 303 1082 396 q 940 132 1007 210 l 1114 144 l 1114 0 l 674 0 q 619 -8 646 -6 q 565 -11 593 -11 q 365 29 458 -11 q 203 140 272 69 q 93 303 133 210 q 53 503 53 396 m 204 501 q 233 358 204 425 q 310 240 261 290 q 426 161 360 190 q 569 132 493 132 q 710 161 644 132 q 826 240 776 190 q 903 358 875 290 q 932 503 932 425 q 903 647 932 579 q 824 764 874 714 q 708 843 775 814 q 567 872 642 872 q 425 843 492 872 q 310 764 358 814 q 233 646 261 714 q 204 501 204 578 z "},"T":{"ha":765,"x_min":56,"x_max":710,"o":"m 710 1007 l 710 863 l 456 863 l 456 0 l 304 0 l 304 863 l 56 863 l 56 1007 l 710 1007 z "},"‹":{"ha":390,"x_min":56,"x_max":296,"o":"m 296 69 l 56 336 q 80 363 61 342 q 123 410 99 383 q 176 469 147 438 q 228 528 204 501 q 272 576 253 556 q 296 603 290 597 l 296 457 q 275 433 289 450 q 247 397 261 415 q 218 361 232 378 q 197 336 204 344 q 218 312 204 329 q 247 276 232 294 q 275 240 261 257 q 296 215 289 222 l 296 69 z "},">":{"ha":769,"x_min":110,"x_max":725,"o":"m 110 -19 l 110 154 l 424 335 l 110 517 l 110 690 l 725 335 l 110 -19 z "},"<":{"ha":769,"x_min":44,"x_max":660,"o":"m 660 154 l 660 -19 l 44 335 l 660 690 l 660 517 l 346 335 l 660 154 z "},"=":{"ha":879,"x_min":83,"x_max":796,"o":"m 796 276 l 796 151 l 83 151 l 83 276 l 796 276 m 796 550 l 796 425 l 83 425 l 83 550 l 796 550 z "},"@":{"ha":1313,"x_min":54,"x_max":1243,"o":"m 324 285 q 348 405 324 349 q 414 503 372 461 q 510 571 456 546 q 628 596 565 596 q 704 585 669 596 q 764 560 739 575 q 804 528 789 544 q 825 499 819 511 l 831 581 l 944 581 l 944 111 l 986 111 q 1028 122 1004 111 q 1075 160 1053 133 q 1112 231 1097 188 q 1126 340 1126 275 q 1098 497 1126 421 q 1012 633 1069 574 q 869 729 954 693 q 671 765 783 765 q 446 720 540 765 q 290 605 351 675 q 199 449 228 535 q 169 281 169 363 q 207 96 169 182 q 310 -56 244 10 q 464 -158 376 -121 q 651 -196 551 -196 q 807 -171 732 -196 q 944 -101 882 -146 l 1014 -183 q 840 -276 940 -246 q 644 -306 740 -306 q 416 -259 524 -306 q 228 -133 308 -212 q 101 55 149 -53 q 54 285 54 163 q 94 501 54 394 q 213 691 135 607 q 408 826 292 775 q 675 878 524 878 q 919 832 814 878 q 1097 711 1025 786 q 1206 540 1169 636 q 1243 342 1243 443 q 1224 197 1243 261 q 1169 90 1204 133 q 1088 23 1135 46 q 986 0 1040 0 l 825 0 l 825 74 q 803 47 818 63 q 763 19 788 32 q 706 -4 739 6 q 629 -14 672 -14 q 506 10 563 -14 q 410 76 450 35 q 347 171 369 117 q 324 285 324 225 m 443 292 q 458 217 443 251 q 497 157 472 182 q 557 117 522 132 q 633 103 592 103 q 710 117 675 103 q 772 158 746 132 q 811 217 797 183 q 825 292 825 251 q 811 366 825 332 q 772 425 797 400 q 710 465 746 450 q 633 479 675 479 q 557 465 592 479 q 497 425 522 450 q 458 366 472 400 q 443 292 443 332 z "},"?":{"ha":658,"x_min":46,"x_max":606,"o":"m 157 771 l 46 813 q 73 880 56 842 q 122 951 90 918 q 204 1008 154 985 q 329 1031 254 1031 q 438 1009 388 1031 q 526 950 489 988 q 584 863 563 913 q 606 757 606 813 q 569 619 606 678 q 468 513 532 560 q 426 483 449 499 q 384 449 404 468 q 351 403 364 429 q 338 340 338 376 l 338 231 l 210 231 l 210 367 q 224 441 210 413 q 260 491 238 469 q 313 531 283 513 q 375 575 343 550 q 475 757 475 653 q 435 864 475 821 q 329 907 396 907 q 263 899 290 907 q 215 873 235 890 q 181 830 194 856 q 157 771 167 804 m 272 -3 q 219 18 243 -3 q 194 74 194 39 q 219 131 194 108 q 272 153 243 153 q 324 131 300 153 q 349 74 349 108 q 324 18 349 39 q 272 -3 300 -3 z "},"!":{"ha":369,"x_min":107,"x_max":261,"o":"m 121 1056 l 249 1056 l 249 233 l 121 233 l 121 1056 m 185 -6 q 131 17 156 -6 q 107 74 107 39 q 131 131 107 108 q 185 153 156 153 q 238 131 214 153 q 261 74 261 108 q 238 17 261 39 q 185 -6 214 -6 z "},":":{"ha":307,"x_min":76,"x_max":231,"o":"m 76 460 q 101 516 76 493 q 154 539 125 539 q 206 516 182 539 q 231 460 231 493 q 206 402 231 424 q 154 381 182 381 q 101 402 125 381 q 76 460 76 424 m 76 78 q 101 134 76 111 q 154 157 125 157 q 206 134 182 157 q 231 78 231 111 q 206 21 231 42 q 154 0 182 0 q 101 21 125 0 q 76 78 76 42 z "},";":{"ha":351,"x_min":4,"x_max":265,"o":"m 240 121 l 119 -168 l 4 -168 q 59 -24 32 -96 q 114 121 86 47 l 240 121 m 113 431 q 137 487 113 464 q 189 510 161 510 q 242 487 218 510 q 265 431 265 464 q 242 373 265 394 q 189 351 218 351 q 137 373 161 351 q 113 431 113 394 z "},"\"":{"ha":489,"x_min":89,"x_max":403,"o":"m 276 664 l 276 1014 l 403 1014 l 397 664 l 276 664 m 89 664 l 89 1014 l 214 1014 l 208 664 l 89 664 z "},"#":{"ha":807,"x_min":56,"x_max":751,"o":"m 410 0 l 440 258 l 310 258 l 279 0 l 150 0 l 181 258 l 56 258 q 63 321 58 290 q 71 383 68 351 l 196 383 l 213 518 l 88 518 l 100 642 l 226 642 q 242 774 235 708 q 260 906 250 839 l 388 906 l 354 642 l 485 642 l 518 906 l 647 906 l 614 642 l 751 642 q 746 579 749 610 q 740 518 743 549 l 600 518 l 583 383 l 722 383 q 715 321 719 351 q 708 258 711 290 l 568 258 q 553 129 561 193 q 539 0 546 65 l 410 0 m 340 518 q 333 450 338 483 q 325 383 329 417 l 456 383 l 471 518 l 340 518 z "},"%":{"ha":997,"x_min":54,"x_max":946,"o":"m 708 157 q 723 115 708 132 q 763 99 738 99 q 803 115 789 99 q 817 157 817 132 q 803 197 817 181 q 763 213 789 213 q 723 197 738 213 q 708 157 708 181 m 763 -25 q 692 -11 725 -25 q 633 27 658 3 q 594 85 608 51 q 579 156 579 118 q 594 226 579 193 q 633 283 608 258 q 692 322 658 308 q 763 336 725 336 q 833 322 800 336 q 892 283 867 308 q 931 226 917 258 q 946 156 946 193 q 931 85 946 118 q 892 27 917 51 q 833 -11 867 3 q 763 -25 800 -25 m 182 547 q 197 507 182 524 q 238 490 211 490 q 277 507 263 490 q 292 547 292 524 q 277 588 292 572 q 238 604 263 604 q 197 588 211 604 q 182 547 182 572 m 238 367 q 167 381 200 367 q 108 419 133 394 q 69 478 83 444 q 54 549 54 511 q 69 619 54 586 q 108 676 83 651 q 167 714 133 700 q 238 728 200 728 q 308 714 275 728 q 365 676 340 700 q 405 619 390 651 q 419 549 419 586 q 405 478 419 511 q 365 419 390 444 q 308 381 340 394 q 238 367 275 367 m 218 0 q 428 352 324 178 q 638 704 533 526 l 778 704 q 568 352 674 526 q 358 0 463 178 l 218 0 z "},"’":{"ha":249,"x_min":56,"x_max":192,"o":"m 118 796 l 56 831 q 99 901 86 858 q 103 992 113 943 l 181 1001 q 175 890 192 943 q 118 796 158 836 z "},"(":{"ha":411,"x_min":50,"x_max":396,"o":"m 50 410 q 70 611 50 515 q 122 789 90 707 q 196 937 154 871 q 282 1050 238 1003 q 339 1034 310 1042 q 396 1018 368 1026 q 317 909 356 972 q 247 768 278 846 q 198 600 217 690 q 179 410 179 510 q 198 219 179 310 q 247 51 217 129 q 317 -90 278 -26 q 396 -199 356 -153 q 339 -216 368 -208 q 282 -232 310 -224 q 196 -118 238 -185 q 122 31 154 -51 q 70 208 90 113 q 50 410 50 304 z "},")":{"ha":411,"x_min":15,"x_max":361,"o":"m 361 404 q 342 203 361 299 q 290 25 322 107 q 215 -123 257 -57 q 128 -236 172 -189 q 72 -222 100 -229 q 15 -206 43 -214 q 94 -97 56 -160 q 164 44 133 -33 q 213 211 194 121 q 232 401 232 301 q 213 592 232 501 q 164 760 194 682 q 94 901 133 838 q 15 1010 56 964 q 72 1028 43 1018 q 128 1046 100 1038 q 215 933 172 999 q 290 784 257 867 q 342 606 322 701 q 361 404 361 510 z "},"*":{"ha":524,"x_min":68,"x_max":457,"o":"m 347 799 q 400 768 374 783 q 454 738 426 753 q 432 699 443 718 q 410 660 421 679 l 303 724 q 302 663 303 693 q 301 603 301 633 l 218 603 l 218 724 q 165 694 192 708 q 113 664 139 679 l 68 740 l 175 800 l 69 864 q 90 899 81 882 q 110 936 100 917 l 218 872 l 218 1000 l 307 1000 q 306 936 307 968 q 306 872 306 904 l 415 935 l 457 863 q 402 831 429 847 q 347 799 375 814 z "},"+":{"ha":621,"x_min":57,"x_max":564,"o":"m 246 72 l 246 263 l 57 263 l 57 386 l 246 386 l 246 579 l 375 579 l 375 386 l 564 386 l 564 263 l 375 263 l 375 72 l 246 72 z "},"|":{"ha":365,"x_min":118,"x_max":247,"o":"m 118 -328 l 118 986 l 247 986 l 247 -328 l 118 -328 z "},"{":{"ha":454,"x_min":38,"x_max":413,"o":"m 38 356 l 38 479 q 92 499 71 481 q 126 547 114 518 q 144 608 139 575 q 149 669 149 640 l 149 885 q 163 984 149 950 q 199 1033 176 1018 q 253 1049 222 1047 q 319 1050 285 1050 l 413 1050 l 413 926 l 353 926 q 316 922 331 926 q 293 901 301 917 q 281 857 285 885 q 278 783 278 829 l 278 604 q 269 533 278 564 q 246 481 260 503 q 216 443 232 458 q 188 419 200 428 q 216 396 200 411 q 246 358 232 381 q 269 306 260 336 q 278 236 278 275 l 278 58 q 281 -16 278 13 q 293 -60 285 -44 q 316 -81 301 -75 q 353 -86 331 -86 l 413 -86 l 413 -211 l 319 -211 q 256 -210 286 -211 q 201 -194 225 -208 q 163 -146 176 -179 q 149 -49 149 -112 l 149 165 q 144 227 149 194 q 126 288 139 260 q 92 335 114 315 q 38 356 71 354 z "},"}":{"ha":456,"x_min":43,"x_max":418,"o":"m 418 479 l 418 356 q 363 336 385 354 q 329 291 342 318 q 312 232 317 264 q 307 171 307 200 l 307 -43 q 293 -143 307 -108 q 256 -193 279 -178 q 202 -210 233 -208 q 136 -211 171 -211 l 43 -211 l 43 -86 l 103 -86 q 139 -81 125 -86 q 161 -60 153 -75 q 173 -16 169 -44 q 176 58 176 13 l 176 231 q 186 304 176 272 q 210 359 196 336 q 240 397 224 382 q 268 419 256 411 q 240 443 256 428 q 210 481 224 458 q 186 533 196 503 q 176 604 176 564 l 176 783 q 173 857 176 829 q 161 901 169 885 q 139 922 153 917 q 103 926 125 926 l 43 926 l 43 1050 l 136 1050 q 201 1049 169 1050 q 256 1034 232 1049 q 293 985 279 1019 q 307 885 307 951 l 307 664 q 312 602 307 635 q 329 542 317 569 q 363 497 342 515 q 418 479 385 479 z "},"-":{"ha":411,"x_min":76,"x_max":335,"o":"m 76 240 l 76 364 l 335 364 l 335 240 l 76 240 z "},"/":{"ha":607,"x_min":43,"x_max":564,"o":"m 43 -26 l 435 1036 l 564 1036 q 367 505 464 769 q 171 -26 271 240 l 43 -26 z "},"\\":{"ha":621,"x_min":43,"x_max":579,"o":"m 188 1036 q 383 505 286 769 q 579 -26 479 240 l 435 -26 l 43 1036 l 188 1036 z "},"G":{"ha":951,"x_min":54,"x_max":875,"o":"m 875 482 l 875 60 q 736 8 817 26 q 572 -11 656 -11 q 358 26 453 -11 q 194 130 263 64 q 90 286 126 196 q 54 483 54 376 q 97 699 54 601 q 212 868 139 797 q 380 978 285 939 q 582 1018 475 1018 q 733 999 654 1018 q 871 946 813 981 l 797 822 q 749 844 776 835 q 693 861 722 854 q 635 872 664 868 q 579 875 606 875 q 438 846 506 875 q 318 765 369 817 q 236 644 267 714 q 206 494 206 575 q 233 356 206 421 q 308 240 260 290 q 425 161 357 190 q 575 132 493 132 q 651 138 607 132 q 735 160 694 144 l 735 351 l 539 351 l 539 482 l 875 482 z "},"V":{"ha":901,"x_min":3,"x_max":899,"o":"m 153 1007 q 185 930 163 983 q 235 808 207 876 q 295 664 264 740 q 354 519 326 588 q 404 398 382 451 q 436 321 426 344 q 443 301 438 318 q 451 272 449 285 l 465 321 q 497 398 475 344 q 547 519 519 451 q 606 664 575 588 q 666 808 638 740 q 717 930 694 876 q 749 1007 739 983 l 899 1007 q 869 937 890 988 q 817 814 847 886 q 749 656 786 742 q 674 481 713 569 q 599 306 636 392 q 533 147 563 219 q 481 24 503 75 q 451 -46 460 -26 l 3 1007 l 153 1007 z "},"S":{"ha":785,"x_min":33,"x_max":736,"o":"m 700 951 l 646 828 q 533 861 589 849 q 425 874 476 874 q 285 838 338 874 q 233 746 233 801 q 271 670 233 699 q 364 619 308 642 q 485 573 419 596 q 606 514 550 550 q 699 423 661 478 q 736 282 736 368 q 712 162 736 215 q 640 69 688 108 q 520 10 592 31 q 353 -11 449 -11 q 242 -3 292 -11 q 153 19 193 6 q 84 47 114 32 q 33 75 54 63 l 100 207 q 224 156 156 175 q 347 136 292 136 q 416 143 375 136 q 494 167 457 150 q 559 214 532 185 q 586 288 586 243 q 565 356 586 328 q 508 406 543 385 q 427 445 472 428 q 335 481 382 463 q 242 521 288 500 q 162 572 197 542 q 105 641 126 601 q 83 736 83 681 q 104 838 83 788 q 167 926 125 888 q 270 989 208 965 q 414 1013 332 1013 q 512 1004 464 1013 q 599 985 560 996 q 665 965 638 975 q 700 951 692 956 z "},"Z":{"ha":882,"x_min":1,"x_max":850,"o":"m 242 1007 l 838 1007 l 265 146 l 850 146 l 850 0 l 1 0 q 44 63 15 18 q 113 167 74 107 q 198 300 151 228 q 293 447 244 372 q 388 593 342 521 q 474 725 435 665 q 542 828 513 785 q 585 889 571 871 l 182 889 q 138 895 160 889 q 100 913 117 901 q 73 940 83 924 q 63 978 63 957 l 63 1058 l 199 1058 l 199 1039 q 208 1010 199 1014 q 242 1007 218 1007 z "},"W":{"ha":1317,"x_min":10,"x_max":1306,"o":"m 1306 1003 q 1199 726 1256 871 q 1088 440 1143 581 q 985 174 1033 300 q 903 -44 936 47 l 678 518 q 671 535 674 529 q 665 551 668 540 q 664 541 665 546 q 661 531 663 536 q 658 519 660 525 q 565 307 611 411 q 525 215 546 263 q 485 122 504 168 q 447 32 465 75 q 413 -46 428 -11 q 211 478 313 217 q 10 1003 110 739 l 181 1003 q 249 818 214 911 q 316 639 285 725 q 372 479 347 553 q 411 354 397 406 l 422 306 q 429 328 424 313 q 438 351 435 344 q 447 376 439 357 q 467 423 456 396 q 492 482 478 450 q 519 547 506 514 q 593 717 553 624 q 551 839 569 782 q 520 935 535 888 q 499 1003 506 982 l 644 1003 q 756 713 704 846 q 798 599 776 656 q 838 493 819 542 q 871 408 857 444 q 890 354 885 371 q 897 330 894 342 q 901 306 899 318 q 906 331 904 318 q 911 354 908 343 q 950 483 924 408 q 1009 644 976 558 q 1078 823 1042 731 q 1147 1003 1114 915 l 1306 1003 z "},"X":{"ha":876,"x_min":10,"x_max":867,"o":"m 339 515 l 24 1007 l 210 1007 q 233 969 217 996 q 271 909 250 943 q 315 837 292 875 q 360 765 339 799 q 397 704 381 731 q 419 667 413 678 q 429 648 421 664 q 442 619 438 632 q 454 648 446 632 q 464 667 463 664 q 487 704 471 678 q 523 765 503 731 q 565 837 543 799 q 608 909 588 875 q 644 969 628 943 q 667 1007 660 996 l 853 1007 q 821 956 844 994 q 765 867 797 918 q 696 757 732 815 q 627 647 660 699 q 570 558 594 596 q 539 507 546 519 l 867 0 l 678 0 l 472 331 q 464 343 469 335 q 453 362 458 351 q 442 382 447 372 q 433 397 436 392 q 422 371 429 385 q 414 356 415 357 q 372 287 403 338 q 306 178 340 236 q 241 69 272 119 q 199 0 210 18 l 10 0 l 339 515 z "},"Æ":{"ha":1008,"x_min":3,"x_max":957,"o":"m 431 0 l 431 289 l 272 289 l 153 0 l 3 0 l 431 1007 l 938 1007 l 938 869 l 572 869 l 572 575 l 882 575 l 882 435 l 572 435 l 572 140 l 957 140 l 957 0 l 431 0 m 321 407 l 431 407 l 431 674 l 321 407 z "},"Ñ":{"ha":1129,"x_min":122,"x_max":1006,"o":"m 1006 1007 l 1006 -46 q 931 35 986 -21 q 803 163 875 90 q 649 314 731 235 q 496 465 568 393 q 369 592 424 536 q 297 672 315 649 l 271 708 l 275 664 l 275 0 l 122 0 l 122 1054 q 173 999 138 1035 q 256 915 208 963 q 362 811 304 867 q 478 699 419 756 q 595 587 538 642 q 701 485 653 532 q 783 401 749 438 q 832 347 818 365 l 858 308 l 854 356 l 854 1007 l 1006 1007 m 549 1096 q 511 1124 526 1117 q 476 1132 496 1132 q 432 1119 457 1132 q 403 1068 407 1107 l 335 1072 q 349 1125 336 1101 q 380 1165 361 1149 q 421 1191 399 1182 q 465 1200 443 1200 q 525 1188 499 1200 q 574 1153 551 1175 q 612 1125 596 1132 q 647 1118 628 1118 q 669 1121 657 1118 q 691 1131 681 1124 q 710 1150 701 1138 q 721 1182 718 1163 l 788 1178 q 774 1126 786 1149 q 742 1086 761 1103 q 701 1060 724 1069 q 658 1051 679 1051 q 599 1063 626 1051 q 549 1096 572 1075 z "},"Å":{"ha":899,"x_min":1,"x_max":897,"o":"m 747 0 q 728 44 740 15 q 699 112 715 74 q 665 195 683 150 q 626 289 646 240 l 271 289 l 151 0 l 1 0 l 450 1054 q 480 983 458 1035 q 531 860 501 932 q 598 702 561 789 q 673 526 635 615 q 748 351 711 438 q 815 193 785 265 q 867 70 846 121 q 897 0 889 19 l 747 0 m 332 1179 q 342 1224 332 1203 q 367 1262 351 1246 q 405 1288 383 1278 q 451 1297 426 1297 q 533 1263 499 1297 q 568 1179 568 1228 q 533 1096 568 1131 q 451 1061 499 1061 q 405 1071 426 1061 q 367 1097 383 1081 q 342 1134 351 1113 q 332 1179 332 1156 m 324 417 l 575 417 q 538 505 556 463 q 506 583 521 547 q 481 644 492 618 q 464 686 469 671 q 458 706 463 689 q 450 736 453 722 q 442 706 447 722 q 435 686 436 689 l 324 417 m 403 1178 q 417 1144 403 1158 q 451 1131 431 1131 q 485 1144 471 1131 q 500 1178 500 1158 q 485 1213 500 1199 q 451 1228 471 1228 q 417 1213 431 1228 q 403 1178 403 1199 z "},"Á":{"ha":899,"x_min":1,"x_max":897,"o":"m 897 0 q 867 70 889 19 q 815 193 846 121 q 748 351 785 265 q 673 526 711 438 q 598 702 635 615 q 531 860 561 789 q 480 983 501 932 q 450 1054 458 1035 l 1 0 l 151 0 l 271 289 l 626 289 q 665 195 646 240 q 699 112 683 150 q 728 44 715 74 q 747 0 740 15 l 897 0 m 435 686 q 442 706 436 689 q 450 736 447 722 q 458 706 453 722 q 464 686 463 689 q 481 644 469 671 q 506 583 492 618 q 538 505 521 547 q 575 417 556 463 l 324 417 l 435 686 m 385 1065 q 449 1158 417 1111 q 513 1251 481 1206 l 640 1251 l 475 1065 l 385 1065 z "},"É":{"ha":857,"x_min":124,"x_max":804,"o":"m 124 0 l 124 1007 l 785 1007 l 785 869 l 276 869 l 276 575 l 729 575 l 729 435 l 276 435 l 276 140 l 804 140 l 804 0 l 124 0 m 382 1065 q 446 1158 414 1111 q 510 1251 478 1206 l 638 1251 l 472 1065 l 382 1065 z "},"Í":{"ha":399,"x_min":124,"x_max":388,"o":"m 124 1007 l 275 1007 l 275 0 l 124 0 l 124 1007 m 132 1065 q 196 1158 164 1111 q 260 1251 228 1206 l 388 1251 l 222 1065 l 132 1065 z "},"Ó":{"ha":1135,"x_min":53,"x_max":1082,"o":"m 53 503 q 93 701 53 607 q 203 865 133 794 q 367 977 274 936 q 567 1018 460 1018 q 766 977 672 1018 q 930 865 860 936 q 1041 701 1000 794 q 1082 503 1082 607 q 1041 303 1082 396 q 930 140 1000 210 q 766 29 860 69 q 567 -11 672 -11 q 367 29 460 -11 q 203 140 274 69 q 93 303 133 210 q 53 503 53 396 m 204 501 q 233 358 204 425 q 311 240 261 290 q 428 161 361 190 q 569 132 494 132 q 710 161 644 132 q 826 240 776 190 q 903 358 875 290 q 932 503 932 425 q 903 647 932 579 q 825 764 875 714 q 709 843 775 814 q 568 872 643 872 q 426 843 493 872 q 310 764 360 814 q 233 646 261 714 q 204 501 204 578 m 492 1065 q 556 1158 524 1111 q 619 1251 588 1206 l 747 1251 l 582 1065 l 492 1065 z "},"Ú":{"ha":993,"x_min":113,"x_max":881,"o":"m 496 -11 q 346 15 415 -11 q 224 90 276 42 q 142 205 172 138 q 113 356 113 272 l 113 1007 l 265 1007 l 265 360 q 283 270 265 311 q 331 198 300 229 q 404 149 363 167 q 496 132 446 132 q 587 149 544 132 q 660 198 629 167 q 710 270 692 229 q 728 360 728 311 l 728 1007 l 881 1007 l 881 356 q 851 205 881 272 q 769 90 821 138 q 647 15 717 42 q 496 -11 576 -11 m 426 1065 q 490 1158 458 1111 q 554 1251 522 1206 l 682 1251 l 517 1065 l 426 1065 z "},"Ä":{"ha":899,"x_min":1,"x_max":897,"o":"m 897 0 q 867 70 889 19 q 815 193 846 121 q 748 351 785 265 q 673 526 711 438 q 598 702 635 615 q 531 860 561 789 q 480 983 501 932 q 450 1054 458 1035 l 1 0 l 151 0 l 271 289 l 626 289 q 665 195 646 240 q 699 112 683 150 q 728 44 715 74 q 747 0 740 15 l 897 0 m 435 686 q 442 706 436 689 q 450 736 447 722 q 458 706 453 722 q 464 686 463 689 q 481 644 469 671 q 506 583 492 618 q 538 505 521 547 q 575 417 556 463 l 324 417 l 435 686 m 239 1153 q 263 1210 239 1188 q 318 1232 288 1232 q 370 1210 346 1232 q 394 1153 394 1188 q 370 1097 394 1118 q 318 1075 346 1075 q 263 1097 288 1075 q 239 1153 239 1118 m 503 1153 q 527 1210 503 1188 q 581 1232 551 1232 q 633 1210 608 1232 q 657 1153 657 1188 q 633 1097 657 1118 q 581 1075 608 1075 q 527 1097 551 1075 q 503 1153 503 1118 z "},"Ë":{"ha":857,"x_min":124,"x_max":804,"o":"m 124 0 l 124 1007 l 785 1007 l 785 869 l 276 869 l 276 575 l 729 575 l 729 435 l 276 435 l 276 140 l 804 140 l 804 0 l 124 0 m 528 1153 q 552 1210 528 1188 q 606 1232 576 1232 q 658 1210 633 1232 q 682 1153 682 1188 q 658 1097 682 1118 q 606 1075 633 1075 q 552 1097 576 1075 q 528 1153 528 1118 m 264 1153 q 288 1210 264 1188 q 343 1232 313 1232 q 395 1210 371 1232 q 419 1153 419 1188 q 395 1097 419 1118 q 343 1075 371 1075 q 288 1097 313 1075 q 264 1153 264 1118 z "},"Ï":{"ha":399,"x_min":-7,"x_max":411,"o":"m 124 1007 l 275 1007 l 275 0 l 124 0 l 124 1007 m 257 1153 q 281 1210 257 1188 q 335 1232 306 1232 q 387 1210 363 1232 q 411 1153 411 1188 q 387 1097 411 1118 q 335 1075 363 1075 q 281 1097 306 1075 q 257 1153 257 1118 m -7 1153 q 17 1210 -7 1188 q 72 1232 42 1232 q 124 1210 100 1232 q 149 1153 149 1188 q 124 1097 149 1118 q 72 1075 100 1075 q 17 1097 42 1075 q -7 1153 -7 1118 z "},"Ö":{"ha":1135,"x_min":53,"x_max":1082,"o":"m 53 503 q 93 701 53 607 q 203 865 133 794 q 367 977 274 936 q 567 1018 460 1018 q 766 977 672 1018 q 930 865 860 936 q 1041 701 1000 794 q 1082 503 1082 607 q 1041 303 1082 396 q 930 140 1000 210 q 766 29 860 69 q 567 -11 672 -11 q 367 29 460 -11 q 203 140 274 69 q 93 303 133 210 q 53 503 53 396 m 204 501 q 233 358 204 425 q 311 240 261 290 q 428 161 361 190 q 569 132 494 132 q 710 161 644 132 q 826 240 776 190 q 903 358 875 290 q 932 503 932 425 q 903 647 932 579 q 825 764 875 714 q 709 843 775 814 q 568 872 643 872 q 426 843 493 872 q 310 764 360 814 q 233 646 261 714 q 204 501 204 578 m 628 1153 q 652 1210 628 1188 q 706 1232 676 1232 q 758 1210 733 1232 q 782 1153 782 1188 q 758 1097 782 1118 q 706 1075 733 1075 q 652 1097 676 1075 q 628 1153 628 1118 m 364 1153 q 388 1210 364 1188 q 443 1232 413 1232 q 495 1210 471 1232 q 519 1153 519 1188 q 495 1097 519 1118 q 443 1075 471 1075 q 388 1097 413 1075 q 364 1153 364 1118 z "},"Ü":{"ha":993,"x_min":113,"x_max":881,"o":"m 496 -11 q 346 15 415 -11 q 224 90 276 42 q 142 205 172 138 q 113 356 113 272 l 113 1007 l 265 1007 l 265 360 q 283 270 265 311 q 331 198 300 229 q 404 149 363 167 q 496 132 446 132 q 587 149 544 132 q 660 198 629 167 q 710 270 692 229 q 728 360 728 311 l 728 1007 l 881 1007 l 881 356 q 851 205 881 272 q 769 90 821 138 q 647 15 717 42 q 496 -11 576 -11 m 565 1153 q 590 1210 565 1188 q 643 1232 614 1232 q 695 1210 671 1232 q 719 1153 719 1188 q 695 1097 719 1118 q 643 1075 671 1075 q 590 1097 614 1075 q 565 1153 565 1118 m 301 1153 q 326 1210 301 1188 q 381 1232 350 1232 q 433 1210 408 1232 q 457 1153 457 1188 q 433 1097 457 1118 q 381 1075 408 1075 q 326 1097 350 1075 q 301 1153 301 1118 z "},"À":{"ha":899,"x_min":1,"x_max":897,"o":"m 897 0 q 867 70 889 19 q 815 193 846 121 q 748 351 785 265 q 673 526 711 438 q 598 702 635 615 q 531 860 561 789 q 480 983 501 932 q 450 1054 458 1035 l 1 0 l 151 0 l 271 289 l 626 289 q 665 195 646 240 q 699 112 683 150 q 728 44 715 74 q 747 0 740 15 l 897 0 m 435 686 q 442 706 436 689 q 450 736 447 722 q 458 706 453 722 q 464 686 463 689 q 481 644 469 671 q 506 583 492 618 q 538 505 521 547 q 575 417 556 463 l 324 417 l 435 686 m 392 1251 q 455 1158 424 1206 q 518 1065 486 1111 l 429 1065 q 346 1158 388 1111 q 264 1251 304 1206 l 392 1251 z "},"È":{"ha":857,"x_min":124,"x_max":804,"o":"m 124 0 l 124 1007 l 785 1007 l 785 869 l 276 869 l 276 575 l 729 575 l 729 435 l 276 435 l 276 140 l 804 140 l 804 0 l 124 0 m 433 1251 q 497 1158 465 1206 q 560 1065 528 1111 l 471 1065 q 388 1158 429 1111 q 306 1251 346 1206 l 433 1251 z "},"Ì":{"ha":399,"x_min":15,"x_max":275,"o":"m 124 1007 l 275 1007 l 275 0 l 124 0 l 124 1007 m 143 1251 q 206 1158 175 1206 q 269 1065 238 1111 l 181 1065 q 97 1158 139 1111 q 15 1251 56 1206 l 143 1251 z "},"Ò":{"ha":1135,"x_min":53,"x_max":1082,"o":"m 53 503 q 93 701 53 607 q 203 865 133 794 q 367 977 274 936 q 567 1018 460 1018 q 766 977 672 1018 q 930 865 860 936 q 1041 701 1000 794 q 1082 503 1082 607 q 1041 303 1082 396 q 930 140 1000 210 q 766 29 860 69 q 567 -11 672 -11 q 367 29 460 -11 q 203 140 274 69 q 93 303 133 210 q 53 503 53 396 m 204 501 q 233 358 204 425 q 311 240 261 290 q 428 161 361 190 q 569 132 494 132 q 710 161 644 132 q 826 240 776 190 q 903 358 875 290 q 932 503 932 425 q 903 647 932 579 q 825 764 875 714 q 709 843 775 814 q 568 872 643 872 q 426 843 493 872 q 310 764 360 814 q 233 646 261 714 q 204 501 204 578 m 538 1251 q 601 1158 569 1206 q 664 1065 632 1111 l 575 1065 q 492 1158 533 1111 q 410 1251 450 1206 l 538 1251 z "},"Ù":{"ha":993,"x_min":113,"x_max":881,"o":"m 496 -11 q 346 15 415 -11 q 224 90 276 42 q 142 205 172 138 q 113 356 113 272 l 113 1007 l 265 1007 l 265 360 q 283 270 265 311 q 331 198 300 229 q 404 149 363 167 q 496 132 446 132 q 587 149 544 132 q 660 198 629 167 q 710 270 692 229 q 728 360 728 311 l 728 1007 l 881 1007 l 881 356 q 851 205 881 272 q 769 90 821 138 q 647 15 717 42 q 496 -11 576 -11 m 461 1251 q 524 1158 493 1206 q 588 1065 556 1111 l 499 1065 q 415 1158 457 1111 q 333 1251 374 1206 l 461 1251 z "},"Ý":{"ha":911,"x_min":6,"x_max":903,"o":"m 532 332 l 532 0 l 379 0 l 379 332 q 341 399 369 347 q 274 520 313 450 q 192 669 236 590 q 110 819 149 749 q 44 940 72 889 q 6 1007 15 992 l 178 1007 q 222 927 190 986 q 293 794 254 868 q 372 644 332 719 q 440 514 413 568 l 456 468 q 465 491 461 479 q 474 514 469 503 q 542 644 503 568 q 619 794 581 719 q 688 927 657 868 q 732 1007 719 986 l 903 1007 l 532 332 m 390 1065 q 454 1158 422 1111 q 518 1251 486 1206 l 646 1251 l 481 1065 l 390 1065 z "},"¡":{"ha":367,"x_min":106,"x_max":260,"o":"m 119 528 l 247 528 l 247 -294 l 119 -294 l 119 528 m 183 767 q 236 744 213 767 q 260 688 260 722 q 236 631 260 653 q 183 608 213 608 q 130 631 154 608 q 106 688 106 653 q 130 744 106 722 q 183 767 154 767 z "},"Ø":{"ha":1135,"x_min":53,"x_max":1082,"o":"m 53 503 q 93 701 53 607 q 203 865 133 794 q 367 977 274 936 q 567 1018 460 1018 q 724 992 649 1018 q 861 922 799 967 l 942 1017 l 1013 951 l 935 860 q 1042 698 1003 789 q 1082 503 1082 607 q 1041 303 1082 396 q 930 140 1000 210 q 766 29 860 69 q 567 -11 672 -11 q 408 14 483 -11 q 271 83 333 39 q 221 24 243 51 q 181 -22 199 -3 l 107 42 l 196 146 q 91 308 129 217 q 53 503 53 399 m 365 194 q 569 132 456 132 q 710 161 644 132 q 826 240 776 190 q 903 358 875 290 q 932 503 932 425 q 908 637 932 574 q 839 749 883 700 q 725 615 785 686 q 603 472 665 544 q 481 329 542 400 q 365 194 419 258 m 204 501 q 228 369 204 431 q 293 260 251 308 l 767 811 q 673 856 724 840 q 568 872 622 872 q 426 843 493 872 q 310 764 360 814 q 233 646 261 714 q 204 501 204 578 z "},"¿":{"ha":661,"x_min":56,"x_max":615,"o":"m 504 -22 l 615 -64 q 588 -131 606 -93 q 539 -203 571 -169 q 457 -259 507 -236 q 332 -282 407 -282 q 223 -260 274 -282 q 135 -201 172 -239 q 77 -115 99 -164 q 56 -8 56 -65 q 92 130 56 71 q 193 236 129 189 q 234 265 211 250 q 277 300 257 281 q 310 346 297 319 q 324 408 324 372 l 324 518 l 451 518 l 451 382 q 438 308 451 336 q 401 258 424 279 q 348 217 378 236 q 286 174 318 199 q 186 -8 186 96 q 226 -115 186 -72 q 332 -158 265 -158 q 446 -124 408 -158 q 504 -22 483 -90 m 389 751 q 442 731 418 751 q 467 675 467 710 q 442 618 467 640 q 389 596 418 596 q 337 618 361 596 q 313 675 313 640 q 337 731 313 710 q 389 751 361 751 z "},"Ã":{"ha":899,"x_min":1,"x_max":897,"o":"m 897 0 q 867 70 889 19 q 815 193 846 121 q 748 351 785 265 q 673 526 711 438 q 598 702 635 615 q 531 860 561 789 q 480 983 501 932 q 450 1054 458 1035 l 1 0 l 151 0 l 271 289 l 626 289 q 665 195 646 240 q 699 112 683 150 q 728 44 715 74 q 747 0 740 15 l 897 0 m 435 686 q 442 706 436 689 q 450 736 447 722 q 458 706 453 722 q 464 686 463 689 q 481 644 469 671 q 506 583 492 618 q 538 505 521 547 q 575 417 556 463 l 324 417 l 435 686 m 438 1108 q 400 1137 415 1129 q 365 1144 385 1144 q 321 1132 346 1144 q 292 1081 296 1119 l 224 1085 q 238 1138 225 1114 q 269 1178 250 1161 q 310 1203 288 1194 q 354 1213 332 1213 q 414 1200 388 1213 q 463 1165 440 1188 q 501 1138 485 1144 q 536 1131 517 1131 q 558 1133 546 1131 q 580 1143 569 1136 q 599 1163 590 1150 q 610 1194 607 1175 l 676 1190 q 663 1138 675 1161 q 631 1099 650 1115 q 590 1073 613 1082 q 547 1064 568 1064 q 488 1076 515 1064 q 438 1108 461 1088 z "},"Õ":{"ha":1135,"x_min":53,"x_max":1082,"o":"m 53 503 q 93 701 53 607 q 203 865 133 794 q 367 977 274 936 q 567 1018 460 1018 q 766 977 672 1018 q 930 865 860 936 q 1041 701 1000 794 q 1082 503 1082 607 q 1041 303 1082 396 q 930 140 1000 210 q 766 29 860 69 q 567 -11 672 -11 q 367 29 460 -11 q 203 140 274 69 q 93 303 133 210 q 53 503 53 396 m 204 501 q 233 358 204 425 q 311 240 261 290 q 428 161 361 190 q 569 132 494 132 q 710 161 644 132 q 826 240 776 190 q 903 358 875 290 q 932 503 932 425 q 903 647 932 579 q 825 764 875 714 q 709 843 775 814 q 568 872 643 872 q 426 843 493 872 q 310 764 360 814 q 233 646 261 714 q 204 501 204 578 m 553 1143 q 515 1172 531 1164 q 481 1179 500 1179 q 436 1167 461 1179 q 407 1115 411 1154 l 339 1119 q 353 1172 340 1149 q 384 1213 365 1196 q 425 1238 403 1229 q 469 1247 447 1247 q 529 1235 503 1247 q 578 1200 556 1222 q 616 1172 600 1179 q 651 1165 632 1165 q 673 1168 661 1165 q 695 1178 685 1171 q 714 1197 706 1185 q 725 1229 722 1210 l 792 1225 q 778 1173 790 1196 q 747 1133 765 1150 q 706 1108 728 1117 q 663 1099 683 1099 q 603 1110 631 1099 q 553 1143 576 1122 z "},"â":{"ha":747,"x_min":43,"x_max":664,"o":"m 43 285 q 67 405 43 349 q 133 503 92 461 q 230 571 175 546 q 347 596 285 596 q 424 585 389 596 q 483 560 458 575 q 524 528 508 544 q 544 499 539 511 l 550 581 l 664 581 l 664 0 l 544 0 l 544 74 q 522 47 538 63 q 483 19 507 32 q 425 -4 458 6 q 349 -14 392 -14 q 226 10 282 -14 q 129 76 169 35 q 66 171 89 117 q 43 285 43 225 m 163 292 q 177 217 163 251 q 217 157 192 182 q 276 117 242 132 q 353 103 311 103 q 430 117 394 103 q 491 158 465 132 q 531 217 517 183 q 544 292 544 251 q 531 366 544 332 q 491 425 517 400 q 430 465 465 450 q 353 479 394 479 q 276 465 311 479 q 217 425 242 450 q 177 366 192 400 q 163 292 163 332 m 358 928 q 442 801 400 864 q 528 674 485 738 l 439 674 q 422 697 433 682 q 399 727 411 711 q 375 758 386 743 q 358 782 364 774 q 342 758 353 774 q 318 727 331 743 q 295 697 306 711 q 279 674 285 682 l 189 674 q 274 801 232 738 q 358 928 317 864 z "},"ê":{"ha":643,"x_min":43,"x_max":624,"o":"m 575 68 q 474 8 533 31 q 351 -14 414 -14 q 231 10 288 -14 q 133 76 175 35 q 67 172 92 117 q 43 290 43 228 q 67 408 43 353 q 133 506 92 464 q 230 572 175 547 q 347 596 285 596 q 519 537 446 596 q 624 382 592 478 q 525 344 581 367 q 410 298 469 322 q 290 250 350 274 q 179 207 231 226 q 248 131 203 160 q 349 103 293 103 q 424 117 386 103 q 486 154 463 131 l 575 68 m 475 410 q 422 462 458 444 q 349 479 386 479 q 274 464 308 479 q 215 423 240 449 q 176 364 190 397 q 161 296 161 331 q 162 286 161 289 q 163 282 163 283 q 241 313 199 296 q 325 348 283 331 q 406 381 367 365 q 475 410 444 397 m 313 929 q 397 802 354 865 q 482 675 439 739 l 393 675 q 376 698 388 683 q 353 728 365 713 q 329 760 340 744 q 313 783 318 775 q 296 760 307 775 q 272 728 285 744 q 249 698 260 713 q 233 675 239 683 l 143 675 q 228 802 186 739 q 313 929 271 865 z "},"î":{"ha":285,"x_min":-25,"x_max":314,"o":"m 201 0 l 83 0 l 83 581 l 201 581 l 201 0 m 144 929 q 228 802 186 865 q 314 675 271 739 l 225 675 q 208 698 219 683 q 185 728 197 713 q 161 760 172 744 q 144 783 150 775 q 128 760 139 775 q 104 728 117 744 q 81 698 92 713 q 65 675 71 683 l -25 675 q 60 802 18 739 q 144 929 103 865 z "},"ô":{"ha":701,"x_min":43,"x_max":658,"o":"m 43 292 q 67 410 43 354 q 133 506 92 465 q 231 572 175 547 q 353 596 288 596 q 474 572 418 596 q 572 506 531 547 q 635 410 613 465 q 658 292 658 354 q 635 174 658 229 q 572 76 613 118 q 474 10 531 35 q 351 -14 418 -14 q 231 8 288 -14 q 133 71 175 31 q 67 167 92 111 q 43 292 43 224 m 161 290 q 176 217 161 251 q 216 158 190 183 q 276 117 242 132 q 349 103 310 103 q 422 117 388 103 q 483 158 457 132 q 524 217 508 183 q 539 290 539 251 q 524 364 539 329 q 483 424 508 399 q 422 465 457 450 q 349 479 388 479 q 276 465 310 479 q 216 424 242 450 q 176 364 190 399 q 161 290 161 329 m 351 929 q 435 802 393 865 q 521 675 478 739 l 432 675 q 415 698 426 683 q 392 728 404 713 q 368 760 379 744 q 351 783 357 775 q 335 760 346 775 q 311 728 324 744 q 288 698 299 713 q 272 675 278 683 l 182 675 q 267 802 225 739 q 351 929 310 865 z "},"û":{"ha":706,"x_min":78,"x_max":624,"o":"m 624 -12 l 524 -12 l 510 149 q 420 32 478 78 q 274 -14 363 -14 q 133 34 185 -14 q 78 160 81 82 l 78 581 l 196 581 l 196 213 q 227 139 199 169 q 315 104 256 108 q 392 119 357 104 q 451 158 426 133 q 490 218 476 183 q 504 294 504 253 l 504 581 l 624 581 l 624 -12 m 331 929 q 415 802 372 865 q 500 675 457 739 l 411 675 q 394 698 406 683 q 371 728 383 713 q 347 760 358 744 q 331 783 336 775 q 314 760 325 775 q 290 728 303 744 q 267 698 278 713 q 251 675 257 683 l 161 675 q 247 802 204 739 q 331 929 289 865 z "},"ã":{"ha":747,"x_min":43,"x_max":664,"o":"m 43 285 q 67 405 43 349 q 133 503 92 461 q 230 571 175 546 q 347 596 285 596 q 424 585 389 596 q 483 560 458 575 q 524 528 508 544 q 544 499 539 511 l 550 581 l 664 581 l 664 0 l 544 0 l 544 74 q 522 47 538 63 q 483 19 507 32 q 425 -4 458 6 q 349 -14 392 -14 q 226 10 282 -14 q 129 76 169 35 q 66 171 89 117 q 43 285 43 225 m 163 292 q 177 217 163 251 q 217 157 192 182 q 276 117 242 132 q 353 103 311 103 q 430 117 394 103 q 491 158 465 132 q 531 217 517 183 q 544 292 544 251 q 531 366 544 332 q 491 425 517 400 q 430 465 465 450 q 353 479 394 479 q 276 465 311 479 q 217 425 242 450 q 177 366 192 400 q 163 292 163 332 m 346 675 q 308 703 324 696 q 274 711 293 711 q 229 699 254 711 q 200 647 204 686 l 132 651 q 146 704 133 681 q 177 744 158 728 q 218 770 196 761 q 263 779 240 779 q 322 767 296 779 q 371 732 349 754 q 409 704 393 711 q 444 697 425 697 q 466 700 454 697 q 488 710 478 703 q 507 729 499 717 q 518 761 515 742 l 585 757 q 571 705 583 728 q 540 665 558 682 q 499 640 521 649 q 456 631 476 631 q 397 642 424 631 q 346 675 369 654 z "},"`":{"ha":282,"x_min":-76,"x_max":178,"o":"m 51 861 q 115 768 83 815 q 178 675 146 721 l 89 675 q 6 768 47 721 q -76 861 -36 815 l 51 861 z "},"^":{"ha":508,"x_min":85,"x_max":424,"o":"m 254 929 q 338 802 296 865 q 424 675 381 739 l 335 675 q 318 698 329 683 q 294 728 307 713 q 271 760 282 744 q 254 783 260 775 q 238 760 249 775 q 214 728 226 744 q 191 698 201 713 q 175 675 181 683 l 85 675 q 170 802 128 739 q 254 929 213 865 z "},"õ":{"ha":701,"x_min":43,"x_max":658,"o":"m 43 292 q 67 410 43 354 q 133 506 92 465 q 231 572 175 547 q 353 596 288 596 q 474 572 418 596 q 572 506 531 547 q 635 410 613 465 q 658 292 658 354 q 635 174 658 229 q 572 76 613 118 q 474 10 531 35 q 351 -14 418 -14 q 231 8 288 -14 q 133 71 175 31 q 67 167 92 111 q 43 292 43 224 m 161 290 q 176 217 161 251 q 216 158 190 183 q 276 117 242 132 q 349 103 310 103 q 422 117 388 103 q 483 158 457 132 q 524 217 508 183 q 539 290 539 251 q 524 364 539 329 q 483 424 508 399 q 422 465 457 450 q 349 479 388 479 q 276 465 310 479 q 216 424 242 450 q 176 364 190 399 q 161 290 161 329 m 351 675 q 314 703 329 696 q 279 711 299 711 q 235 699 260 711 q 206 647 210 686 l 138 651 q 151 704 139 681 q 183 744 164 728 q 224 770 201 761 q 268 779 246 779 q 328 767 301 779 q 376 732 354 754 q 415 704 399 711 q 450 697 431 697 q 472 700 460 697 q 494 710 483 703 q 513 729 504 717 q 524 761 521 742 l 590 757 q 576 705 589 728 q 545 665 564 682 q 504 640 526 649 q 461 631 482 631 q 402 642 429 631 q 351 675 375 654 z "},"'":{"ha":303,"x_min":89,"x_max":217,"o":"m 89 664 l 89 1014 l 217 1014 l 211 664 l 89 664 z "},"_":{"ha":717,"x_min":76,"x_max":640,"o":"m 640 0 l 76 0 l 76 124 l 640 124 l 640 0 z "},"[":{"ha":436,"x_min":119,"x_max":394,"o":"m 119 -210 l 119 1050 l 394 1050 l 394 926 l 247 926 l 247 -86 l 394 -86 l 394 -210 l 119 -210 z "},"]":{"ha":436,"x_min":42,"x_max":317,"o":"m 317 1050 l 317 -210 l 42 -210 l 42 -86 l 190 -86 l 190 926 l 42 926 l 42 1050 l 317 1050 z "},"°":{"ha":413,"x_min":61,"x_max":351,"o":"m 208 722 q 256 741 236 722 q 275 788 275 760 q 256 835 275 815 q 208 854 236 854 q 161 835 181 854 q 142 788 142 815 q 161 741 142 760 q 208 722 181 722 m 61 789 q 73 846 61 819 q 104 892 85 872 q 151 922 124 911 q 208 933 178 933 q 264 922 238 933 q 310 892 290 911 q 340 846 329 872 q 351 789 351 819 q 340 732 351 758 q 310 686 329 706 q 264 656 290 667 q 208 644 238 644 q 151 656 178 644 q 104 686 124 667 q 73 732 85 706 q 61 789 61 758 z "},"ç":{"ha":578,"x_min":43,"x_max":549,"o":"m 472 143 q 509 98 492 119 q 544 53 526 76 q 459 5 507 22 q 357 -14 411 -12 q 363 -44 357 -33 q 378 -62 369 -54 q 398 -74 388 -69 q 417 -86 408 -79 q 458 -137 446 -108 q 469 -203 469 -165 q 460 -259 469 -232 q 431 -308 450 -286 q 384 -344 413 -331 q 318 -357 356 -357 q 228 -330 269 -357 q 168 -247 188 -303 q 203 -230 186 -239 q 238 -211 221 -221 q 263 -248 244 -233 q 307 -262 281 -262 q 358 -240 340 -262 q 375 -186 375 -218 q 360 -144 375 -158 q 327 -116 344 -129 q 294 -84 310 -103 q 279 -31 279 -65 l 279 -6 q 185 34 228 7 q 110 101 142 61 q 61 189 79 140 q 43 292 43 238 q 67 410 43 354 q 133 506 92 465 q 231 572 175 547 q 351 596 288 596 q 459 578 410 596 q 549 529 508 560 l 472 439 q 418 469 449 458 q 351 479 388 479 q 275 465 310 479 q 215 425 240 450 q 175 366 189 400 q 161 292 161 332 q 175 217 161 251 q 215 158 189 183 q 275 117 240 132 q 351 103 310 103 q 418 113 388 103 q 472 143 449 124 z "},"Ç":{"ha":886,"x_min":54,"x_max":871,"o":"m 871 72 q 764 22 839 49 q 586 -10 689 -6 q 592 -42 586 -31 q 608 -62 599 -54 q 627 -74 617 -69 q 646 -86 638 -79 q 687 -137 675 -108 q 699 -203 699 -165 q 689 -259 699 -232 q 660 -308 679 -286 q 613 -344 642 -331 q 547 -357 585 -357 q 458 -330 499 -357 q 397 -247 417 -303 q 433 -230 415 -239 q 467 -211 450 -221 q 492 -248 474 -233 q 536 -262 510 -262 q 587 -240 569 -262 q 604 -186 604 -218 q 589 -144 604 -158 q 556 -116 574 -129 q 524 -84 539 -103 q 508 -31 508 -65 l 508 -8 q 317 44 401 0 q 175 156 233 88 q 85 311 117 224 q 54 496 54 399 q 95 706 54 610 q 207 871 136 801 q 373 979 278 940 q 575 1018 468 1018 q 657 1013 615 1018 q 735 997 699 1007 q 801 974 772 988 q 844 947 829 961 q 827 919 833 931 q 814 897 821 908 q 799 869 807 885 q 776 829 790 854 q 734 850 758 842 q 683 864 710 858 q 630 872 657 869 q 581 875 603 875 q 431 845 500 875 q 313 765 363 815 q 234 647 263 714 q 206 508 206 581 q 233 372 206 438 q 308 256 260 307 q 423 174 356 204 q 571 143 490 143 q 654 151 614 143 q 727 171 694 160 q 781 193 760 182 q 807 210 803 204 l 871 72 z "},"–":{"ha":581,"x_min":78,"x_max":503,"o":"m 78 235 l 78 358 l 503 358 l 503 235 l 78 235 z "},"—":{"ha":863,"x_min":78,"x_max":785,"o":"m 78 235 l 78 358 l 785 358 l 785 235 l 78 235 z "},"¸":{"ha":636,"x_min":146,"x_max":447,"o":"m 257 0 l 335 0 l 335 -10 q 341 -42 335 -31 q 356 -62 347 -54 q 376 -74 365 -69 q 394 -86 386 -79 q 435 -137 424 -108 q 447 -203 447 -165 q 438 -259 447 -232 q 409 -308 428 -286 q 362 -344 390 -331 q 296 -357 333 -357 q 206 -330 247 -357 q 146 -247 165 -303 q 181 -230 164 -239 q 215 -211 199 -221 q 240 -248 222 -233 q 285 -262 258 -262 q 335 -240 318 -262 q 353 -186 353 -218 q 338 -142 353 -158 q 305 -114 322 -126 q 272 -87 288 -101 q 257 -50 257 -74 l 257 0 z "},"´":{"ha":394,"x_min":140,"x_max":396,"o":"m 140 675 q 204 768 172 721 q 268 861 236 815 l 396 861 l 231 675 l 140 675 z "},"¨":{"ha":522,"x_min":64,"x_max":482,"o":"m 328 735 q 352 792 328 769 q 406 814 376 814 q 458 792 433 814 q 482 735 482 769 q 458 678 482 700 q 406 657 433 657 q 352 678 376 657 q 328 735 328 700 m 64 735 q 88 792 64 769 q 143 814 113 814 q 195 792 171 814 q 219 735 219 769 q 195 678 219 700 q 143 657 171 657 q 88 678 113 657 q 64 735 64 700 z "},"Ð":{"ha":997,"x_min":35,"x_max":942,"o":"m 35 543 l 133 543 l 133 1007 l 386 1007 q 644 961 539 1007 q 816 841 750 915 q 912 674 882 767 q 942 490 942 582 q 901 287 942 378 q 792 132 861 196 q 631 34 722 68 q 436 0 539 0 l 133 0 l 133 442 l 35 442 l 35 543 m 414 144 q 563 168 494 144 q 683 237 632 192 q 762 348 733 282 q 790 500 790 414 q 758 660 790 592 q 675 773 726 728 q 559 840 624 818 q 428 861 494 861 l 285 861 l 285 543 l 451 543 l 451 442 l 285 442 l 285 144 l 414 144 z "},"þ":{"ha":750,"x_min":83,"x_max":704,"o":"m 704 289 q 682 168 704 224 q 619 72 660 113 q 523 9 579 32 q 400 -14 467 -14 q 334 -6 365 -14 q 276 15 303 1 q 231 44 250 28 q 201 76 211 60 q 202 62 201 69 q 203 47 203 54 l 203 -279 l 83 -279 l 83 1079 l 203 1079 l 203 496 q 233 530 214 513 q 277 562 251 547 q 335 586 303 576 q 406 596 367 596 q 527 574 472 596 q 622 513 582 553 q 683 417 661 474 q 704 289 704 360 m 575 292 q 563 366 575 332 q 526 425 550 400 q 469 465 503 450 q 394 479 436 479 q 317 465 353 479 q 257 425 282 450 q 217 366 232 400 q 203 292 203 332 q 217 217 203 251 q 257 157 232 182 q 317 117 282 132 q 394 103 353 103 q 469 117 436 103 q 526 158 503 132 q 563 217 550 183 q 575 292 575 251 z "},"ð":{"ha":707,"x_min":43,"x_max":658,"o":"m 43 292 q 67 410 43 354 q 133 506 92 465 q 231 572 175 547 q 353 596 288 596 q 478 569 418 596 q 419 704 457 633 q 326 847 382 775 q 285 802 307 824 q 244 758 264 781 q 210 790 226 775 q 175 821 193 804 l 269 922 q 200 996 235 961 q 128 1063 165 1031 l 199 1128 q 339 999 274 1069 q 378 1042 358 1021 q 418 1086 399 1063 q 453 1056 436 1071 q 488 1025 469 1040 l 399 926 q 497 783 450 861 q 579 624 543 706 q 637 458 615 542 q 658 299 658 375 l 658 292 q 635 174 658 229 q 572 76 613 118 q 474 10 531 35 q 351 -14 418 -14 q 231 8 288 -14 q 133 71 175 31 q 67 167 92 111 q 43 292 43 224 m 161 290 q 176 217 161 251 q 216 158 190 183 q 276 117 242 132 q 349 103 310 103 q 422 117 388 103 q 483 158 457 132 q 524 217 508 183 q 539 290 539 251 q 524 364 539 329 q 483 424 508 399 q 422 465 457 450 q 349 479 388 479 q 276 465 310 479 q 216 424 242 450 q 176 364 190 399 q 161 290 161 329 z "},"Þ":{"ha":790,"x_min":124,"x_max":758,"o":"m 124 0 l 124 986 l 276 986 l 276 822 l 399 822 q 544 801 478 822 q 658 740 610 781 q 732 640 706 699 q 758 504 758 581 q 740 385 758 444 q 682 280 722 326 q 576 204 642 233 q 418 175 511 175 l 276 175 l 276 0 l 124 0 m 276 318 l 414 318 q 507 337 469 318 q 566 384 544 356 q 597 444 588 413 q 606 501 606 476 q 597 559 606 528 q 565 617 588 590 q 506 661 543 643 q 415 679 469 679 l 276 679 l 276 318 z "},"Â":{"ha":899,"x_min":1,"x_max":897,"o":"m 897 0 q 867 70 889 19 q 815 193 846 121 q 748 351 785 265 q 673 526 711 438 q 598 702 635 615 q 531 860 561 789 q 480 983 501 932 q 450 1054 458 1035 l 1 0 l 151 0 l 271 289 l 626 289 q 665 195 646 240 q 699 112 683 150 q 728 44 715 74 q 747 0 740 15 l 897 0 m 435 686 q 442 706 436 689 q 450 736 447 722 q 458 706 453 722 q 464 686 463 689 q 481 644 469 671 q 506 583 492 618 q 538 505 521 547 q 575 417 556 463 l 324 417 l 435 686 m 468 1321 q 552 1194 510 1257 q 638 1067 594 1131 l 549 1067 q 532 1090 543 1075 q 508 1120 521 1104 q 485 1151 496 1136 q 468 1175 474 1167 q 451 1151 463 1167 q 428 1120 440 1136 q 405 1090 415 1104 q 389 1067 394 1075 l 299 1067 q 384 1194 342 1131 q 468 1321 426 1257 z "},"Ê":{"ha":857,"x_min":124,"x_max":804,"o":"m 124 0 l 124 1007 l 785 1007 l 785 869 l 276 869 l 276 575 l 729 575 l 729 435 l 276 435 l 276 140 l 804 140 l 804 0 l 124 0 m 471 1321 q 555 1194 513 1257 q 640 1067 597 1131 l 551 1067 q 535 1090 546 1075 q 511 1120 524 1104 q 488 1151 499 1136 q 471 1175 476 1167 q 454 1151 465 1167 q 431 1120 443 1136 q 408 1090 418 1104 q 392 1067 397 1075 l 301 1067 q 387 1194 344 1131 q 471 1321 429 1257 z "},"Î":{"ha":399,"x_min":32,"x_max":371,"o":"m 124 1007 l 275 1007 l 275 0 l 124 0 l 124 1007 m 201 1321 q 285 1194 243 1257 q 371 1067 328 1131 l 282 1067 q 265 1090 276 1075 q 242 1120 254 1104 q 218 1151 229 1136 q 201 1175 207 1167 q 185 1151 196 1167 q 161 1120 174 1136 q 138 1090 149 1104 q 122 1067 128 1075 l 32 1067 q 117 1194 75 1131 q 201 1321 160 1257 z "},"Ô":{"ha":1135,"x_min":53,"x_max":1082,"o":"m 53 503 q 93 701 53 607 q 203 865 133 794 q 367 977 274 936 q 567 1018 460 1018 q 766 977 672 1018 q 930 865 860 936 q 1041 701 1000 794 q 1082 503 1082 607 q 1041 303 1082 396 q 930 140 1000 210 q 766 29 860 69 q 567 -11 672 -11 q 367 29 460 -11 q 203 140 274 69 q 93 303 133 210 q 53 503 53 396 m 204 501 q 233 358 204 425 q 311 240 261 290 q 428 161 361 190 q 569 132 494 132 q 710 161 644 132 q 826 240 776 190 q 903 358 875 290 q 932 503 932 425 q 903 647 932 579 q 825 764 875 714 q 709 843 775 814 q 568 872 643 872 q 426 843 493 872 q 310 764 360 814 q 233 646 261 714 q 204 501 204 578 m 575 1321 q 659 1194 617 1257 q 744 1067 701 1131 l 656 1067 q 639 1090 650 1075 q 615 1120 628 1104 q 592 1151 603 1136 q 575 1175 581 1167 q 558 1151 569 1167 q 535 1120 547 1136 q 512 1090 522 1104 q 496 1067 501 1075 l 406 1067 q 491 1194 449 1131 q 575 1321 533 1257 z "},"Û":{"ha":993,"x_min":113,"x_max":881,"o":"m 496 -11 q 346 15 415 -11 q 224 90 276 42 q 142 205 172 138 q 113 356 113 272 l 113 1007 l 265 1007 l 265 360 q 283 270 265 311 q 331 198 300 229 q 404 149 363 167 q 496 132 446 132 q 587 149 544 132 q 660 198 629 167 q 710 270 692 229 q 728 360 728 311 l 728 1007 l 881 1007 l 881 356 q 851 205 881 272 q 769 90 821 138 q 647 15 717 42 q 496 -11 576 -11 m 504 1351 q 588 1224 546 1288 q 674 1097 631 1161 l 585 1097 q 568 1120 579 1106 q 544 1151 557 1135 q 521 1182 532 1167 q 504 1206 510 1197 q 488 1182 499 1197 q 464 1151 476 1167 q 441 1120 451 1135 q 425 1097 431 1106 l 335 1097 q 420 1224 378 1161 q 504 1351 463 1288 z "},"±":{"ha":690,"x_min":92,"x_max":599,"o":"m 281 297 l 281 488 l 92 488 l 92 611 l 281 611 l 281 804 l 410 804 l 410 611 l 599 611 l 599 488 l 410 488 l 410 297 l 281 297 m 599 115 l 92 115 l 92 240 l 599 240 l 599 115 z "},"$":{"ha":808,"x_min":49,"x_max":751,"o":"m 715 951 l 661 828 q 556 859 608 847 q 454 874 503 871 l 454 589 q 559 546 506 569 q 655 488 613 522 q 724 406 697 454 q 751 286 751 357 q 672 90 751 165 q 454 -4 593 15 l 454 -94 l 367 -94 l 367 -11 l 364 -11 q 255 -2 304 -11 q 166 20 206 7 q 97 48 126 33 q 49 75 68 63 l 115 207 q 239 156 171 175 q 363 136 307 136 l 367 136 l 367 474 q 269 514 317 492 q 183 566 221 536 q 122 637 146 596 q 99 736 99 678 q 115 827 99 782 q 166 910 132 872 q 250 974 200 947 q 367 1008 300 1000 l 367 1100 l 454 1100 l 454 1011 q 544 1000 500 1008 q 624 982 589 992 q 684 963 660 972 q 715 951 708 954 m 601 288 q 590 338 601 315 q 558 378 578 360 q 512 412 539 397 q 454 440 485 426 l 454 149 q 507 167 481 156 q 554 194 533 178 q 588 234 575 211 q 601 288 601 257 m 249 747 q 282 675 249 703 q 367 624 315 647 l 367 865 q 280 820 311 851 q 249 747 249 789 z "},"¢":{"ha":601,"x_min":47,"x_max":553,"o":"m 476 143 q 513 98 496 119 q 549 53 531 76 q 467 7 513 25 q 369 -14 422 -11 l 369 -94 l 282 -94 l 282 -4 q 189 35 232 8 q 115 102 146 63 q 65 190 83 142 q 47 292 47 238 q 65 393 47 344 q 115 481 83 442 q 189 547 146 519 q 282 586 232 574 l 282 675 l 369 675 l 369 596 q 469 575 422 593 q 553 529 515 557 l 476 439 q 428 466 456 456 q 369 479 401 476 l 369 103 q 476 143 433 107 m 165 292 q 197 183 165 231 q 282 115 229 136 l 282 465 q 197 399 229 446 q 165 292 165 353 z "},"•":{"ha":561,"x_min":93,"x_max":468,"o":"m 93 422 q 108 496 93 461 q 147 557 122 531 q 206 598 172 583 q 279 613 240 613 q 353 598 318 613 q 413 557 388 583 q 453 496 439 531 q 468 422 468 461 q 453 348 468 382 q 413 289 439 314 q 353 250 388 264 q 279 236 318 236 q 206 250 240 236 q 147 289 172 264 q 108 348 122 314 q 93 422 93 382 z "},"“":{"ha":396,"x_min":57,"x_max":339,"o":"m 339 831 l 276 796 q 219 890 236 836 q 214 1001 203 943 l 292 992 q 296 901 282 943 q 339 831 310 858 m 193 831 q 161 813 176 822 q 131 796 146 804 q 74 890 90 836 q 68 1001 57 943 l 146 992 q 150 901 136 943 q 193 831 164 858 z "},"”":{"ha":396,"x_min":57,"x_max":339,"o":"m 265 796 l 203 831 q 247 901 233 858 q 250 992 260 943 l 328 1001 q 322 890 339 943 q 265 796 306 836 m 119 796 q 88 813 103 804 q 57 831 72 822 q 99 901 86 858 q 103 992 113 943 l 181 1001 q 175 890 192 943 q 119 796 158 836 z "},"‘":{"ha":250,"x_min":57,"x_max":193,"o":"m 193 831 l 131 796 q 74 890 90 836 q 68 1001 57 943 l 146 992 q 150 901 136 943 q 193 831 164 858 z "},"„":{"ha":415,"x_min":49,"x_max":331,"o":"m 111 -76 q 81 -58 96 -67 q 49 -42 65 -50 q 92 29 79 -12 q 96 119 106 71 l 174 129 q 168 17 185 71 q 111 -76 151 -36 m 258 -76 q 227 -58 243 -67 q 196 -42 211 -50 q 238 29 225 -12 q 242 119 251 71 l 319 129 q 314 17 331 71 q 258 -76 297 -36 z "},"‚":{"ha":271,"x_min":49,"x_max":185,"o":"m 111 -76 q 81 -58 96 -67 q 49 -42 65 -50 q 92 29 79 -12 q 96 119 106 71 l 174 129 q 168 17 185 71 q 111 -76 151 -36 z "},"›":{"ha":388,"x_min":93,"x_max":333,"o":"m 93 215 q 114 240 100 222 q 142 276 128 257 q 171 312 157 294 q 192 336 185 329 q 171 361 185 344 q 142 397 157 378 q 114 433 128 415 q 93 457 100 450 l 93 603 q 117 576 99 597 q 160 528 136 556 q 213 469 185 501 q 266 410 242 438 q 309 363 290 383 q 333 336 328 342 l 93 69 l 93 215 z "},"«":{"ha":631,"x_min":56,"x_max":538,"o":"m 538 69 l 296 336 q 320 363 301 342 q 364 410 339 383 q 417 469 389 438 q 470 528 446 501 q 513 576 494 556 q 538 603 532 597 l 538 458 q 517 433 531 450 q 488 397 503 417 q 458 361 472 378 q 438 336 444 344 q 458 312 444 329 q 488 276 472 294 q 517 240 503 257 q 538 215 531 222 l 538 69 m 296 69 l 56 336 q 80 363 61 342 q 123 410 99 383 q 176 469 147 438 q 228 528 204 501 q 272 576 253 556 q 296 603 290 597 l 296 457 q 275 433 289 450 q 247 397 261 415 q 218 361 232 378 q 197 336 204 344 q 218 312 204 329 q 247 276 232 294 q 275 240 261 257 q 296 215 289 222 l 296 69 z "},"»":{"ha":629,"x_min":93,"x_max":575,"o":"m 93 215 q 114 240 100 222 q 143 276 128 257 q 172 312 158 294 q 193 336 186 329 q 172 361 186 344 q 143 397 158 378 q 114 433 128 417 q 93 458 100 450 l 93 603 q 117 576 99 597 q 161 528 136 556 q 214 469 186 501 q 267 410 242 438 q 310 363 292 383 q 335 336 328 342 l 93 69 l 93 215 m 335 215 q 356 240 342 222 q 384 276 369 257 q 413 312 399 294 q 433 336 426 329 q 413 361 426 344 q 384 397 399 378 q 356 433 369 415 q 335 457 342 450 l 335 603 q 359 576 340 597 q 402 528 378 556 q 455 469 426 501 q 508 410 483 438 q 551 363 532 383 q 575 336 569 342 l 335 69 l 335 215 z "},"¥":{"ha":971,"x_min":38,"x_max":935,"o":"m 564 332 l 564 224 l 713 224 l 713 139 l 564 139 l 564 0 l 411 0 l 411 139 l 250 139 l 250 224 l 411 224 l 411 332 q 403 345 408 336 q 392 365 399 354 l 250 365 l 250 450 l 344 450 q 289 551 319 496 q 226 665 258 607 q 163 778 194 722 q 106 882 132 835 q 63 963 81 929 q 38 1007 44 996 l 210 1007 q 254 927 222 986 q 325 794 286 868 q 404 644 364 719 q 472 514 444 568 l 488 468 q 497 491 493 479 q 506 514 501 503 q 574 644 535 568 q 651 794 613 719 q 720 927 689 868 q 764 1007 751 986 l 935 1007 l 628 450 l 713 450 l 713 365 l 582 365 l 564 332 z "},"©":{"ha":875,"x_min":75,"x_max":800,"o":"m 438 199 q 562 223 504 199 q 663 290 619 247 q 730 390 706 332 q 754 517 754 449 q 730 644 754 586 q 663 746 706 703 q 562 813 619 789 q 438 836 504 836 q 313 813 371 836 q 213 746 256 789 q 145 644 169 703 q 121 517 121 586 q 145 390 121 449 q 213 290 169 332 q 313 223 256 247 q 438 199 371 199 m 438 157 q 297 184 363 157 q 181 260 231 211 q 103 374 132 308 q 75 517 75 439 q 103 661 75 594 q 181 776 132 728 q 297 851 231 824 q 438 878 363 878 q 578 851 513 878 q 694 776 644 824 q 772 661 743 728 q 800 517 800 594 q 772 374 800 439 q 694 260 743 308 q 578 184 644 211 q 438 157 513 157 m 583 326 q 531 301 568 315 q 443 288 494 288 q 347 306 389 288 q 275 356 304 325 q 230 429 246 388 q 214 518 214 471 q 233 613 214 569 q 283 687 251 656 q 358 736 315 718 q 450 754 401 754 q 522 744 486 754 q 572 722 557 735 q 564 709 567 714 q 558 699 561 704 q 551 686 554 693 q 540 668 547 679 q 499 684 525 679 q 453 689 472 689 q 385 676 417 689 q 331 640 354 663 q 296 587 308 617 q 283 524 283 557 q 295 462 283 492 q 329 409 307 432 q 381 372 351 386 q 449 358 411 358 q 519 370 488 358 q 554 388 550 382 l 583 326 z "},"®":{"ha":875,"x_min":75,"x_max":800,"o":"m 438 157 q 297 184 363 157 q 181 260 231 211 q 103 374 132 308 q 75 517 75 439 q 103 661 75 594 q 181 776 132 728 q 297 851 231 824 q 438 878 363 878 q 578 851 513 878 q 694 776 644 824 q 772 661 743 728 q 800 517 800 594 q 772 374 800 439 q 694 260 743 308 q 578 184 644 211 q 438 157 513 157 m 438 199 q 562 223 504 199 q 663 290 619 247 q 730 390 706 332 q 754 517 754 449 q 730 644 754 586 q 663 746 706 703 q 562 813 619 789 q 438 836 504 836 q 313 813 371 836 q 213 746 256 789 q 145 644 169 703 q 121 517 121 586 q 145 390 121 449 q 213 290 169 332 q 313 223 256 247 q 438 199 371 199 m 290 292 l 290 768 l 421 768 q 543 729 496 768 q 590 618 590 690 q 574 541 590 578 q 518 482 557 504 q 576 390 546 440 q 638 292 606 340 l 551 292 q 497 378 525 332 q 443 461 468 425 l 429 461 l 363 461 l 363 292 l 290 292 m 363 529 l 428 529 q 472 538 454 529 q 499 560 489 547 q 514 589 510 574 q 518 617 518 604 q 514 644 518 629 q 499 672 510 658 q 472 693 489 685 q 428 701 454 701 l 363 701 l 363 529 z "},"÷":{"ha":640,"x_min":68,"x_max":575,"o":"m 575 290 l 68 290 l 68 413 l 575 413 l 575 290 m 247 560 q 272 616 247 593 q 325 639 296 639 q 377 616 353 639 q 401 560 401 593 q 377 502 401 524 q 325 481 353 481 q 272 502 296 481 q 247 560 247 524 m 247 149 q 272 205 247 182 q 325 228 296 228 q 377 205 353 228 q 401 149 401 182 q 377 92 401 113 q 325 71 353 71 q 272 92 296 71 q 247 149 247 113 z "},"½":{"ha":1164,"x_min":58,"x_max":1115,"o":"m 261 -26 l 653 1036 l 782 1036 q 585 505 682 769 q 389 -26 489 240 l 261 -26 m 885 86 l 1115 86 l 1115 -1 l 668 -1 q 787 118 729 60 q 889 231 844 176 q 960 336 933 285 q 988 435 988 388 q 976 494 988 469 q 946 536 964 519 q 908 560 928 553 q 869 568 888 568 q 810 556 833 568 q 773 524 786 543 q 754 485 760 506 q 749 451 749 465 q 759 393 749 418 q 788 349 769 368 l 735 293 q 702 323 717 304 q 678 364 688 342 q 663 409 668 386 q 658 451 658 432 q 672 528 658 492 q 713 594 686 565 q 779 639 740 622 q 869 656 818 656 q 955 639 917 656 q 1020 593 993 622 q 1063 526 1047 564 q 1078 447 1078 489 q 1062 353 1078 399 q 1019 262 1046 307 q 958 173 993 217 q 885 86 924 129 m 58 888 l 58 975 l 213 975 l 213 325 l 121 325 l 121 888 l 58 888 z "},"¼":{"ha":1114,"x_min":60,"x_max":1065,"o":"m 256 -26 l 647 1036 l 776 1036 q 580 505 676 769 q 383 -26 483 240 l 256 -26 m 558 176 q 761 433 654 301 q 964 690 868 565 l 964 268 l 1065 268 l 1065 176 l 964 176 l 964 0 l 868 0 l 868 176 l 558 176 m 60 886 l 60 975 l 214 975 l 214 325 l 122 325 l 122 886 l 60 886 m 868 432 l 742 268 l 868 268 l 868 432 z "},"ª":{"ha":597,"x_min":57,"x_max":506,"o":"m 57 631 q 74 717 57 676 q 122 788 92 758 q 192 836 151 818 q 276 854 232 854 q 332 847 307 854 q 375 828 357 839 q 404 806 393 818 q 419 785 415 793 q 421 815 419 800 q 422 843 422 829 l 506 843 l 506 425 l 419 425 l 419 478 q 403 459 415 469 q 374 439 392 449 q 333 422 357 429 q 278 415 308 415 q 189 433 229 415 q 119 480 149 450 q 74 549 90 510 q 57 631 57 588 m 143 635 q 182 538 143 576 q 281 499 221 499 q 381 538 342 499 q 419 635 419 578 q 381 732 419 693 q 281 771 342 771 q 182 732 221 771 q 143 635 143 693 z "},"£":{"ha":850,"x_min":54,"x_max":793,"o":"m 289 124 l 521 124 q 594 127 567 124 q 638 139 622 131 q 659 162 654 147 q 664 197 664 176 l 664 257 q 728 258 696 257 q 793 258 761 258 l 793 119 q 787 72 793 93 q 762 34 781 50 q 710 9 743 18 q 626 0 678 0 l 54 0 l 54 124 l 117 124 q 153 128 139 124 q 175 147 167 133 q 187 188 183 161 q 190 257 190 214 l 190 378 l 99 378 l 99 503 l 190 503 l 190 753 q 212 844 190 803 q 272 916 233 886 q 366 963 311 946 q 488 981 421 981 q 650 942 588 981 q 747 838 713 904 q 699 810 724 824 q 650 782 675 796 q 635 800 643 788 q 610 825 626 813 q 565 847 593 838 q 490 856 536 856 q 363 820 407 856 q 318 718 318 785 l 318 503 l 482 503 l 482 378 l 318 378 l 318 231 q 315 169 318 194 q 289 124 311 143 z "},"¹":{"ha":254,"x_min":64,"x_max":164,"o":"m 64 921 l 64 978 l 164 978 l 164 557 l 106 557 l 106 921 l 64 921 z "},"¾":{"ha":1375,"x_min":53,"x_max":1326,"o":"m 493 -26 l 885 1036 l 1014 1036 q 817 505 914 769 q 621 -26 721 240 l 493 -26 m 819 176 q 1022 433 915 301 q 1225 690 1129 565 l 1225 268 l 1326 268 l 1326 176 l 1225 176 l 1225 0 l 1129 0 l 1129 176 l 819 176 m 157 636 q 236 765 193 701 q 315 896 279 829 l 97 896 l 97 992 l 471 992 q 392 864 433 928 q 315 735 351 800 q 426 649 383 707 q 468 514 468 590 q 449 422 468 465 q 397 346 429 378 q 321 295 364 314 q 229 276 278 276 q 131 297 176 276 q 53 353 86 318 q 89 388 71 371 q 125 421 107 404 q 228 372 167 372 q 283 383 257 372 q 328 414 308 394 q 358 459 347 433 q 369 514 369 485 q 358 568 369 543 q 328 612 347 593 q 283 642 308 631 q 228 653 257 653 q 157 636 190 653 m 1129 432 l 1003 268 l 1129 268 l 1129 432 z "},"²":{"ha":469,"x_min":78,"x_max":396,"o":"m 235 582 l 396 582 l 396 521 l 85 521 q 167 604 128 564 q 238 683 207 644 q 288 756 269 721 q 307 825 307 792 q 299 866 307 849 q 278 894 290 883 q 252 911 267 906 q 225 917 238 917 q 183 908 200 917 q 158 886 167 899 q 144 860 149 874 q 140 836 140 846 q 148 796 140 813 q 167 765 156 779 q 149 745 158 754 q 131 726 140 736 q 92 776 106 742 q 78 836 78 810 q 88 890 78 864 q 116 935 97 915 q 162 966 135 954 q 225 978 189 978 q 285 966 258 978 q 331 935 311 954 q 360 889 350 915 q 371 833 371 863 q 330 704 371 765 q 235 582 289 643 z "},"¶":{"ha":785,"x_min":47,"x_max":633,"o":"m 403 0 l 276 0 l 276 596 q 186 614 228 596 q 113 663 144 632 q 65 735 82 693 q 47 825 47 776 q 65 915 47 874 q 113 988 82 957 q 186 1038 144 1019 q 276 1056 228 1056 l 633 1056 l 633 0 l 507 0 l 507 933 l 403 933 l 403 0 z "},"¬":{"ha":679,"x_min":89,"x_max":596,"o":"m 468 208 l 468 258 l 89 258 l 89 350 l 596 350 l 596 208 l 468 208 z "},"³":{"ha":394,"x_min":61,"x_max":328,"o":"m 126 751 q 178 833 150 792 q 228 917 206 875 l 89 917 l 89 978 l 328 978 q 278 897 304 938 q 228 814 251 856 q 299 759 272 796 q 326 674 326 722 q 314 615 326 642 q 281 567 301 588 q 232 534 260 546 q 174 522 204 522 q 110 535 139 522 q 61 572 82 549 l 107 615 q 172 583 132 583 q 236 610 210 583 q 263 674 263 636 q 236 736 263 710 q 172 763 210 763 q 126 751 149 763 z "},"¦":{"ha":368,"x_min":119,"x_max":249,"o":"m 249 -329 l 119 -329 l 119 164 l 249 164 l 249 -329 m 249 493 l 119 493 l 119 986 l 249 986 l 249 493 z "},"&":{"ha":908,"x_min":49,"x_max":885,"o":"m 885 0 l 743 0 q 718 29 732 14 q 691 62 707 43 q 656 104 675 81 q 540 19 611 51 q 378 -14 468 -14 q 245 8 306 -14 q 141 71 185 31 q 73 166 97 111 q 49 286 49 221 q 67 390 49 342 q 117 477 85 439 q 192 543 149 515 q 286 585 235 571 q 251 640 267 614 q 225 685 236 665 q 189 766 203 729 q 175 846 175 803 q 194 931 175 893 q 245 996 213 969 q 322 1037 278 1022 q 414 1053 365 1051 q 535 1038 481 1056 q 621 997 589 1019 q 610 983 621 997 q 588 951 600 968 q 566 920 576 935 q 556 904 556 906 q 518 924 540 915 q 467 936 496 933 q 408 936 438 940 q 356 919 379 932 q 317 885 332 907 q 303 831 303 863 q 317 764 303 793 q 336 728 331 735 l 639 325 l 744 596 l 871 596 l 721 215 l 885 0 m 361 479 q 289 463 324 478 q 227 424 254 449 q 184 365 200 399 q 168 293 168 331 q 187 208 168 243 q 236 149 206 172 q 306 114 267 125 q 386 103 346 103 q 443 110 414 103 q 499 128 472 117 q 547 157 525 140 q 583 193 569 174 q 472 334 531 260 q 361 479 414 408 z "},"ß":{"ha":782,"x_min":39,"x_max":738,"o":"m 310 11 q 335 67 322 39 q 361 125 349 96 q 428 111 396 111 q 499 126 465 111 q 557 165 532 140 q 597 224 582 190 q 611 294 611 257 q 596 365 611 332 q 556 424 581 399 q 497 463 531 449 q 426 475 464 476 l 424 475 l 424 600 q 499 626 469 600 q 529 697 529 653 q 498 772 529 742 q 404 801 467 801 q 288 744 322 801 q 254 586 254 686 l 254 0 l 128 0 l 128 465 l 39 465 l 39 589 l 128 589 l 128 596 q 148 733 128 672 q 205 837 168 794 q 292 902 242 879 q 400 925 342 925 q 509 907 461 925 q 590 858 557 889 q 639 788 622 828 q 656 704 656 747 q 635 612 656 656 q 572 549 615 568 q 628 520 599 542 q 681 465 657 499 q 722 387 706 431 q 738 292 738 343 q 713 174 738 229 q 645 78 688 119 q 547 12 603 36 q 426 -12 490 -12 q 367 -7 397 -12 q 310 11 336 -1 z "},"¤":{"ha":651,"x_min":110,"x_max":542,"o":"m 114 501 q 124 561 114 533 q 149 614 133 589 q 129 633 138 624 q 110 653 121 642 l 171 714 l 211 675 q 265 700 236 690 q 325 710 293 710 q 440 675 388 710 l 479 714 l 540 653 l 504 615 q 529 561 519 590 q 539 501 539 532 q 501 385 539 438 l 542 344 l 481 283 l 438 325 q 325 292 389 292 q 213 324 261 292 l 171 282 l 110 343 l 150 383 q 124 438 133 408 q 114 501 114 468 m 201 500 q 238 413 201 449 q 326 376 275 376 q 415 413 378 376 q 451 500 451 449 q 415 590 451 553 q 326 626 378 626 q 238 590 275 626 q 201 500 201 553 z "},"§":{"ha":533,"x_min":61,"x_max":474,"o":"m 201 208 q 137 313 160 275 q 103 368 114 350 q 92 390 93 386 q 90 393 90 394 q 67 465 72 426 q 67 540 61 503 q 89 610 72 576 q 135 668 106 643 q 177 694 154 683 q 228 711 200 704 q 202 756 214 733 q 175 801 190 778 q 139 883 147 849 q 137 942 131 917 q 162 984 143 967 q 206 1015 181 1001 q 258 1047 232 1032 q 310 1078 285 1063 q 342 1024 326 1050 q 375 971 358 997 q 347 956 361 964 q 321 940 333 949 q 283 898 288 921 q 313 819 279 875 l 314 819 l 440 610 q 467 539 461 576 q 467 465 474 501 q 441 397 460 429 q 393 339 422 364 q 351 312 374 324 q 300 293 328 300 q 327 248 314 271 q 354 201 340 225 q 392 119 383 154 q 394 60 400 85 q 370 17 389 35 q 326 -15 351 -1 q 275 -47 300 -32 q 224 -76 250 -61 l 160 31 l 213 63 q 238 83 229 72 q 247 109 247 93 q 235 149 246 125 q 201 208 224 172 m 179 514 q 182 479 176 496 q 199 450 188 463 q 227 429 211 438 q 263 421 243 421 q 323 445 297 421 q 350 506 349 469 q 327 565 351 540 q 267 593 303 590 q 207 572 235 592 q 179 514 179 551 z "},"·":{"ha":308,"x_min":76,"x_max":232,"o":"m 76 397 q 101 453 76 431 q 156 476 125 476 q 208 453 183 476 q 232 397 232 431 q 208 340 232 361 q 156 319 183 319 q 101 340 125 319 q 76 397 76 361 z "},"º":{"ha":557,"x_min":57,"x_max":500,"o":"m 57 635 q 74 720 57 681 q 122 790 92 760 q 192 837 151 819 q 279 854 233 854 q 367 837 326 854 q 437 790 407 819 q 483 720 467 760 q 500 635 500 681 q 483 549 500 589 q 437 480 467 510 q 367 433 407 450 q 279 415 326 415 q 193 431 233 415 q 122 476 153 447 q 74 546 92 506 q 57 635 57 586 m 142 635 q 181 538 142 578 q 276 499 219 499 q 329 509 304 499 q 373 538 354 519 q 403 582 392 557 q 414 635 414 607 q 403 688 414 663 q 373 731 392 713 q 329 760 354 750 q 276 771 304 771 q 181 731 219 771 q 142 635 142 692 z "},"¯":{"ha":563,"x_min":119,"x_max":444,"o":"m 119 671 l 119 751 l 444 751 l 444 671 l 119 671 z "},"µ":{"ha":774,"x_min":110,"x_max":656,"o":"m 656 -12 l 556 -12 l 542 149 q 452 32 510 78 q 306 -14 394 -14 q 228 -1 261 -14 l 228 -279 l 111 -279 l 111 139 q 110 160 110 146 l 110 581 l 228 581 l 228 213 q 259 139 231 169 q 347 104 288 108 q 424 119 389 104 q 483 158 458 133 q 522 218 508 183 q 536 294 536 253 l 536 581 l 656 581 l 656 -12 z "},"×":{"ha":618,"x_min":69,"x_max":549,"o":"m 438 0 l 307 128 l 182 1 q 74 110 125 56 l 200 238 l 69 367 l 179 479 l 311 347 l 440 476 q 492 421 467 449 q 544 367 518 393 l 421 240 l 549 110 l 438 0 z "},"O":{"ha":1135,"x_min":53,"x_max":1082,"o":"m 53 503 q 93 701 53 607 q 203 865 133 794 q 367 977 274 936 q 567 1018 460 1018 q 766 977 672 1018 q 930 865 860 936 q 1041 701 1000 794 q 1082 503 1082 607 q 1041 303 1082 396 q 930 140 1000 210 q 766 29 860 69 q 567 -11 672 -11 q 367 29 460 -11 q 203 140 274 69 q 93 303 133 210 q 53 503 53 396 m 204 501 q 233 358 204 425 q 311 240 261 290 q 428 161 361 190 q 569 132 494 132 q 710 161 644 132 q 826 240 776 190 q 903 358 875 290 q 932 503 932 425 q 903 647 932 579 q 825 764 875 714 q 709 843 775 814 q 568 872 643 872 q 426 843 493 872 q 310 764 360 814 q 233 646 261 714 q 204 501 204 578 z "},"g":{"ha":749,"x_min":44,"x_max":665,"o":"m 44 289 q 68 410 44 354 q 132 508 92 467 q 226 572 172 549 q 342 596 281 596 q 426 583 389 596 q 488 554 463 571 q 527 522 513 538 q 546 499 542 506 q 549 540 546 518 q 551 581 551 561 l 665 581 l 665 26 q 581 -199 665 -118 q 351 -279 496 -279 q 262 -269 301 -279 q 190 -242 222 -258 q 130 -203 157 -225 q 76 -157 103 -181 l 153 -76 q 241 -140 196 -117 q 349 -164 286 -164 q 493 -119 442 -164 q 546 4 544 -75 l 546 44 q 549 69 546 56 q 551 89 551 82 q 520 53 539 72 q 476 20 501 35 q 418 -4 451 6 q 343 -14 385 -14 q 224 10 278 -14 q 129 74 169 33 q 67 170 89 115 q 44 289 44 225 m 164 292 q 178 217 164 251 q 218 157 193 182 q 278 117 243 132 q 354 103 313 103 q 431 117 396 103 q 492 158 467 132 q 532 217 518 183 q 546 292 546 251 q 532 366 546 332 q 492 425 518 400 q 431 465 467 450 q 354 479 396 479 q 278 465 313 479 q 218 425 243 450 q 178 366 193 400 q 164 292 164 332 z "},"d":{"ha":749,"x_min":44,"x_max":665,"o":"m 44 290 q 67 415 44 358 q 131 511 90 471 q 226 574 171 551 q 344 596 281 596 q 422 585 388 596 q 480 560 456 575 q 521 528 504 546 q 546 496 538 510 l 546 1079 l 665 1079 l 665 0 l 546 0 l 546 43 q 547 62 546 51 q 549 79 549 72 q 516 47 535 63 q 472 17 497 31 q 415 -6 447 3 q 340 -14 382 -14 q 216 10 271 -14 q 123 76 161 35 q 65 172 85 117 q 44 290 44 228 m 164 292 q 178 217 164 251 q 218 157 193 182 q 278 117 243 132 q 354 103 313 103 q 431 117 396 103 q 492 158 467 132 q 532 217 518 183 q 546 292 546 251 q 532 366 546 332 q 492 425 518 400 q 431 465 467 450 q 354 479 396 479 q 278 465 313 479 q 218 425 243 450 q 178 366 193 400 q 164 292 164 332 z "},"a":{"ha":747,"x_min":43,"x_max":664,"o":"m 43 285 q 67 405 43 349 q 133 503 92 461 q 230 571 175 546 q 347 596 285 596 q 424 585 389 596 q 483 560 458 575 q 524 528 508 544 q 544 499 539 511 l 550 581 l 664 581 l 664 0 l 544 0 l 544 74 q 522 47 538 63 q 483 19 507 32 q 425 -4 458 6 q 349 -14 392 -14 q 226 10 282 -14 q 129 76 169 35 q 66 171 89 117 q 43 285 43 225 m 163 292 q 177 217 163 251 q 217 157 192 182 q 276 117 242 132 q 353 103 311 103 q 430 117 394 103 q 491 158 465 132 q 531 217 517 183 q 544 292 544 251 q 531 366 544 332 q 491 425 517 400 q 430 465 465 450 q 353 479 394 479 q 276 465 311 479 q 217 425 242 450 q 177 366 192 400 q 163 292 163 332 z "},"n":{"ha":707,"x_min":83,"x_max":629,"o":"m 83 581 l 188 581 q 192 502 190 538 q 197 432 194 467 q 288 551 229 507 q 433 596 347 596 q 574 547 521 596 q 629 422 626 499 l 629 0 l 510 0 l 510 368 q 479 444 507 413 q 392 478 451 475 q 315 463 350 478 q 256 424 281 449 q 216 364 231 399 q 201 288 201 329 l 201 0 l 83 0 l 83 581 z "},"˛":{"ha":738,"x_min":146,"x_max":447,"o":"m 336 -50 q 321 -87 336 -74 q 288 -114 306 -101 q 256 -142 271 -126 q 240 -186 240 -158 q 258 -240 240 -218 q 308 -262 275 -262 q 353 -248 336 -262 q 378 -211 371 -233 q 413 -230 394 -221 q 447 -247 431 -239 q 388 -330 428 -303 q 299 -357 347 -357 q 232 -344 261 -357 q 184 -308 203 -331 q 156 -259 165 -286 q 146 -203 146 -232 q 158 -137 146 -165 q 200 -86 171 -108 q 219 -74 208 -79 q 238 -62 229 -69 q 253 -42 247 -54 q 258 -10 258 -31 l 258 0 l 336 0 l 336 -50 z "},"ˇ":{"ha":618,"x_min":157,"x_max":496,"o":"m 326 675 q 242 802 285 739 q 157 929 200 865 l 247 929 q 263 906 253 921 q 286 876 274 892 q 310 844 299 860 q 326 821 321 829 q 343 844 332 829 q 367 876 354 860 q 390 906 379 892 q 407 929 401 921 l 496 929 q 410 802 453 865 q 326 675 368 739 z "},"˝":{"ha":717,"x_min":92,"x_max":654,"o":"m 92 675 q 156 768 124 721 q 219 861 188 815 l 347 861 l 182 675 l 92 675 m 399 675 q 463 768 431 721 q 526 861 494 815 l 654 861 l 488 675 l 399 675 z "},"˙":{"ha":339,"x_min":96,"x_max":247,"o":"m 96 803 q 120 858 96 836 q 172 881 144 881 q 224 858 200 881 q 247 803 247 836 q 224 748 247 769 q 172 726 200 726 q 120 748 144 726 q 96 803 96 769 z "},"˘":{"ha":1022,"x_min":139,"x_max":589,"o":"m 365 694 q 278 711 319 694 q 207 757 238 728 q 158 826 176 786 q 139 913 140 867 l 207 913 q 253 803 210 846 q 365 761 297 761 q 476 803 433 761 q 521 913 518 846 l 589 913 q 571 826 589 867 q 522 757 553 786 q 451 711 492 728 q 365 694 411 694 z "},"Ą":{"ha":896,"x_min":0,"x_max":935,"o":"m 824 0 l 824 -50 q 808 -87 824 -74 q 776 -114 793 -101 q 743 -142 758 -126 q 728 -186 728 -158 q 745 -240 728 -218 q 796 -262 763 -262 q 841 -248 824 -262 q 865 -211 858 -233 q 900 -230 882 -221 q 935 -247 918 -239 q 875 -330 915 -303 q 786 -357 835 -357 q 719 -344 749 -357 q 672 -308 690 -331 q 643 -259 653 -286 q 633 -203 633 -232 q 646 -137 633 -165 q 688 -86 658 -108 q 706 -74 696 -79 q 726 -62 717 -69 q 740 -42 735 -54 q 746 -10 746 -31 l 746 0 q 726 44 739 15 q 698 112 714 74 q 663 195 682 150 q 625 289 644 240 l 269 289 l 150 0 l 0 0 l 449 1054 q 478 983 457 1035 q 530 860 500 932 q 597 702 560 789 q 672 526 633 615 q 747 351 710 438 q 814 193 783 265 q 866 70 844 121 q 896 0 888 19 l 824 0 m 322 417 l 574 417 q 537 505 554 463 q 505 583 519 547 q 479 644 490 618 q 463 686 468 671 q 456 706 461 689 q 449 736 451 722 q 440 706 446 722 q 433 686 435 689 l 322 417 z "},"Ł":{"ha":803,"x_min":31,"x_max":786,"o":"m 133 0 l 133 367 l 31 335 l 31 458 l 133 490 l 133 1007 l 286 1007 l 286 538 l 576 629 l 576 506 l 286 414 l 286 144 l 786 144 l 786 0 l 133 0 z "},"Ľ":{"ha":793,"x_min":124,"x_max":776,"o":"m 124 0 l 124 1007 l 276 1007 l 276 144 l 776 144 l 776 0 l 124 0 m 511 796 l 449 831 q 492 901 479 858 q 496 992 506 943 l 574 1001 q 568 890 585 943 q 511 796 551 836 z "},"Ś":{"ha":785,"x_min":33,"x_max":736,"o":"m 700 951 l 646 828 q 533 861 589 849 q 425 874 476 874 q 285 838 338 874 q 233 746 233 801 q 271 670 233 699 q 364 619 308 642 q 485 573 419 596 q 606 514 550 550 q 699 423 661 478 q 736 282 736 368 q 712 162 736 215 q 640 69 688 108 q 520 10 592 31 q 353 -11 449 -11 q 242 -3 292 -11 q 153 19 193 6 q 84 47 114 32 q 33 75 54 63 l 100 207 q 224 156 156 175 q 347 136 292 136 q 416 143 375 136 q 494 167 457 150 q 559 214 532 185 q 586 288 586 243 q 565 356 586 328 q 508 406 543 385 q 427 445 472 428 q 335 481 382 463 q 242 521 288 500 q 162 572 197 542 q 105 641 126 601 q 83 736 83 681 q 104 838 83 788 q 167 926 125 888 q 270 989 208 965 q 414 1013 332 1013 q 512 1004 464 1013 q 599 985 560 996 q 665 965 638 975 q 700 951 692 956 m 306 1065 q 369 1158 338 1111 q 433 1251 401 1206 l 561 1251 l 396 1065 l 306 1065 z "},"Š":{"ha":785,"x_min":33,"x_max":736,"o":"m 700 951 l 646 828 q 533 861 589 849 q 425 874 476 874 q 285 838 338 874 q 233 746 233 801 q 271 670 233 699 q 364 619 308 642 q 485 573 419 596 q 606 514 550 550 q 699 423 661 478 q 736 282 736 368 q 712 162 736 215 q 640 69 688 108 q 520 10 592 31 q 353 -11 449 -11 q 242 -3 292 -11 q 153 19 193 6 q 84 47 114 32 q 33 75 54 63 l 100 207 q 224 156 156 175 q 347 136 292 136 q 416 143 375 136 q 494 167 457 150 q 559 214 532 185 q 586 288 586 243 q 565 356 586 328 q 508 406 543 385 q 427 445 472 428 q 335 481 382 463 q 242 521 288 500 q 162 572 197 542 q 105 641 126 601 q 83 736 83 681 q 104 838 83 788 q 167 926 125 888 q 270 989 208 965 q 414 1013 332 1013 q 512 1004 464 1013 q 599 985 560 996 q 665 965 638 975 q 700 951 692 956 m 397 1032 q 313 1159 356 1096 q 228 1286 271 1222 l 318 1286 q 334 1263 324 1278 q 357 1233 344 1249 q 381 1201 369 1217 q 397 1178 392 1186 q 414 1201 403 1186 q 438 1233 425 1217 q 461 1263 450 1249 q 478 1286 472 1278 l 567 1286 q 481 1159 524 1222 q 397 1032 439 1096 z "},"Ş":{"ha":785,"x_min":33,"x_max":736,"o":"m 700 951 l 646 828 q 533 861 589 849 q 425 874 476 874 q 285 838 338 874 q 233 746 233 801 q 271 670 233 699 q 364 619 308 642 q 485 573 419 596 q 606 514 550 550 q 699 423 661 478 q 736 282 736 368 q 653 81 736 158 q 407 -8 571 3 l 407 -10 q 413 -42 407 -31 q 428 -62 419 -54 q 448 -74 438 -69 q 467 -86 458 -79 q 508 -137 496 -108 q 519 -203 519 -165 q 510 -259 519 -232 q 481 -308 500 -286 q 434 -344 463 -331 q 368 -357 406 -357 q 278 -330 319 -357 q 218 -247 238 -303 q 253 -230 236 -239 q 288 -211 271 -221 q 313 -248 294 -233 q 357 -262 331 -262 q 408 -240 390 -262 q 425 -186 425 -218 q 410 -142 425 -158 q 377 -114 394 -126 q 344 -87 360 -101 q 329 -50 329 -74 l 329 -11 q 228 -1 274 -10 q 147 21 183 8 q 82 48 110 33 q 33 75 54 63 l 100 207 q 224 156 156 175 q 347 136 292 136 q 416 143 375 136 q 494 167 457 150 q 559 214 532 185 q 586 288 586 243 q 565 356 586 328 q 508 406 543 385 q 427 445 472 428 q 335 481 382 463 q 242 521 288 500 q 162 572 197 542 q 105 641 126 601 q 83 736 83 681 q 104 838 83 788 q 167 926 125 888 q 270 989 208 965 q 414 1013 332 1013 q 512 1004 464 1013 q 599 985 560 996 q 665 965 638 975 q 700 951 692 956 z "},"Ť":{"ha":765,"x_min":56,"x_max":710,"o":"m 710 1007 l 710 863 l 456 863 l 456 0 l 304 0 l 304 863 l 56 863 l 56 1007 l 710 1007 m 381 1032 q 465 1159 422 1096 q 550 1286 507 1222 l 461 1286 q 444 1263 456 1278 q 421 1233 433 1249 q 397 1201 408 1217 q 381 1178 386 1186 q 364 1201 375 1186 q 340 1233 353 1217 q 317 1263 328 1249 q 301 1286 307 1278 l 211 1286 q 297 1159 254 1222 q 381 1032 339 1096 z "},"Ź":{"ha":882,"x_min":1,"x_max":850,"o":"m 242 1007 l 838 1007 l 265 146 l 850 146 l 850 0 l 1 0 q 44 63 15 18 q 113 167 74 107 q 198 300 151 228 q 293 447 244 372 q 388 593 342 521 q 474 725 435 665 q 542 828 513 785 q 585 889 571 871 l 182 889 q 138 895 160 889 q 100 913 117 901 q 73 940 83 924 q 63 978 63 957 l 63 1058 l 199 1058 l 199 1039 q 208 1010 199 1014 q 242 1007 218 1007 m 383 1065 q 447 1158 415 1111 q 511 1251 479 1206 l 639 1251 l 474 1065 l 383 1065 z "},"Ž":{"ha":881,"x_min":0,"x_max":849,"o":"m 240 1007 l 836 1007 l 264 146 l 849 146 l 849 0 l 0 0 q 43 63 14 18 q 111 167 72 107 q 197 300 150 228 q 292 447 243 372 q 387 593 340 521 q 472 725 433 665 q 540 828 511 785 q 583 889 569 871 l 181 889 q 137 895 158 889 q 99 913 115 901 q 72 940 82 924 q 61 978 61 957 l 61 1058 l 197 1058 l 197 1039 q 207 1010 197 1014 q 240 1007 217 1007 m 442 1032 q 358 1159 400 1096 q 272 1286 315 1222 l 363 1286 q 378 1263 368 1278 q 401 1233 389 1249 q 425 1201 414 1217 q 442 1178 436 1186 q 458 1201 447 1186 q 482 1233 469 1217 q 506 1263 494 1249 q 522 1286 517 1278 l 611 1286 q 526 1159 568 1222 q 442 1032 483 1096 z "},"Ż":{"ha":882,"x_min":1,"x_max":850,"o":"m 242 1007 l 838 1007 l 265 146 l 850 146 l 850 0 l 1 0 q 44 63 15 18 q 113 167 74 107 q 198 300 151 228 q 293 447 244 372 q 388 593 342 521 q 474 725 435 665 q 542 828 513 785 q 585 889 571 871 l 182 889 q 138 895 160 889 q 100 913 117 901 q 73 940 83 924 q 63 978 63 957 l 63 1058 l 199 1058 l 199 1039 q 208 1010 199 1014 q 242 1007 218 1007 m 386 1142 q 410 1197 386 1175 q 463 1219 435 1219 q 514 1197 490 1219 q 538 1142 538 1175 q 514 1087 538 1108 q 463 1065 490 1065 q 410 1087 435 1065 q 386 1142 386 1108 z "},"ą":{"ha":747,"x_min":43,"x_max":733,"o":"m 664 0 l 544 0 l 544 74 q 522 47 538 63 q 483 19 507 32 q 425 -4 458 6 q 349 -14 392 -14 q 226 10 282 -14 q 129 76 169 35 q 66 171 89 117 q 43 285 43 225 q 67 405 43 349 q 133 503 92 461 q 230 571 175 546 q 347 596 285 596 q 424 585 389 596 q 483 560 458 575 q 524 528 508 544 q 544 499 539 511 l 550 581 l 664 581 l 664 0 m 163 292 q 177 217 163 251 q 217 157 192 182 q 276 117 242 132 q 353 103 311 103 q 430 117 394 103 q 491 158 465 132 q 531 217 517 183 q 544 292 544 251 q 531 366 544 332 q 491 425 517 400 q 430 465 465 450 q 353 479 394 479 q 276 465 311 479 q 217 425 242 450 q 177 366 192 400 q 163 292 163 332 m 622 0 l 544 0 l 544 -10 q 539 -42 544 -31 q 524 -62 533 -54 q 505 -74 515 -69 q 486 -86 494 -79 q 444 -137 457 -108 q 432 -203 432 -165 q 442 -259 432 -232 q 470 -308 451 -286 q 518 -344 489 -331 q 585 -357 547 -357 q 674 -330 633 -357 q 733 -247 714 -303 q 699 -230 717 -239 q 664 -211 681 -221 q 640 -248 657 -233 q 594 -262 622 -262 q 544 -240 561 -262 q 526 -186 526 -218 q 542 -142 526 -158 q 574 -114 557 -126 q 607 -87 592 -101 q 622 -50 622 -74 l 622 0 z "},"ł":{"ha":331,"x_min":26,"x_max":308,"o":"m 214 0 l 96 0 l 96 357 l 26 335 l 26 458 l 96 481 l 96 1079 l 214 1079 l 214 517 l 308 547 l 308 424 l 214 393 l 214 0 z "},"ľ":{"ha":288,"x_min":85,"x_max":403,"o":"m 203 0 l 85 0 l 85 1079 l 203 1079 l 203 0 m 329 796 l 267 831 q 310 901 297 858 q 314 992 324 943 l 392 1001 q 386 890 403 943 q 329 796 369 836 z "},"ś":{"ha":472,"x_min":39,"x_max":429,"o":"m 407 529 l 344 446 q 335 453 343 447 q 313 464 326 458 q 283 474 300 469 q 247 479 265 479 q 201 468 224 479 q 178 426 178 457 q 197 383 178 400 q 243 353 215 367 q 303 326 271 340 q 364 292 336 313 q 410 242 392 272 q 429 167 429 213 q 376 38 429 89 q 229 -12 322 -12 q 123 6 175 -12 q 39 61 71 25 q 60 86 49 71 q 84 115 72 101 q 103 138 96 129 q 113 147 111 147 q 123 139 113 146 q 150 124 133 132 q 188 110 167 117 q 229 104 208 104 q 286 121 263 104 q 310 165 310 138 q 291 205 310 190 q 244 232 272 219 q 183 258 217 244 q 122 292 150 271 q 76 344 94 313 q 57 425 57 375 q 74 504 57 472 q 119 556 92 536 q 179 585 146 576 q 243 594 213 594 q 329 578 283 594 q 407 529 375 561 m 171 675 q 235 768 203 721 q 299 861 267 815 l 426 861 l 261 675 l 171 675 z "},"š":{"ha":472,"x_min":39,"x_max":429,"o":"m 407 529 l 344 446 q 335 453 343 447 q 313 464 326 458 q 283 474 300 469 q 247 479 265 479 q 201 468 224 479 q 178 426 178 457 q 197 383 178 400 q 243 353 215 367 q 303 326 271 340 q 364 292 336 313 q 410 242 392 272 q 429 167 429 213 q 376 38 429 89 q 229 -12 322 -12 q 123 6 175 -12 q 39 61 71 25 q 60 86 49 71 q 84 115 72 101 q 103 138 96 129 q 113 147 111 147 q 123 139 113 146 q 150 124 133 132 q 188 110 167 117 q 229 104 208 104 q 286 121 263 104 q 310 165 310 138 q 291 205 310 190 q 244 232 272 219 q 183 258 217 244 q 122 292 150 271 q 76 344 94 313 q 57 425 57 375 q 74 504 57 472 q 119 556 92 536 q 179 585 146 576 q 243 594 213 594 q 329 578 283 594 q 407 529 375 561 m 229 675 q 145 802 188 739 q 60 929 103 865 l 150 929 q 166 906 156 921 q 189 876 176 892 q 213 844 201 860 q 229 821 224 829 q 246 844 235 829 q 269 876 257 860 q 293 906 282 892 q 310 929 304 921 l 399 929 q 313 802 356 865 q 229 675 271 739 z "},"ş":{"ha":472,"x_min":39,"x_max":429,"o":"m 407 529 l 344 446 q 335 453 343 447 q 313 464 326 458 q 283 474 300 469 q 247 479 265 479 q 201 468 224 479 q 178 426 178 457 q 197 383 178 400 q 243 353 215 367 q 303 326 271 340 q 364 292 336 313 q 410 242 392 272 q 429 167 429 213 q 388 52 429 100 q 276 -8 347 4 l 276 -10 q 283 -42 276 -31 q 298 -62 289 -54 q 317 -74 307 -69 q 336 -86 328 -79 q 377 -137 365 -108 q 389 -203 389 -165 q 379 -259 389 -232 q 351 -308 369 -286 q 303 -344 332 -331 q 238 -357 275 -357 q 148 -330 189 -357 q 88 -247 107 -303 q 123 -230 106 -239 q 157 -211 140 -221 q 182 -248 164 -233 q 226 -262 200 -262 q 277 -240 260 -262 q 294 -186 294 -218 q 279 -142 294 -158 q 247 -114 264 -126 q 214 -87 229 -101 q 199 -50 199 -74 l 199 -11 q 109 13 151 -6 q 39 61 67 31 q 60 86 49 71 q 84 115 72 101 q 103 138 96 129 q 113 147 111 147 q 123 139 113 146 q 150 124 133 132 q 188 110 167 117 q 229 104 208 104 q 286 121 263 104 q 310 165 310 138 q 291 205 310 190 q 244 232 272 219 q 183 258 217 244 q 122 292 150 271 q 76 344 94 313 q 57 425 57 375 q 74 504 57 472 q 119 556 92 536 q 179 585 146 576 q 243 594 213 594 q 329 578 283 594 q 407 529 375 561 z "},"ť":{"ha":421,"x_min":29,"x_max":479,"o":"m 133 836 l 251 836 l 251 579 l 407 579 l 407 474 l 251 474 l 251 0 l 133 0 l 133 474 l 29 474 l 29 579 l 133 579 l 133 836 m 406 796 l 343 831 q 387 901 374 858 q 390 992 400 943 l 468 1001 q 463 890 479 943 q 406 796 446 836 z "},"ź":{"ha":610,"x_min":21,"x_max":572,"o":"m 568 0 l 21 0 l 354 479 l 160 479 q 79 506 111 479 q 47 576 47 532 l 47 636 l 154 636 l 154 618 q 165 588 154 594 q 201 581 176 581 l 572 581 l 249 117 l 568 117 l 568 0 m 254 675 q 318 768 286 721 q 382 861 350 815 l 510 861 l 344 675 l 254 675 z "},"ž":{"ha":610,"x_min":21,"x_max":572,"o":"m 568 0 l 21 0 l 354 479 l 160 479 q 79 506 111 479 q 47 576 47 532 l 47 636 l 154 636 l 154 618 q 165 588 154 594 q 201 581 176 581 l 572 581 l 249 117 l 568 117 l 568 0 m 315 675 q 231 802 274 739 q 146 929 189 865 l 236 929 q 252 906 242 921 q 275 876 263 892 q 299 844 288 860 q 315 821 310 829 q 332 844 321 829 q 356 876 343 860 q 379 906 368 892 q 396 929 390 921 l 485 929 q 399 802 442 865 q 315 675 357 739 z "},"ż":{"ha":610,"x_min":21,"x_max":572,"o":"m 568 0 l 21 0 l 354 479 l 160 479 q 79 506 111 479 q 47 576 47 532 l 47 636 l 154 636 l 154 618 q 165 588 154 594 q 201 581 176 581 l 572 581 l 249 117 l 568 117 l 568 0 m 232 803 q 256 858 232 836 q 308 881 281 881 q 360 858 336 881 q 383 803 383 836 q 360 748 383 769 q 308 726 336 726 q 256 748 281 726 q 232 803 232 769 z "},"Ŕ":{"ha":872,"x_min":124,"x_max":857,"o":"m 124 0 l 124 1007 l 399 1007 q 544 986 478 1007 q 658 924 610 965 q 732 824 706 883 q 758 689 758 765 q 750 606 758 647 q 723 527 742 565 q 675 456 704 489 q 604 401 646 424 q 725 208 660 314 q 857 0 790 101 l 675 0 q 617 90 647 43 q 558 184 588 138 q 499 276 528 231 q 446 360 471 321 l 418 360 l 276 360 l 276 0 l 124 0 m 276 503 l 414 503 q 507 522 469 503 q 566 568 544 540 q 597 628 588 596 q 606 686 606 660 q 597 744 606 713 q 565 802 588 775 q 506 847 543 829 q 415 865 469 865 l 276 865 l 276 503 m 336 1065 q 400 1158 368 1111 q 464 1251 432 1206 l 592 1251 l 426 1065 l 336 1065 z "},"Ă":{"ha":899,"x_min":1,"x_max":897,"o":"m 897 0 q 867 70 889 19 q 815 193 846 121 q 748 351 785 265 q 673 526 711 438 q 598 702 635 615 q 531 860 561 789 q 480 983 501 932 q 450 1054 458 1035 l 1 0 l 151 0 l 271 289 l 626 289 q 665 195 646 240 q 699 112 683 150 q 728 44 715 74 q 747 0 740 15 l 897 0 m 451 1071 q 365 1088 406 1071 q 293 1133 324 1104 q 244 1203 263 1163 q 225 1289 226 1243 l 293 1289 q 340 1180 296 1222 q 451 1138 383 1138 q 562 1180 519 1138 q 607 1289 604 1222 l 675 1289 q 657 1203 675 1243 q 608 1133 639 1163 q 538 1088 578 1104 q 451 1071 497 1071 m 435 686 q 442 706 436 689 q 450 736 447 722 q 458 706 453 722 q 464 686 463 689 q 481 644 469 671 q 506 583 492 618 q 538 505 521 547 q 575 417 556 463 l 324 417 l 435 686 z "},"Ĺ":{"ha":793,"x_min":124,"x_max":776,"o":"m 124 0 l 124 1007 l 276 1007 l 276 144 l 776 144 l 776 0 l 124 0 m 360 1065 q 424 1158 392 1111 q 488 1251 456 1206 l 615 1251 l 450 1065 l 360 1065 z "},"Ć":{"ha":886,"x_min":54,"x_max":871,"o":"m 871 72 q 824 45 854 60 q 754 18 794 31 q 665 -3 714 6 q 560 -11 615 -11 q 348 30 442 -11 q 189 140 254 71 q 89 301 124 210 q 54 496 54 393 q 95 706 54 610 q 207 871 136 801 q 373 979 278 940 q 575 1018 468 1018 q 657 1013 615 1018 q 735 997 699 1007 q 801 974 772 988 q 844 947 829 961 q 827 919 833 931 q 814 897 821 908 q 799 869 807 885 q 776 829 790 854 q 734 850 758 842 q 683 864 710 858 q 630 872 657 869 q 581 875 603 875 q 431 845 500 875 q 313 765 363 815 q 234 647 263 714 q 206 508 206 581 q 233 372 206 438 q 308 256 260 307 q 423 174 356 204 q 571 143 490 143 q 654 151 614 143 q 727 171 694 160 q 781 193 760 182 q 807 210 803 204 l 871 72 m 475 1065 q 539 1158 507 1111 q 603 1251 571 1206 l 731 1251 l 565 1065 l 475 1065 z "},"Č":{"ha":886,"x_min":54,"x_max":871,"o":"m 871 72 q 824 45 854 60 q 754 18 794 31 q 665 -3 714 6 q 560 -11 615 -11 q 348 30 442 -11 q 189 140 254 71 q 89 301 124 210 q 54 496 54 393 q 95 706 54 610 q 207 871 136 801 q 373 979 278 940 q 575 1018 468 1018 q 657 1013 615 1018 q 735 997 699 1007 q 801 974 772 988 q 844 947 829 961 q 827 919 833 931 q 814 897 821 908 q 799 869 807 885 q 776 829 790 854 q 734 850 758 842 q 683 864 710 858 q 630 872 657 869 q 581 875 603 875 q 431 845 500 875 q 313 765 363 815 q 234 647 263 714 q 206 508 206 581 q 233 372 206 438 q 308 256 260 307 q 423 174 356 204 q 571 143 490 143 q 654 151 614 143 q 727 171 694 160 q 781 193 760 182 q 807 210 803 204 l 871 72 m 567 1032 q 651 1159 608 1096 q 736 1286 693 1222 l 647 1286 q 631 1263 642 1278 q 607 1233 619 1249 q 583 1201 594 1217 q 567 1178 572 1186 q 550 1201 561 1186 q 526 1233 539 1217 q 503 1263 514 1249 q 488 1286 493 1278 l 397 1286 q 483 1159 440 1222 q 567 1032 525 1096 z "},"Ę":{"ha":857,"x_min":124,"x_max":915,"o":"m 804 0 l 124 0 l 124 1007 l 785 1007 l 785 869 l 276 869 l 276 575 l 729 575 l 729 435 l 276 435 l 276 140 l 804 140 l 804 0 m 804 0 l 726 0 l 726 -10 q 721 -42 726 -31 q 706 -62 715 -54 q 687 -74 697 -69 q 668 -86 676 -79 q 626 -137 639 -108 q 614 -203 614 -165 q 624 -259 614 -232 q 652 -308 633 -286 q 700 -344 671 -331 q 767 -357 729 -357 q 856 -330 815 -357 q 915 -247 896 -303 q 881 -230 899 -239 q 846 -211 863 -221 q 822 -248 839 -233 q 776 -262 804 -262 q 726 -240 743 -262 q 708 -186 708 -218 q 724 -142 708 -158 q 756 -114 739 -126 q 789 -87 774 -101 q 804 -50 804 -74 l 804 0 z "},"Ě":{"ha":857,"x_min":124,"x_max":804,"o":"m 124 0 l 124 1007 l 785 1007 l 785 869 l 276 869 l 276 575 l 729 575 l 729 435 l 276 435 l 276 140 l 804 140 l 804 0 l 124 0 m 472 1032 q 388 1159 431 1096 q 303 1286 346 1222 l 393 1286 q 409 1263 399 1278 q 432 1233 419 1249 q 456 1201 444 1217 q 472 1178 467 1186 q 489 1201 478 1186 q 513 1233 500 1217 q 536 1263 525 1249 q 553 1286 547 1278 l 642 1286 q 556 1159 599 1222 q 472 1032 514 1096 z "},"Ď":{"ha":988,"x_min":124,"x_max":932,"o":"m 124 1007 l 376 1007 q 635 961 529 1007 q 806 841 740 915 q 902 674 872 767 q 932 490 932 582 q 892 287 932 378 q 782 132 851 196 q 621 34 713 68 q 426 0 529 0 l 124 0 l 124 1007 m 404 144 q 553 168 485 144 q 673 237 622 192 q 752 348 724 282 q 781 500 781 414 q 749 660 781 592 q 665 773 717 728 q 549 840 614 818 q 418 861 485 861 l 275 861 l 275 144 l 404 144 m 469 1032 q 385 1159 428 1096 q 300 1286 343 1222 l 390 1286 q 406 1263 396 1278 q 429 1233 417 1249 q 453 1201 442 1217 q 469 1178 464 1186 q 486 1201 475 1186 q 510 1233 497 1217 q 533 1263 522 1249 q 550 1286 544 1278 l 639 1286 q 553 1159 596 1222 q 469 1032 511 1096 z "},"Đ":{"ha":997,"x_min":35,"x_max":942,"o":"m 35 569 l 133 569 l 133 1007 l 386 1007 q 644 961 539 1007 q 816 841 750 915 q 912 674 882 767 q 942 490 942 582 q 901 287 942 378 q 792 132 861 196 q 631 34 722 68 q 436 0 539 0 l 133 0 l 133 468 l 35 468 l 35 569 m 414 144 q 563 168 494 144 q 683 237 632 192 q 762 348 733 282 q 790 500 790 414 q 758 660 790 592 q 675 773 726 728 q 559 840 624 818 q 428 861 494 861 l 285 861 l 285 569 l 451 569 l 451 468 l 285 468 l 285 144 l 414 144 z "},"Ń":{"ha":1129,"x_min":122,"x_max":1006,"o":"m 1006 1007 l 1006 -46 q 931 35 986 -21 q 803 163 875 90 q 649 314 731 235 q 496 465 568 393 q 369 592 424 536 q 297 672 315 649 l 271 708 l 275 664 l 275 0 l 122 0 l 122 1054 q 173 999 138 1035 q 256 915 208 963 q 362 811 304 867 q 478 699 419 756 q 595 587 538 642 q 701 485 653 532 q 783 401 749 438 q 832 347 818 365 l 858 308 l 854 356 l 854 1007 l 1006 1007 m 485 1065 q 549 1158 517 1111 q 613 1251 581 1206 l 740 1251 l 575 1065 l 485 1065 z "},"Ň":{"ha":1129,"x_min":122,"x_max":1006,"o":"m 1006 1007 l 1006 -46 q 931 35 986 -21 q 803 163 875 90 q 649 314 731 235 q 496 465 568 393 q 369 592 424 536 q 297 672 315 649 l 271 708 l 275 664 l 275 0 l 122 0 l 122 1054 q 173 999 138 1035 q 256 915 208 963 q 362 811 304 867 q 478 699 419 756 q 595 587 538 642 q 701 485 653 532 q 783 401 749 438 q 832 347 818 365 l 858 308 l 854 356 l 854 1007 l 1006 1007 m 549 1032 q 465 1159 507 1096 q 379 1286 422 1222 l 469 1286 q 485 1263 475 1278 q 508 1233 496 1249 q 532 1201 521 1217 q 549 1178 543 1186 q 565 1201 554 1186 q 589 1233 576 1217 q 613 1263 601 1249 q 629 1286 624 1278 l 718 1286 q 633 1159 675 1222 q 549 1032 590 1096 z "},"Ő":{"ha":1135,"x_min":53,"x_max":1082,"o":"m 53 503 q 93 701 53 607 q 203 865 133 794 q 367 977 274 936 q 567 1018 460 1018 q 766 977 672 1018 q 930 865 860 936 q 1041 701 1000 794 q 1082 503 1082 607 q 1041 303 1082 396 q 930 140 1000 210 q 766 29 860 69 q 567 -11 672 -11 q 367 29 460 -11 q 203 140 274 69 q 93 303 133 210 q 53 503 53 396 m 204 501 q 233 358 204 425 q 311 240 261 290 q 428 161 361 190 q 569 132 494 132 q 710 161 644 132 q 826 240 776 190 q 903 358 875 290 q 932 503 932 425 q 903 647 932 579 q 825 764 875 714 q 709 843 775 814 q 568 872 643 872 q 426 843 493 872 q 310 764 360 814 q 233 646 261 714 q 204 501 204 578 m 358 1060 q 422 1153 390 1106 q 486 1246 454 1200 l 614 1246 l 449 1060 l 358 1060 m 665 1060 q 729 1153 697 1106 q 793 1246 761 1200 l 921 1246 l 754 1060 l 665 1060 z "},"Ř":{"ha":872,"x_min":124,"x_max":857,"o":"m 124 0 l 124 1007 l 399 1007 q 544 986 478 1007 q 658 924 610 965 q 732 824 706 883 q 758 689 758 765 q 750 606 758 647 q 723 527 742 565 q 675 456 704 489 q 604 401 646 424 q 725 208 660 314 q 857 0 790 101 l 675 0 q 617 90 647 43 q 558 184 588 138 q 499 276 528 231 q 446 360 471 321 l 418 360 l 276 360 l 276 0 l 124 0 m 276 503 l 414 503 q 507 522 469 503 q 566 568 544 540 q 597 628 588 596 q 606 686 606 660 q 597 744 606 713 q 565 802 588 775 q 506 847 543 829 q 415 865 469 865 l 276 865 l 276 503 m 415 1032 q 331 1159 374 1096 q 246 1286 289 1222 l 336 1286 q 352 1263 342 1278 q 375 1233 363 1249 q 399 1201 388 1217 q 415 1178 410 1186 q 432 1201 421 1186 q 456 1233 443 1217 q 479 1263 468 1249 q 496 1286 490 1278 l 585 1286 q 499 1159 542 1222 q 415 1032 457 1096 z "},"Ů":{"ha":993,"x_min":113,"x_max":881,"o":"m 456 1178 q 470 1144 456 1158 q 504 1131 485 1131 q 539 1144 525 1131 q 553 1178 553 1158 q 539 1213 553 1199 q 504 1228 525 1228 q 470 1213 485 1228 q 456 1178 456 1199 m 386 1179 q 421 1263 386 1228 q 504 1297 456 1297 q 588 1263 553 1297 q 622 1179 622 1228 q 588 1096 622 1131 q 504 1061 553 1061 q 421 1096 456 1061 q 386 1179 386 1131 m 496 -11 q 346 15 415 -11 q 224 90 276 42 q 142 205 172 138 q 113 356 113 272 l 113 1007 l 265 1007 l 265 360 q 283 270 265 311 q 331 198 300 229 q 404 149 363 167 q 496 132 446 132 q 587 149 544 132 q 660 198 629 167 q 710 270 692 229 q 728 360 728 311 l 728 1007 l 881 1007 l 881 356 q 851 205 881 272 q 769 90 821 138 q 647 15 717 42 q 496 -11 576 -11 z "},"Ű":{"ha":993,"x_min":113,"x_max":881,"o":"m 496 -11 q 346 15 415 -11 q 224 90 276 42 q 142 205 172 138 q 113 356 113 272 l 113 1007 l 265 1007 l 265 360 q 283 270 265 311 q 331 198 300 229 q 404 149 363 167 q 496 132 446 132 q 587 149 544 132 q 660 198 629 167 q 710 270 692 229 q 728 360 728 311 l 728 1007 l 881 1007 l 881 356 q 851 205 881 272 q 769 90 821 138 q 647 15 717 42 q 496 -11 576 -11 m 269 1060 q 333 1153 301 1106 q 397 1246 365 1200 l 525 1246 l 360 1060 l 269 1060 m 576 1060 q 640 1153 608 1106 q 704 1246 672 1200 l 832 1246 l 665 1060 l 576 1060 z "},"Ţ":{"ha":765,"x_min":56,"x_max":710,"o":"m 710 1007 l 710 863 l 456 863 l 456 0 l 304 0 l 304 863 l 56 863 l 56 1007 l 710 1007 m 458 -31 l 336 -319 l 222 -319 q 276 -176 250 -247 q 331 -31 303 -104 l 458 -31 z "},"ŕ":{"ha":432,"x_min":83,"x_max":429,"o":"m 403 443 q 328 433 364 443 q 263 401 292 422 q 218 349 235 381 q 201 278 201 318 l 201 0 l 83 0 l 83 581 l 188 581 q 192 502 190 538 q 197 432 194 467 q 244 500 215 469 q 307 551 274 531 q 372 584 340 572 q 429 596 404 596 l 403 443 m 157 675 q 221 768 189 721 q 285 861 253 815 l 413 861 l 247 675 l 157 675 z "},"ă":{"ha":747,"x_min":43,"x_max":664,"o":"m 43 285 q 67 405 43 349 q 133 503 92 461 q 230 571 175 546 q 347 596 285 596 q 424 585 389 596 q 483 560 458 575 q 524 528 508 544 q 544 499 539 511 l 550 581 l 664 581 l 664 0 l 544 0 l 544 74 q 522 47 538 63 q 483 19 507 32 q 425 -4 458 6 q 349 -14 392 -14 q 226 10 282 -14 q 129 76 169 35 q 66 171 89 117 q 43 285 43 225 m 163 292 q 177 217 163 251 q 217 157 192 182 q 276 117 242 132 q 353 103 311 103 q 430 117 394 103 q 491 158 465 132 q 531 217 517 183 q 544 292 544 251 q 531 366 544 332 q 491 425 517 400 q 430 465 465 450 q 353 479 394 479 q 276 465 311 479 q 217 425 242 450 q 177 366 192 400 q 163 292 163 332 m 379 694 q 292 711 333 694 q 221 757 251 728 q 172 826 190 786 q 153 913 154 867 l 221 913 q 267 803 224 846 q 379 761 311 761 q 490 803 447 761 q 535 913 532 846 l 603 913 q 585 826 603 867 q 536 757 567 786 q 465 711 506 728 q 379 694 425 694 z "},"ĺ":{"ha":288,"x_min":85,"x_max":342,"o":"m 203 0 l 85 0 l 85 1079 l 203 1079 l 203 0 m 86 1103 q 150 1196 118 1149 q 214 1289 182 1243 l 342 1289 l 176 1103 l 86 1103 z "},"ć":{"ha":578,"x_min":43,"x_max":549,"o":"m 472 143 q 509 98 492 119 q 544 53 526 76 q 457 4 506 22 q 351 -14 408 -14 q 231 10 288 -14 q 133 76 175 35 q 67 174 92 118 q 43 292 43 229 q 67 410 43 354 q 133 506 92 465 q 231 572 175 547 q 351 596 288 596 q 459 578 410 596 q 549 529 508 560 l 472 439 q 418 469 449 458 q 351 479 388 479 q 275 465 310 479 q 215 425 240 450 q 175 366 189 400 q 161 292 161 332 q 175 217 161 251 q 215 158 189 183 q 275 117 240 132 q 351 103 310 103 q 418 113 388 103 q 472 143 449 124 m 256 675 q 319 768 288 721 q 383 861 351 815 l 511 861 l 346 675 l 256 675 z "},"č":{"ha":578,"x_min":43,"x_max":549,"o":"m 472 143 q 509 98 492 119 q 544 53 526 76 q 457 4 506 22 q 351 -14 408 -14 q 231 10 288 -14 q 133 76 175 35 q 67 174 92 118 q 43 292 43 229 q 67 410 43 354 q 133 506 92 465 q 231 572 175 547 q 351 596 288 596 q 459 578 410 596 q 549 529 508 560 l 472 439 q 418 469 449 458 q 351 479 388 479 q 275 465 310 479 q 215 425 240 450 q 175 366 189 400 q 161 292 161 332 q 175 217 161 251 q 215 158 189 183 q 275 117 240 132 q 351 103 310 103 q 418 113 388 103 q 472 143 449 124 m 338 675 q 253 802 296 739 q 168 929 211 865 l 258 929 q 274 906 264 921 q 297 876 285 892 q 321 844 310 860 q 338 821 332 829 q 354 844 343 829 q 378 876 365 860 q 401 906 390 892 q 418 929 413 921 l 507 929 q 422 802 464 865 q 338 675 379 739 z "},"ę":{"ha":643,"x_min":43,"x_max":624,"o":"m 388 0 l 310 0 l 310 -10 l 310 -11 q 204 22 253 -4 q 119 90 156 49 q 63 182 83 131 q 43 290 43 233 q 67 408 43 353 q 133 506 92 464 q 230 572 175 547 q 347 596 285 596 q 519 537 446 596 q 624 382 592 478 q 525 344 581 367 q 410 298 469 322 q 290 250 350 274 q 179 207 231 226 q 248 131 203 160 q 349 103 293 103 q 424 117 386 103 q 486 154 463 131 l 575 68 q 490 15 539 36 q 388 -11 440 -6 l 388 0 m 351 -14 q 331 -13 340 -14 q 310 -11 321 -12 q 303 -42 310 -31 q 289 -62 297 -54 q 270 -74 281 -69 q 251 -86 260 -79 q 210 -137 222 -108 q 197 -203 197 -165 q 207 -259 197 -232 q 235 -308 217 -286 q 283 -344 254 -331 q 350 -357 313 -357 q 439 -330 399 -357 q 499 -247 479 -303 q 464 -230 482 -239 q 429 -211 446 -221 q 405 -248 422 -233 q 360 -262 388 -262 q 309 -240 326 -262 q 292 -186 292 -218 q 307 -142 292 -158 q 340 -114 322 -126 q 372 -87 357 -101 q 388 -50 388 -74 l 388 -11 q 369 -13 378 -12 q 351 -14 360 -14 m 475 410 q 422 462 458 444 q 349 479 386 479 q 274 464 308 479 q 215 423 240 449 q 176 364 190 397 q 161 296 161 331 q 162 286 161 289 q 163 282 163 283 q 241 313 199 296 q 325 348 283 331 q 406 381 367 365 q 475 410 444 397 z "},"ě":{"ha":643,"x_min":43,"x_max":624,"o":"m 575 68 q 474 8 533 31 q 351 -14 414 -14 q 231 10 288 -14 q 133 76 175 35 q 67 172 92 117 q 43 290 43 228 q 67 408 43 353 q 133 506 92 464 q 230 572 175 547 q 347 596 285 596 q 519 537 446 596 q 624 382 592 478 q 525 344 581 367 q 410 298 469 322 q 290 250 350 274 q 179 207 231 226 q 248 131 203 160 q 349 103 293 103 q 424 117 386 103 q 486 154 463 131 l 575 68 m 475 410 q 422 462 458 444 q 349 479 386 479 q 274 464 308 479 q 215 423 240 449 q 176 364 190 397 q 161 296 161 331 q 162 286 161 289 q 163 282 163 283 q 241 313 199 296 q 325 348 283 331 q 406 381 367 365 q 475 410 444 397 m 325 675 q 241 802 283 739 q 156 929 199 865 l 246 929 q 262 906 251 921 q 285 876 272 892 q 308 844 297 860 q 325 821 319 829 q 342 844 331 829 q 365 876 353 860 q 389 906 378 892 q 406 929 400 921 l 494 929 q 409 802 451 865 q 325 675 367 739 z "},"ď":{"ha":749,"x_min":44,"x_max":863,"o":"m 44 290 q 67 415 44 358 q 131 511 90 471 q 226 574 171 551 q 344 596 281 596 q 422 585 388 596 q 480 560 456 575 q 521 528 504 546 q 546 496 538 510 l 546 1079 l 665 1079 l 665 0 l 546 0 l 546 43 q 547 62 546 51 q 549 79 549 72 q 516 47 535 63 q 472 17 497 31 q 415 -6 447 3 q 340 -14 382 -14 q 216 10 271 -14 q 123 76 161 35 q 65 172 85 117 q 44 290 44 228 m 164 292 q 178 217 164 251 q 218 157 193 182 q 278 117 243 132 q 354 103 313 103 q 431 117 396 103 q 492 158 467 132 q 532 217 518 183 q 546 292 546 251 q 532 366 546 332 q 492 425 518 400 q 431 465 467 450 q 354 479 396 479 q 278 465 313 479 q 218 425 243 450 q 178 366 193 400 q 164 292 164 332 m 789 796 l 726 831 q 770 901 757 858 q 774 992 783 943 l 851 1001 q 846 890 863 943 q 789 796 829 836 z "},"đ":{"ha":749,"x_min":44,"x_max":746,"o":"m 44 290 q 67 415 44 358 q 131 511 90 471 q 226 574 171 551 q 344 596 281 596 q 422 585 388 596 q 480 560 456 575 q 521 528 504 546 q 546 496 538 510 l 546 840 l 665 840 l 665 0 l 546 0 l 546 43 q 547 62 546 51 q 549 79 549 72 q 516 47 535 63 q 472 17 497 31 q 415 -6 447 3 q 340 -14 382 -14 q 216 10 271 -14 q 123 76 161 35 q 65 172 85 117 q 44 290 44 228 m 164 292 q 178 217 164 251 q 218 157 193 182 q 278 117 243 132 q 354 103 313 103 q 431 117 396 103 q 492 158 467 132 q 532 217 518 183 q 546 292 546 251 q 532 366 546 332 q 492 425 518 400 q 431 465 467 450 q 354 479 396 479 q 278 465 313 479 q 218 425 243 450 q 178 366 193 400 q 164 292 164 332 m 329 840 l 546 840 l 546 943 l 329 943 l 329 840 m 546 1079 l 665 1079 l 665 943 l 546 943 l 546 1079 m 746 840 l 746 943 l 665 943 l 665 840 l 746 840 z "},"ń":{"ha":707,"x_min":83,"x_max":629,"o":"m 83 581 l 188 581 q 192 502 190 538 q 197 432 194 467 q 288 551 229 507 q 433 596 347 596 q 574 547 521 596 q 629 422 626 499 l 629 0 l 510 0 l 510 368 q 479 444 507 413 q 392 478 451 475 q 315 463 350 478 q 256 424 281 449 q 216 364 231 399 q 201 288 201 329 l 201 0 l 83 0 l 83 581 m 308 675 q 372 768 340 721 q 436 861 404 815 l 564 861 l 399 675 l 308 675 z "},"ň":{"ha":707,"x_min":83,"x_max":629,"o":"m 83 581 l 188 581 q 192 502 190 538 q 197 432 194 467 q 288 551 229 507 q 433 596 347 596 q 574 547 521 596 q 629 422 626 499 l 629 0 l 510 0 l 510 368 q 479 444 507 413 q 392 478 451 475 q 315 463 350 478 q 256 424 281 449 q 216 364 231 399 q 201 288 201 329 l 201 0 l 83 0 l 83 581 m 365 675 q 281 802 324 739 q 196 929 239 865 l 286 929 q 302 906 292 921 q 325 876 313 892 q 349 844 338 860 q 365 821 360 829 q 382 844 371 829 q 406 876 393 860 q 429 906 418 892 q 446 929 440 921 l 535 929 q 449 802 492 865 q 365 675 407 739 z "},"ő":{"ha":701,"x_min":43,"x_max":678,"o":"m 43 292 q 67 410 43 354 q 133 506 92 465 q 231 572 175 547 q 353 596 288 596 q 474 572 418 596 q 572 506 531 547 q 635 410 613 465 q 658 292 658 354 q 635 174 658 229 q 572 76 613 118 q 474 10 531 35 q 351 -14 418 -14 q 231 8 288 -14 q 133 71 175 31 q 67 167 92 111 q 43 292 43 224 m 161 290 q 176 217 161 251 q 216 158 190 183 q 276 117 242 132 q 349 103 310 103 q 422 117 388 103 q 483 158 457 132 q 524 217 508 183 q 539 290 539 251 q 524 364 539 329 q 483 424 508 399 q 422 465 457 450 q 349 479 388 479 q 276 465 310 479 q 216 424 242 450 q 176 364 190 399 q 161 290 161 329 m 115 675 q 179 768 147 721 q 243 861 211 815 l 371 861 l 206 675 l 115 675 m 422 675 q 486 768 454 721 q 550 861 518 815 l 678 861 l 511 675 l 422 675 z "},"ř":{"ha":432,"x_min":79,"x_max":429,"o":"m 403 443 q 328 433 364 443 q 263 401 292 422 q 218 349 235 381 q 201 278 201 318 l 201 0 l 83 0 l 83 581 l 188 581 q 192 502 190 538 q 197 432 194 467 q 244 500 215 469 q 307 551 274 531 q 372 584 340 572 q 429 596 404 596 l 403 443 m 249 675 q 165 802 207 739 q 79 929 122 865 l 169 929 q 185 906 175 921 q 208 876 196 892 q 232 844 221 860 q 249 821 243 829 q 265 844 254 829 q 289 876 276 860 q 313 906 301 892 q 329 929 324 921 l 418 929 q 333 802 375 865 q 249 675 290 739 z "},"ů":{"ha":706,"x_min":78,"x_max":624,"o":"m 306 753 q 319 719 306 733 q 354 706 333 706 q 388 719 374 706 q 403 753 403 733 q 388 789 403 775 q 354 803 374 803 q 319 789 333 803 q 306 753 306 775 m 235 756 q 244 801 235 779 q 270 838 254 822 q 308 864 286 854 q 354 874 329 874 q 436 839 401 874 q 471 756 471 804 q 461 709 471 731 q 435 672 451 688 q 399 646 419 656 q 354 636 378 636 q 308 646 329 636 q 270 672 286 656 q 244 709 254 688 q 235 756 235 731 m 624 -12 l 524 -12 l 510 149 q 420 32 478 78 q 274 -14 363 -14 q 133 34 185 -14 q 78 160 81 82 l 78 581 l 196 581 l 196 213 q 227 139 199 169 q 315 104 256 108 q 392 119 357 104 q 451 158 426 133 q 490 218 476 183 q 504 294 504 253 l 504 581 l 624 581 l 624 -12 z "},"ű":{"ha":706,"x_min":78,"x_max":676,"o":"m 624 -12 l 524 -12 l 510 149 q 420 32 478 78 q 274 -14 363 -14 q 133 34 185 -14 q 78 160 81 82 l 78 581 l 196 581 l 196 213 q 227 139 199 169 q 315 104 256 108 q 392 119 357 104 q 451 158 426 133 q 490 218 476 183 q 504 294 504 253 l 504 581 l 624 581 l 624 -12 m 114 675 q 178 768 146 721 q 242 861 210 815 l 369 861 l 204 675 l 114 675 m 421 675 q 485 768 453 721 q 549 861 517 815 l 676 861 l 510 675 l 421 675 z "},"ţ":{"ha":422,"x_min":29,"x_max":407,"o":"m 133 836 l 251 836 l 251 579 l 407 579 l 407 474 l 251 474 l 251 0 l 133 0 l 133 474 l 29 474 l 29 579 l 133 579 l 133 836 m 278 -31 l 156 -319 l 42 -319 q 96 -176 69 -247 q 150 -31 122 -104 l 278 -31 z "},"Ħ":{"ha":1074,"x_min":24,"x_max":1047,"o":"m 133 0 l 133 719 l 24 719 l 24 800 l 133 800 l 133 1007 l 285 1007 l 285 800 l 789 800 l 789 1007 l 942 1007 l 942 800 l 1047 800 l 1047 719 l 942 719 q 941 574 942 650 q 940 424 940 499 q 940 280 940 350 q 940 153 940 210 q 940 56 940 97 q 940 0 940 15 l 789 0 l 789 435 l 285 435 l 285 0 l 133 0 m 789 579 l 789 719 l 285 719 l 285 579 l 789 579 z "},"Ĥ":{"ha":1056,"x_min":124,"x_max":932,"o":"m 124 0 l 124 1007 l 275 1007 l 275 579 l 779 579 l 779 1007 l 932 1007 q 932 940 932 989 q 932 822 932 890 q 932 672 932 754 q 931 503 932 589 q 931 335 931 418 q 931 185 931 253 q 931 67 931 117 q 931 0 931 18 l 779 0 l 779 435 l 275 435 l 275 0 l 124 0 m 525 1321 q 609 1194 567 1257 q 694 1067 651 1131 l 606 1067 q 589 1090 600 1075 q 565 1120 578 1104 q 542 1151 553 1136 q 525 1175 531 1167 q 508 1151 519 1167 q 485 1120 497 1136 q 462 1090 472 1104 q 446 1067 451 1075 l 356 1067 q 441 1194 399 1131 q 525 1321 483 1257 z "},"İ":{"ha":399,"x_min":124,"x_max":275,"o":"m 124 1007 l 275 1007 l 275 0 l 124 0 l 124 1007 m 124 1149 q 148 1204 124 1182 q 200 1226 172 1226 q 251 1204 228 1226 q 275 1149 275 1182 q 251 1094 275 1115 q 200 1072 228 1072 q 148 1094 172 1072 q 124 1149 124 1115 z "},"Ğ":{"ha":951,"x_min":54,"x_max":875,"o":"m 875 482 l 875 60 q 736 8 817 26 q 572 -11 656 -11 q 358 26 453 -11 q 194 130 263 64 q 90 286 126 196 q 54 483 54 376 q 97 699 54 601 q 212 868 139 797 q 380 978 285 939 q 582 1018 475 1018 q 733 999 654 1018 q 871 946 813 981 l 797 822 q 749 844 776 835 q 693 861 722 854 q 635 872 664 868 q 579 875 606 875 q 438 846 506 875 q 318 765 369 817 q 236 644 267 714 q 206 494 206 575 q 233 356 206 421 q 308 240 260 290 q 425 161 357 190 q 575 132 493 132 q 651 138 607 132 q 735 160 694 144 l 735 351 l 539 351 l 539 482 l 875 482 m 565 1064 q 478 1081 519 1064 q 407 1126 438 1097 q 358 1196 376 1156 q 339 1282 340 1236 l 407 1282 q 453 1173 410 1215 q 565 1131 497 1131 q 676 1173 633 1131 q 721 1282 718 1215 l 789 1282 q 771 1196 789 1236 q 722 1126 753 1156 q 651 1081 692 1097 q 565 1064 611 1064 z "},"Ĵ":{"ha":454,"x_min":-39,"x_max":426,"o":"m -39 -208 l -39 -65 q 120 1 58 -60 q 182 192 182 63 l 182 1007 l 335 1007 l 335 188 q 307 22 335 94 q 229 -101 279 -50 q 110 -178 179 -151 q -39 -208 42 -206 m 257 1321 q 341 1194 299 1257 q 426 1067 383 1131 l 338 1067 q 321 1090 332 1075 q 297 1120 310 1104 q 274 1151 285 1136 q 257 1175 263 1167 q 240 1151 251 1167 q 217 1120 229 1136 q 194 1090 204 1104 q 178 1067 183 1075 l 88 1067 q 173 1194 131 1131 q 257 1321 215 1257 z "},"ħ":{"ha":707,"x_min":-3,"x_max":629,"o":"m 83 1079 l 201 1079 l 201 843 l 408 843 l 408 763 l 201 763 l 201 440 q 288 552 232 510 q 431 596 343 594 q 573 549 519 597 q 629 422 626 500 l 629 0 l 510 0 l 510 368 q 479 444 507 413 q 392 478 451 475 q 315 463 350 478 q 256 424 281 449 q 216 364 231 399 q 201 288 201 329 l 201 0 l 83 0 l 83 763 l -3 763 l -3 843 l 83 843 l 83 1079 z "},"ĥ":{"ha":707,"x_min":83,"x_max":629,"o":"m 83 1079 l 201 1079 l 201 440 q 288 552 232 510 q 431 596 343 594 q 573 549 519 597 q 629 422 626 500 l 629 0 l 510 0 l 510 368 q 479 444 507 413 q 392 478 451 475 q 315 463 350 478 q 256 424 281 449 q 216 364 231 399 q 201 288 201 329 l 201 0 l 83 0 l 83 1079 m 425 1321 q 509 1194 467 1257 q 594 1067 551 1131 l 506 1067 q 489 1090 500 1075 q 465 1120 478 1104 q 442 1151 453 1136 q 425 1175 431 1167 q 408 1151 419 1167 q 385 1120 397 1136 q 362 1090 372 1104 q 346 1067 351 1075 l 256 1067 q 341 1194 299 1131 q 425 1321 383 1257 z "},"ı":{"ha":285,"x_min":83,"x_max":201,"o":"m 201 0 l 83 0 l 83 581 l 201 581 l 201 0 z "},"ğ":{"ha":749,"x_min":44,"x_max":665,"o":"m 44 289 q 68 410 44 354 q 132 508 92 467 q 226 572 172 549 q 342 596 281 596 q 426 583 389 596 q 488 554 463 571 q 527 522 513 538 q 546 499 542 506 q 549 540 546 518 q 551 581 551 561 l 665 581 l 665 26 q 581 -199 665 -118 q 351 -279 496 -279 q 262 -269 301 -279 q 190 -242 222 -258 q 130 -203 157 -225 q 76 -157 103 -181 l 153 -76 q 241 -140 196 -117 q 349 -164 286 -164 q 493 -119 442 -164 q 546 4 544 -75 l 546 44 q 549 69 546 56 q 551 89 551 82 q 520 53 539 72 q 476 20 501 35 q 418 -4 451 6 q 343 -14 385 -14 q 224 10 278 -14 q 129 74 169 33 q 67 170 89 115 q 44 289 44 225 m 164 292 q 178 217 164 251 q 218 157 193 182 q 278 117 243 132 q 354 103 313 103 q 431 117 396 103 q 492 158 467 132 q 532 217 518 183 q 546 292 546 251 q 532 366 546 332 q 492 425 518 400 q 431 465 467 450 q 354 479 396 479 q 278 465 313 479 q 218 425 243 450 q 178 366 193 400 q 164 292 164 332 m 385 694 q 298 711 339 694 q 226 757 257 728 q 178 826 196 786 q 158 913 160 867 l 226 913 q 273 803 229 846 q 385 761 317 761 q 495 803 453 761 q 540 913 538 846 l 608 913 q 590 826 608 867 q 542 757 572 786 q 471 711 511 728 q 385 694 431 694 z "},"ĵ":{"ha":285,"x_min":-29,"x_max":310,"o":"m 82 -281 l -1 -192 q 61 -112 39 -160 q 83 3 83 -64 l 83 581 l 201 581 l 201 -1 q 169 -165 201 -96 q 82 -281 138 -235 m 140 928 q 224 801 182 864 q 310 674 267 738 l 221 674 q 204 697 215 682 q 181 727 193 711 q 157 758 168 743 q 140 782 146 774 q 124 758 135 774 q 100 727 113 743 q 77 697 88 711 q 61 674 67 682 l -29 674 q 56 801 14 738 q 140 928 99 864 z "},"Ċ":{"ha":886,"x_min":54,"x_max":871,"o":"m 871 72 q 824 45 854 60 q 754 18 794 31 q 665 -3 714 6 q 560 -11 615 -11 q 348 30 442 -11 q 189 140 254 71 q 89 301 124 210 q 54 496 54 393 q 95 706 54 610 q 207 871 136 801 q 373 979 278 940 q 575 1018 468 1018 q 657 1013 615 1018 q 735 997 699 1007 q 801 974 772 988 q 844 947 829 961 q 827 919 833 931 q 814 897 821 908 q 799 869 807 885 q 776 829 790 854 q 734 850 758 842 q 683 864 710 858 q 630 872 657 869 q 581 875 603 875 q 431 845 500 875 q 313 765 363 815 q 234 647 263 714 q 206 508 206 581 q 233 372 206 438 q 308 256 260 307 q 423 174 356 204 q 571 143 490 143 q 654 151 614 143 q 727 171 694 160 q 781 193 760 182 q 807 210 803 204 l 871 72 m 475 1138 q 499 1193 475 1171 q 551 1215 524 1215 q 603 1193 579 1215 q 626 1138 626 1171 q 603 1083 626 1104 q 551 1061 579 1061 q 499 1083 524 1061 q 475 1138 475 1104 z "},"Ĉ":{"ha":886,"x_min":54,"x_max":871,"o":"m 871 72 q 824 45 854 60 q 754 18 794 31 q 665 -3 714 6 q 560 -11 615 -11 q 348 30 442 -11 q 189 140 254 71 q 89 301 124 210 q 54 496 54 393 q 95 706 54 610 q 207 871 136 801 q 373 979 278 940 q 575 1018 468 1018 q 657 1013 615 1018 q 735 997 699 1007 q 801 974 772 988 q 844 947 829 961 q 827 919 833 931 q 814 897 821 908 q 799 869 807 885 q 776 829 790 854 q 734 850 758 842 q 683 864 710 858 q 630 872 657 869 q 581 875 603 875 q 431 845 500 875 q 313 765 363 815 q 234 647 263 714 q 206 508 206 581 q 233 372 206 438 q 308 256 260 307 q 423 174 356 204 q 571 143 490 143 q 654 151 614 143 q 727 171 694 160 q 781 193 760 182 q 807 210 803 204 l 871 72 m 549 1321 q 633 1194 590 1257 q 718 1067 675 1131 l 629 1067 q 613 1090 624 1075 q 589 1120 601 1104 q 565 1151 576 1136 q 549 1175 554 1167 q 532 1151 543 1167 q 508 1120 521 1136 q 485 1090 496 1104 q 469 1067 475 1075 l 379 1067 q 465 1194 422 1131 q 549 1321 507 1257 z "},"Ġ":{"ha":951,"x_min":54,"x_max":875,"o":"m 875 482 l 875 60 q 736 8 817 26 q 572 -11 656 -11 q 358 26 453 -11 q 194 130 263 64 q 90 286 126 196 q 54 483 54 376 q 97 699 54 601 q 212 868 139 797 q 380 978 285 939 q 582 1018 475 1018 q 733 999 654 1018 q 871 946 813 981 l 797 822 q 749 844 776 835 q 693 861 722 854 q 635 872 664 868 q 579 875 606 875 q 438 846 506 875 q 318 765 369 817 q 236 644 267 714 q 206 494 206 575 q 233 356 206 421 q 308 240 260 290 q 425 161 357 190 q 575 132 493 132 q 651 138 607 132 q 735 160 694 144 l 735 351 l 539 351 l 539 482 l 875 482 m 460 1138 q 484 1193 460 1171 q 536 1215 508 1215 q 588 1193 564 1215 q 611 1138 611 1171 q 588 1083 611 1104 q 536 1061 564 1061 q 484 1083 508 1061 q 460 1138 460 1104 z "},"Ĝ":{"ha":951,"x_min":54,"x_max":875,"o":"m 875 482 l 875 60 q 736 8 817 26 q 572 -11 656 -11 q 358 26 453 -11 q 194 130 263 64 q 90 286 126 196 q 54 483 54 376 q 97 699 54 601 q 212 868 139 797 q 380 978 285 939 q 582 1018 475 1018 q 733 999 654 1018 q 871 946 813 981 l 797 822 q 749 844 776 835 q 693 861 722 854 q 635 872 664 868 q 579 875 606 875 q 438 846 506 875 q 318 765 369 817 q 236 644 267 714 q 206 494 206 575 q 233 356 206 421 q 308 240 260 290 q 425 161 357 190 q 575 132 493 132 q 651 138 607 132 q 735 160 694 144 l 735 351 l 539 351 l 539 482 l 875 482 m 568 1321 q 652 1194 610 1257 q 738 1067 694 1131 l 649 1067 q 632 1090 643 1075 q 608 1120 621 1104 q 585 1151 596 1136 q 568 1175 574 1167 q 551 1151 563 1167 q 528 1120 540 1136 q 505 1090 515 1104 q 489 1067 494 1075 l 399 1067 q 484 1194 442 1131 q 568 1321 526 1257 z "},"Ŭ":{"ha":993,"x_min":113,"x_max":881,"o":"m 496 -11 q 346 15 415 -11 q 224 90 276 42 q 142 205 172 138 q 113 356 113 272 l 113 1007 l 265 1007 l 265 360 q 283 270 265 311 q 331 198 300 229 q 404 149 363 167 q 496 132 446 132 q 587 149 544 132 q 660 198 629 167 q 710 270 692 229 q 728 360 728 311 l 728 1007 l 881 1007 l 881 356 q 851 205 881 272 q 769 90 821 138 q 647 15 717 42 q 496 -11 576 -11 m 500 1064 q 413 1081 454 1064 q 342 1126 372 1097 q 293 1196 311 1156 q 274 1282 275 1236 l 342 1282 q 388 1173 344 1215 q 500 1131 432 1131 q 610 1173 568 1131 q 656 1282 653 1215 l 724 1282 q 706 1196 724 1236 q 657 1126 688 1156 q 586 1081 626 1097 q 500 1064 546 1064 z "},"Ŝ":{"ha":785,"x_min":33,"x_max":736,"o":"m 700 951 l 646 828 q 533 861 589 849 q 425 874 476 874 q 285 838 338 874 q 233 746 233 801 q 271 670 233 699 q 364 619 308 642 q 485 573 419 596 q 606 514 550 550 q 699 423 661 478 q 736 282 736 368 q 712 162 736 215 q 640 69 688 108 q 520 10 592 31 q 353 -11 449 -11 q 242 -3 292 -11 q 153 19 193 6 q 84 47 114 32 q 33 75 54 63 l 100 207 q 224 156 156 175 q 347 136 292 136 q 416 143 375 136 q 494 167 457 150 q 559 214 532 185 q 586 288 586 243 q 565 356 586 328 q 508 406 543 385 q 427 445 472 428 q 335 481 382 463 q 242 521 288 500 q 162 572 197 542 q 105 641 126 601 q 83 736 83 681 q 104 838 83 788 q 167 926 125 888 q 270 989 208 965 q 414 1013 332 1013 q 512 1004 464 1013 q 599 985 560 996 q 665 965 638 975 q 700 951 692 956 m 404 1321 q 488 1194 446 1257 q 574 1067 531 1131 l 485 1067 q 468 1090 479 1075 q 444 1120 457 1104 q 421 1151 432 1136 q 404 1175 410 1167 q 388 1151 399 1167 q 364 1120 376 1136 q 341 1090 351 1104 q 325 1067 331 1075 l 235 1067 q 320 1194 278 1131 q 404 1321 363 1257 z "},"ċ":{"ha":578,"x_min":43,"x_max":549,"o":"m 472 143 q 509 98 492 119 q 544 53 526 76 q 457 4 506 22 q 351 -14 408 -14 q 231 10 288 -14 q 133 76 175 35 q 67 174 92 118 q 43 292 43 229 q 67 410 43 354 q 133 506 92 465 q 231 572 175 547 q 351 596 288 596 q 459 578 410 596 q 549 529 508 560 l 472 439 q 418 469 449 458 q 351 479 388 479 q 275 465 310 479 q 215 425 240 450 q 175 366 189 400 q 161 292 161 332 q 175 217 161 251 q 215 158 189 183 q 275 117 240 132 q 351 103 310 103 q 418 113 388 103 q 472 143 449 124 m 281 803 q 305 858 281 836 q 357 881 329 881 q 408 858 385 881 q 432 803 432 836 q 408 748 432 769 q 357 726 385 726 q 305 748 329 726 q 281 803 281 769 z "},"ĉ":{"ha":578,"x_min":43,"x_max":549,"o":"m 472 143 q 509 98 492 119 q 544 53 526 76 q 457 4 506 22 q 351 -14 408 -14 q 231 10 288 -14 q 133 76 175 35 q 67 174 92 118 q 43 292 43 229 q 67 410 43 354 q 133 506 92 465 q 231 572 175 547 q 351 596 288 596 q 459 578 410 596 q 549 529 508 560 l 472 439 q 418 469 449 458 q 351 479 388 479 q 275 465 310 479 q 215 425 240 450 q 175 366 189 400 q 161 292 161 332 q 175 217 161 251 q 215 158 189 183 q 275 117 240 132 q 351 103 310 103 q 418 113 388 103 q 472 143 449 124 m 344 928 q 428 801 386 864 q 514 674 471 738 l 425 674 q 408 697 419 682 q 385 727 397 711 q 361 758 372 743 q 344 782 350 774 q 328 758 339 774 q 304 727 317 743 q 281 697 292 711 q 265 674 271 682 l 175 674 q 260 801 218 738 q 344 928 303 864 z "},"ġ":{"ha":749,"x_min":44,"x_max":665,"o":"m 44 289 q 68 410 44 354 q 132 508 92 467 q 226 572 172 549 q 342 596 281 596 q 426 583 389 596 q 488 554 463 571 q 527 522 513 538 q 546 499 542 506 q 549 540 546 518 q 551 581 551 561 l 665 581 l 665 26 q 581 -199 665 -118 q 351 -279 496 -279 q 262 -269 301 -279 q 190 -242 222 -258 q 130 -203 157 -225 q 76 -157 103 -181 l 153 -76 q 241 -140 196 -117 q 349 -164 286 -164 q 493 -119 442 -164 q 546 4 544 -75 l 546 44 q 549 69 546 56 q 551 89 551 82 q 520 53 539 72 q 476 20 501 35 q 418 -4 451 6 q 343 -14 385 -14 q 224 10 278 -14 q 129 74 169 33 q 67 170 89 115 q 44 289 44 225 m 164 292 q 178 217 164 251 q 218 157 193 182 q 278 117 243 132 q 354 103 313 103 q 431 117 396 103 q 492 158 467 132 q 532 217 518 183 q 546 292 546 251 q 532 366 546 332 q 492 425 518 400 q 431 465 467 450 q 354 479 396 479 q 278 465 313 479 q 218 425 243 450 q 178 366 193 400 q 164 292 164 332 m 307 803 q 331 858 307 836 q 383 881 356 881 q 435 858 411 881 q 458 803 458 836 q 435 748 458 769 q 383 726 411 726 q 331 748 356 726 q 307 803 307 769 z "},"ĝ":{"ha":749,"x_min":44,"x_max":665,"o":"m 44 289 q 68 410 44 354 q 132 508 92 467 q 226 572 172 549 q 342 596 281 596 q 426 583 389 596 q 488 554 463 571 q 527 522 513 538 q 546 499 542 506 q 549 540 546 518 q 551 581 551 561 l 665 581 l 665 26 q 581 -199 665 -118 q 351 -279 496 -279 q 262 -269 301 -279 q 190 -242 222 -258 q 130 -203 157 -225 q 76 -157 103 -181 l 153 -76 q 241 -140 196 -117 q 349 -164 286 -164 q 493 -119 442 -164 q 546 4 544 -75 l 546 44 q 549 69 546 56 q 551 89 551 82 q 520 53 539 72 q 476 20 501 35 q 418 -4 451 6 q 343 -14 385 -14 q 224 10 278 -14 q 129 74 169 33 q 67 170 89 115 q 44 289 44 225 m 164 292 q 178 217 164 251 q 218 157 193 182 q 278 117 243 132 q 354 103 313 103 q 431 117 396 103 q 492 158 467 132 q 532 217 518 183 q 546 292 546 251 q 532 366 546 332 q 492 425 518 400 q 431 465 467 450 q 354 479 396 479 q 278 465 313 479 q 218 425 243 450 q 178 366 193 400 q 164 292 164 332 m 350 929 q 434 802 392 865 q 519 675 476 739 l 431 675 q 414 698 425 683 q 390 728 403 713 q 367 760 378 744 q 350 783 356 775 q 333 760 344 775 q 310 728 322 744 q 287 698 297 713 q 271 675 276 683 l 181 675 q 266 802 224 739 q 350 929 308 865 z "},"ŭ":{"ha":706,"x_min":78,"x_max":624,"o":"m 624 -12 l 524 -12 l 510 149 q 420 32 478 78 q 274 -14 363 -14 q 133 34 185 -14 q 78 160 81 82 l 78 581 l 196 581 l 196 213 q 227 139 199 169 q 315 104 256 108 q 392 119 357 104 q 451 158 426 133 q 490 218 476 183 q 504 294 504 253 l 504 581 l 624 581 l 624 -12 m 351 694 q 265 711 306 694 q 193 757 224 728 q 144 826 163 786 q 125 913 126 867 l 193 913 q 240 803 196 846 q 351 761 283 761 q 462 803 419 761 q 507 913 504 846 l 575 913 q 557 826 575 867 q 508 757 539 786 q 438 711 478 728 q 351 694 397 694 z "},"ŝ":{"ha":472,"x_min":39,"x_max":429,"o":"m 407 529 l 344 446 q 335 453 343 447 q 313 464 326 458 q 283 474 300 469 q 247 479 265 479 q 201 468 224 479 q 178 426 178 457 q 197 383 178 400 q 243 353 215 367 q 303 326 271 340 q 364 292 336 313 q 410 242 392 272 q 429 167 429 213 q 376 38 429 89 q 229 -12 322 -12 q 123 6 175 -12 q 39 61 71 25 q 60 86 49 71 q 84 115 72 101 q 103 138 96 129 q 113 147 111 147 q 123 139 113 146 q 150 124 133 132 q 188 110 167 117 q 229 104 208 104 q 286 121 263 104 q 310 165 310 138 q 291 205 310 190 q 244 232 272 219 q 183 258 217 244 q 122 292 150 271 q 76 344 94 313 q 57 425 57 375 q 74 504 57 472 q 119 556 92 536 q 179 585 146 576 q 243 594 213 594 q 329 578 283 594 q 407 529 375 561 m 238 929 q 322 802 279 865 q 407 675 364 739 l 318 675 q 301 698 313 683 q 278 728 290 713 q 254 760 265 744 q 238 783 243 775 q 221 760 232 775 q 197 728 210 744 q 174 698 185 713 q 158 675 164 683 l 68 675 q 153 802 111 739 q 238 929 196 865 z "},"œ":{"ha":989,"x_min":43,"x_max":969,"o":"m 921 68 q 819 8 879 31 q 697 -14 760 -14 q 525 38 600 -14 q 351 -14 453 -14 q 231 8 288 -14 q 133 71 175 31 q 67 167 92 111 q 43 292 43 224 q 67 410 43 354 q 133 506 92 465 q 231 572 175 547 q 353 596 288 596 q 445 582 401 596 q 525 544 489 568 q 603 582 561 568 q 693 596 646 596 q 865 537 792 596 q 969 382 938 478 q 871 344 926 367 q 756 298 815 322 q 636 250 696 274 q 525 207 576 226 q 594 131 549 160 q 694 103 639 103 q 770 117 732 103 q 832 154 808 131 l 921 68 m 349 479 q 276 465 310 479 q 216 424 242 450 q 176 364 190 399 q 161 290 161 329 q 176 217 161 251 q 216 158 190 183 q 276 117 242 132 q 349 103 310 103 q 439 124 399 103 q 389 290 389 197 q 402 378 389 336 q 439 457 415 421 q 349 479 394 479 m 821 410 q 768 462 804 444 q 694 479 732 479 q 620 464 654 479 q 561 423 586 449 q 522 364 536 397 q 507 296 507 331 q 508 286 507 289 q 508 282 508 283 q 587 313 544 296 q 671 348 629 331 q 751 381 713 365 q 821 410 790 397 z "},"Œ":{"ha":1329,"x_min":53,"x_max":1276,"o":"m 567 -11 q 367 29 460 -11 q 203 140 274 69 q 93 303 133 210 q 53 503 53 396 q 93 701 53 607 q 203 865 133 794 q 367 977 274 936 q 567 1018 460 1018 q 668 1007 617 1018 l 1257 1007 l 1257 869 l 789 869 l 789 575 l 1200 575 l 1200 435 l 789 435 l 789 140 l 1276 140 l 1276 0 l 672 0 q 620 -8 646 -6 q 567 -11 594 -11 m 568 872 q 426 843 493 872 q 310 764 360 814 q 233 646 261 714 q 204 501 204 578 q 233 358 204 425 q 311 240 261 290 q 428 161 361 190 q 569 132 494 132 q 603 133 586 132 q 638 138 621 135 l 638 865 q 603 870 621 868 q 568 872 586 872 z "},"Ÿ":{"ha":911,"x_min":6,"x_max":903,"o":"m 532 332 l 532 0 l 379 0 l 379 332 q 341 399 369 347 q 274 520 313 450 q 192 669 236 590 q 110 819 149 749 q 44 940 72 889 q 6 1007 15 992 l 178 1007 q 222 927 190 986 q 293 794 254 868 q 372 644 332 719 q 440 514 413 568 l 456 468 q 465 491 461 479 q 474 514 469 503 q 542 644 503 568 q 619 794 581 719 q 688 927 657 868 q 732 1007 719 986 l 903 1007 l 532 332 m 513 1153 q 537 1210 513 1188 q 590 1232 561 1232 q 642 1210 618 1232 q 667 1153 667 1188 q 642 1097 667 1118 q 590 1075 618 1075 q 537 1097 561 1075 q 513 1153 513 1118 m 249 1153 q 273 1210 249 1188 q 328 1232 297 1232 q 380 1210 356 1232 q 404 1153 404 1188 q 380 1097 404 1118 q 328 1075 356 1075 q 273 1097 297 1075 q 249 1153 249 1118 z "},"Ẽ":{"ha":857,"x_min":124,"x_max":804,"o":"m 124 0 l 124 1007 l 785 1007 l 785 869 l 276 869 l 276 575 l 729 575 l 729 435 l 276 435 l 276 140 l 804 140 l 804 0 l 124 0 m 454 1135 q 417 1163 432 1156 q 382 1171 401 1171 q 338 1158 363 1171 q 308 1107 313 1146 l 240 1111 q 254 1164 242 1140 q 285 1204 267 1188 q 326 1230 304 1221 q 371 1239 349 1239 q 431 1226 404 1239 q 479 1192 457 1214 q 517 1164 501 1171 q 553 1157 533 1157 q 574 1160 563 1157 q 597 1169 586 1163 q 615 1189 607 1176 q 626 1221 624 1201 l 693 1217 q 679 1165 692 1188 q 648 1125 667 1142 q 607 1099 629 1108 q 564 1090 585 1090 q 505 1102 532 1090 q 454 1135 478 1114 z "},"Ŗ":{"ha":872,"x_min":124,"x_max":857,"o":"m 124 0 l 124 1007 l 399 1007 q 544 986 478 1007 q 658 924 610 965 q 732 824 706 883 q 758 689 758 765 q 750 606 758 647 q 723 527 742 565 q 675 456 704 489 q 604 401 646 424 q 725 208 660 314 q 857 0 790 101 l 675 0 q 617 90 647 43 q 558 184 588 138 q 499 276 528 231 q 446 360 471 321 l 418 360 l 276 360 l 276 0 l 124 0 m 276 503 l 414 503 q 507 522 469 503 q 566 568 544 540 q 597 628 588 596 q 606 686 606 660 q 597 744 606 713 q 565 802 588 775 q 506 847 543 829 q 415 865 469 865 l 276 865 l 276 503 m 528 -31 l 406 -319 l 292 -319 q 346 -176 319 -247 q 400 -31 372 -104 l 528 -31 z "},"Ĩ":{"ha":399,"x_min":-26,"x_max":426,"o":"m 124 1007 l 275 1007 l 275 0 l 124 0 l 124 1007 m 188 1108 q 150 1137 165 1129 q 115 1144 135 1144 q 71 1132 96 1144 q 42 1081 46 1119 l -26 1085 q -12 1138 -25 1114 q 19 1178 0 1161 q 60 1203 38 1194 q 104 1213 82 1213 q 164 1200 138 1213 q 213 1165 190 1188 q 251 1138 235 1144 q 286 1131 267 1131 q 308 1133 296 1131 q 330 1143 319 1136 q 349 1163 340 1150 q 360 1194 357 1175 l 426 1190 q 413 1138 425 1161 q 381 1099 400 1115 q 340 1073 363 1082 q 297 1064 318 1064 q 238 1076 265 1064 q 188 1108 211 1088 z "},"Ļ":{"ha":793,"x_min":124,"x_max":776,"o":"m 124 0 l 124 1007 l 276 1007 l 276 144 l 776 144 l 776 0 l 124 0 m 561 -31 l 439 -319 l 325 -319 q 379 -176 353 -247 q 433 -31 406 -104 l 561 -31 z "},"Ē":{"ha":857,"x_min":124,"x_max":804,"o":"m 124 0 l 124 1007 l 785 1007 l 785 869 l 276 869 l 276 575 l 729 575 l 729 435 l 276 435 l 276 140 l 804 140 l 804 0 l 124 0 m 304 1074 l 304 1154 l 629 1154 l 629 1074 l 304 1074 z "},"Ģ":{"ha":951,"x_min":54,"x_max":875,"o":"m 875 482 l 875 60 q 736 8 817 26 q 572 -11 656 -11 q 358 26 453 -11 q 194 130 263 64 q 90 286 126 196 q 54 483 54 376 q 97 699 54 601 q 212 868 139 797 q 380 978 285 939 q 582 1018 475 1018 q 733 999 654 1018 q 871 946 813 981 l 797 822 q 749 844 776 835 q 693 861 722 854 q 635 872 664 868 q 579 875 606 875 q 438 846 506 875 q 318 765 369 817 q 236 644 267 714 q 206 494 206 575 q 233 356 206 421 q 308 240 260 290 q 425 161 357 190 q 575 132 493 132 q 651 138 607 132 q 735 160 694 144 l 735 351 l 539 351 l 539 482 l 875 482 m 606 -31 l 483 -319 l 369 -319 q 424 -176 397 -247 q 478 -31 450 -104 l 606 -31 z "},"Ŧ":{"ha":765,"x_min":56,"x_max":710,"o":"m 217 613 l 217 693 l 304 693 l 304 863 l 56 863 l 56 1007 l 710 1007 l 710 863 l 456 863 l 456 693 l 542 693 l 542 613 l 456 613 l 456 0 l 304 0 l 304 613 l 217 613 z "},"ŗ":{"ha":432,"x_min":60,"x_max":429,"o":"m 403 443 q 328 433 364 443 q 263 401 292 422 q 218 349 235 381 q 201 278 201 318 l 201 0 l 83 0 l 83 581 l 188 581 q 192 502 190 538 q 197 432 194 467 q 244 500 215 469 q 307 551 274 531 q 372 584 340 572 q 429 596 404 596 l 403 443 m 296 -31 l 174 -319 l 60 -319 q 114 -176 88 -247 q 168 -31 140 -104 l 296 -31 z "},"ē":{"ha":643,"x_min":43,"x_max":624,"o":"m 575 68 q 474 8 533 31 q 351 -14 414 -14 q 231 10 288 -14 q 133 76 175 35 q 67 172 92 117 q 43 290 43 228 q 67 408 43 353 q 133 506 92 464 q 230 572 175 547 q 347 596 285 596 q 519 537 446 596 q 624 382 592 478 q 525 344 581 367 q 410 298 469 322 q 290 250 350 274 q 179 207 231 226 q 248 131 203 160 q 349 103 293 103 q 424 117 386 103 q 486 154 463 131 l 575 68 m 475 410 q 422 462 458 444 q 349 479 386 479 q 274 464 308 479 q 215 423 240 449 q 176 364 190 397 q 161 296 161 331 q 162 286 161 289 q 163 282 163 283 q 241 313 199 296 q 325 348 283 331 q 406 381 367 365 q 475 410 444 397 m 192 671 l 192 751 l 517 751 l 517 671 l 192 671 z "},"ģ":{"ha":749,"x_min":44,"x_max":665,"o":"m 44 289 q 68 410 44 354 q 132 508 92 467 q 226 572 172 549 q 342 596 281 596 q 426 583 389 596 q 488 554 463 571 q 527 522 513 538 q 546 499 542 506 q 549 540 546 518 q 551 581 551 561 l 665 581 l 665 26 q 581 -199 665 -118 q 351 -279 496 -279 q 262 -269 301 -279 q 190 -242 222 -258 q 130 -203 157 -225 q 76 -157 103 -181 l 153 -76 q 241 -140 196 -117 q 349 -164 286 -164 q 493 -119 442 -164 q 546 4 544 -75 l 546 44 q 549 69 546 56 q 551 89 551 82 q 520 53 539 72 q 476 20 501 35 q 418 -4 451 6 q 343 -14 385 -14 q 224 10 278 -14 q 129 74 169 33 q 67 170 89 115 q 44 289 44 225 m 164 292 q 178 217 164 251 q 218 157 193 182 q 278 117 243 132 q 354 103 313 103 q 431 117 396 103 q 492 158 467 132 q 532 217 518 183 q 546 292 546 251 q 532 366 546 332 q 492 425 518 400 q 431 465 467 450 q 354 479 396 479 q 278 465 313 479 q 218 425 243 450 q 178 366 193 400 q 164 292 164 332 m 304 704 l 426 993 l 540 993 q 486 849 513 921 q 432 704 460 778 l 304 704 z "},"ŧ":{"ha":422,"x_min":29,"x_max":407,"o":"m 50 671 l 50 751 l 133 751 l 133 836 l 251 836 l 251 751 l 375 751 l 375 671 l 251 671 l 251 579 l 407 579 l 407 474 l 251 474 l 251 0 l 133 0 l 133 474 l 29 474 l 29 579 l 133 579 l 133 671 l 50 671 z "},"Ā":{"ha":899,"x_min":1,"x_max":897,"o":"m 897 0 q 867 70 889 19 q 815 193 846 121 q 748 351 785 265 q 673 526 711 438 q 598 702 635 615 q 531 860 561 789 q 480 983 501 932 q 450 1054 458 1035 l 1 0 l 151 0 l 271 289 l 626 289 q 665 195 646 240 q 699 112 683 150 q 728 44 715 74 q 747 0 740 15 l 897 0 m 435 686 q 442 706 436 689 q 450 736 447 722 q 458 706 453 722 q 464 686 463 689 q 481 644 469 671 q 506 583 492 618 q 538 505 521 547 q 575 417 556 463 l 324 417 l 435 686 m 286 1090 l 286 1171 l 611 1171 l 611 1090 l 286 1090 z "},"Į":{"ha":399,"x_min":11,"x_max":313,"o":"m 124 1007 l 275 1007 l 275 0 l 124 0 l 124 1007 m 201 0 l 124 0 l 124 -10 q 118 -42 124 -31 q 103 -62 113 -54 q 84 -74 94 -69 q 65 -86 74 -79 q 24 -137 36 -108 q 11 -203 11 -165 q 21 -259 11 -232 q 49 -308 31 -286 q 97 -344 68 -331 q 164 -357 126 -357 q 253 -330 213 -357 q 313 -247 293 -303 q 278 -230 296 -239 q 243 -211 260 -221 q 219 -248 236 -233 q 174 -262 201 -262 q 123 -240 140 -262 q 106 -186 106 -218 q 121 -142 106 -158 q 153 -114 136 -126 q 186 -87 171 -101 q 201 -50 201 -74 l 201 0 z "},"ĩ":{"ha":285,"x_min":-85,"x_max":368,"o":"m 201 0 l 83 0 l 83 581 l 201 581 l 201 0 m 129 707 q 92 735 107 728 q 57 743 76 743 q 13 731 38 743 q -17 679 -12 718 l -85 683 q -71 736 -83 713 q -40 776 -58 760 q 1 802 -21 793 q 46 811 24 811 q 106 799 79 811 q 154 764 132 786 q 192 736 176 743 q 228 729 208 729 q 249 732 238 729 q 272 742 261 735 q 290 761 282 749 q 301 793 299 774 l 368 789 q 354 737 367 760 q 323 697 342 714 q 282 672 304 681 q 239 663 260 663 q 180 674 207 663 q 129 707 153 686 z "},"ļ":{"ha":288,"x_min":-25,"x_max":211,"o":"m 203 0 l 85 0 l 85 1079 l 203 1079 l 203 0 m 211 -31 l 89 -319 l -25 -319 q 29 -176 3 -247 q 83 -31 56 -104 l 211 -31 z "},"Ė":{"ha":857,"x_min":124,"x_max":804,"o":"m 124 0 l 124 1007 l 785 1007 l 785 869 l 276 869 l 276 575 l 729 575 l 729 435 l 276 435 l 276 140 l 804 140 l 804 0 l 124 0 m 382 1138 q 406 1193 382 1171 q 458 1215 431 1215 q 510 1193 486 1215 q 533 1138 533 1171 q 510 1083 533 1104 q 458 1061 486 1061 q 406 1083 431 1061 q 382 1138 382 1104 z "},"Ī":{"ha":399,"x_min":42,"x_max":367,"o":"m 124 1007 l 275 1007 l 275 0 l 124 0 l 124 1007 m 42 1090 l 42 1171 l 367 1171 l 367 1090 l 42 1090 z "},"Ņ":{"ha":1129,"x_min":124,"x_max":1007,"o":"m 1007 1007 l 1007 -46 q 932 35 988 -21 q 804 163 876 90 q 651 314 732 235 q 497 465 569 393 q 371 592 425 536 q 299 672 317 649 l 272 708 l 276 664 l 276 0 l 124 0 l 124 1054 q 174 999 139 1035 q 258 915 210 963 q 363 811 306 867 q 480 699 421 756 q 597 587 539 642 q 702 485 654 532 q 785 401 750 438 q 833 347 819 365 l 860 308 l 856 356 l 856 1007 l 1007 1007 m 644 -31 l 522 -319 l 408 -319 q 463 -176 436 -247 q 517 -31 489 -104 l 644 -31 z "},"Ķ":{"ha":899,"x_min":124,"x_max":908,"o":"m 721 0 q 628 119 672 63 q 540 233 583 176 q 453 349 497 290 q 361 469 410 407 q 326 434 343 450 q 290 401 310 418 q 291 201 290 294 q 292 0 292 107 l 124 0 l 124 1007 l 292 1007 l 292 631 q 290 606 292 618 q 288 582 288 594 q 301 599 294 592 q 315 618 308 607 q 506 812 414 711 q 696 1007 597 913 l 889 1007 q 683 789 785 899 q 476 571 581 679 q 588 426 535 496 q 694 286 642 356 q 799 146 746 217 q 908 0 851 75 l 721 0 m 567 -31 l 444 -319 l 331 -319 q 385 -176 358 -247 q 439 -31 411 -104 l 567 -31 z "},"ņ":{"ha":707,"x_min":83,"x_max":629,"o":"m 83 581 l 188 581 q 192 502 190 538 q 197 432 194 467 q 288 551 229 507 q 433 596 347 596 q 574 547 521 596 q 629 422 626 499 l 629 0 l 510 0 l 510 368 q 479 444 507 413 q 392 478 451 475 q 315 463 350 478 q 256 424 281 449 q 216 364 231 399 q 201 288 201 329 l 201 0 l 83 0 l 83 581 m 431 -31 l 308 -319 l 194 -319 q 249 -176 222 -247 q 303 -31 275 -104 l 431 -31 z "},"ķ":{"ha":614,"x_min":83,"x_max":608,"o":"m 496 596 l 567 525 q 466 431 514 476 q 365 335 418 385 q 488 167 428 251 q 608 0 547 83 l 472 0 q 377 128 425 65 q 282 257 329 192 l 201 183 l 201 0 l 83 0 l 83 1079 l 201 1079 l 201 322 q 350 459 279 393 q 496 596 421 525 m 431 -31 l 308 -319 l 194 -319 q 249 -176 222 -247 q 303 -31 275 -104 l 431 -31 z "},"Ō":{"ha":1135,"x_min":53,"x_max":1082,"o":"m 53 503 q 93 701 53 607 q 203 865 133 794 q 367 977 274 936 q 567 1018 460 1018 q 766 977 672 1018 q 930 865 860 936 q 1041 701 1000 794 q 1082 503 1082 607 q 1041 303 1082 396 q 930 140 1000 210 q 766 29 860 69 q 567 -11 672 -11 q 367 29 460 -11 q 203 140 274 69 q 93 303 133 210 q 53 503 53 396 m 204 501 q 233 358 204 425 q 311 240 261 290 q 428 161 361 190 q 569 132 494 132 q 710 161 644 132 q 826 240 776 190 q 903 358 875 290 q 932 503 932 425 q 903 647 932 579 q 825 764 875 714 q 709 843 775 814 q 568 872 643 872 q 426 843 493 872 q 310 764 360 814 q 233 646 261 714 q 204 501 204 578 m 408 1090 l 408 1171 l 733 1171 l 733 1090 l 408 1090 z "},"Ū":{"ha":993,"x_min":113,"x_max":881,"o":"m 496 -11 q 346 15 415 -11 q 224 90 276 42 q 142 205 172 138 q 113 356 113 272 l 113 1007 l 265 1007 l 265 360 q 283 270 265 311 q 331 198 300 229 q 404 149 363 167 q 496 132 446 132 q 587 149 544 132 q 660 198 629 167 q 710 270 692 229 q 728 360 728 311 l 728 1007 l 881 1007 l 881 356 q 851 205 881 272 q 769 90 821 138 q 647 15 717 42 q 496 -11 576 -11 m 338 1090 l 338 1171 l 663 1171 l 663 1090 l 338 1090 z "},"ō":{"ha":701,"x_min":43,"x_max":658,"o":"m 43 292 q 67 410 43 354 q 133 506 92 465 q 231 572 175 547 q 353 596 288 596 q 474 572 418 596 q 572 506 531 547 q 635 410 613 465 q 658 292 658 354 q 635 174 658 229 q 572 76 613 118 q 474 10 531 35 q 351 -14 418 -14 q 231 8 288 -14 q 133 71 175 31 q 67 167 92 111 q 43 292 43 224 m 161 290 q 176 217 161 251 q 216 158 190 183 q 276 117 242 132 q 349 103 310 103 q 422 117 388 103 q 483 158 457 132 q 524 217 508 183 q 539 290 539 251 q 524 364 539 329 q 483 424 508 399 q 422 465 457 450 q 349 479 388 479 q 276 465 310 479 q 216 424 242 450 q 176 364 190 399 q 161 290 161 329 m 199 671 l 199 751 l 524 751 l 524 671 l 199 671 z "},"ū":{"ha":706,"x_min":78,"x_max":624,"o":"m 624 -12 l 524 -12 l 510 149 q 420 32 478 78 q 274 -14 363 -14 q 133 34 185 -14 q 78 160 81 82 l 78 581 l 196 581 l 196 213 q 227 139 199 169 q 315 104 256 108 q 392 119 357 104 q 451 158 426 133 q 490 218 476 183 q 504 294 504 253 l 504 581 l 624 581 l 624 -12 m 188 671 l 188 751 l 513 751 l 513 671 l 188 671 z "},"ā":{"ha":747,"x_min":43,"x_max":664,"o":"m 43 285 q 67 405 43 349 q 133 503 92 461 q 230 571 175 546 q 347 596 285 596 q 424 585 389 596 q 483 560 458 575 q 524 528 508 544 q 544 499 539 511 l 550 581 l 664 581 l 664 0 l 544 0 l 544 74 q 522 47 538 63 q 483 19 507 32 q 425 -4 458 6 q 349 -14 392 -14 q 226 10 282 -14 q 129 76 169 35 q 66 171 89 117 q 43 285 43 225 m 163 292 q 177 217 163 251 q 217 157 192 182 q 276 117 242 132 q 353 103 311 103 q 430 117 394 103 q 491 158 465 132 q 531 217 517 183 q 544 292 544 251 q 531 366 544 332 q 491 425 517 400 q 430 465 465 450 q 353 479 394 479 q 276 465 311 479 q 217 425 242 450 q 177 366 192 400 q 163 292 163 332 m 214 671 l 214 751 l 539 751 l 539 671 l 214 671 z "},"Ų":{"ha":993,"x_min":113,"x_max":881,"o":"m 553 0 l 475 0 l 475 -10 q 333 21 399 -7 q 217 96 267 49 q 140 209 168 143 q 113 356 113 275 l 113 1007 l 265 1007 l 265 360 q 283 270 265 311 q 331 198 300 229 q 404 149 363 167 q 496 132 446 132 q 587 149 544 132 q 660 198 629 167 q 710 270 692 229 q 728 360 728 311 l 728 1007 l 881 1007 l 881 356 q 856 217 881 281 q 787 107 831 154 q 683 31 743 60 q 553 -7 622 1 l 553 0 m 496 -11 q 485 -10 490 -11 q 475 -10 481 -10 q 469 -42 475 -31 q 455 -62 464 -54 q 435 -74 446 -69 q 417 -86 425 -79 q 375 -137 388 -108 q 363 -203 363 -165 q 372 -259 363 -232 q 401 -308 382 -286 q 449 -344 419 -331 q 515 -357 478 -357 q 604 -330 564 -357 q 664 -247 644 -303 q 629 -230 647 -239 q 594 -211 611 -221 q 570 -248 588 -233 q 525 -262 553 -262 q 474 -240 492 -262 q 457 -186 457 -218 q 472 -142 457 -158 q 505 -114 488 -126 q 538 -87 522 -101 q 553 -50 553 -74 l 553 -7 q 496 -11 524 -11 z "},"ī":{"ha":285,"x_min":-19,"x_max":306,"o":"m 201 0 l 83 0 l 83 581 l 201 581 l 201 0 m -19 671 l -19 751 l 306 751 l 306 671 l -19 671 z "},"ų":{"ha":707,"x_min":78,"x_max":710,"o":"m 599 0 l 522 0 l 510 149 q 420 32 478 78 q 274 -14 363 -14 q 133 34 185 -14 q 78 160 81 82 l 78 581 l 196 581 l 196 213 q 227 139 199 169 q 315 104 256 108 q 392 119 357 104 q 451 158 426 133 q 490 218 476 183 q 504 294 504 253 l 504 581 l 624 581 l 624 -12 l 599 -12 l 599 0 m 522 0 l 521 0 l 521 -10 q 515 -42 521 -31 q 501 -62 510 -54 q 481 -74 492 -69 q 463 -86 471 -79 q 421 -137 433 -108 q 408 -203 408 -165 q 418 -259 408 -232 q 447 -308 428 -286 q 494 -344 465 -331 q 561 -357 524 -357 q 650 -330 610 -357 q 710 -247 690 -303 q 675 -230 693 -239 q 640 -211 657 -221 q 616 -248 633 -233 q 571 -262 599 -262 q 520 -240 538 -262 q 503 -186 503 -218 q 518 -142 503 -158 q 551 -114 533 -126 q 583 -87 568 -101 q 599 -50 599 -74 l 599 -12 l 524 -12 l 522 0 z "},"Ũ":{"ha":993,"x_min":113,"x_max":881,"o":"m 496 -11 q 346 15 415 -11 q 224 90 276 42 q 142 205 172 138 q 113 356 113 272 l 113 1007 l 265 1007 l 265 360 q 283 270 265 311 q 331 198 300 229 q 404 149 363 167 q 496 132 446 132 q 587 149 544 132 q 660 198 629 167 q 710 270 692 229 q 728 360 728 311 l 728 1007 l 881 1007 l 881 356 q 851 205 881 272 q 769 90 821 138 q 647 15 717 42 q 496 -11 576 -11 m 489 1108 q 451 1137 467 1129 q 417 1144 436 1144 q 372 1132 397 1144 q 343 1081 347 1119 l 275 1085 q 289 1138 276 1114 q 320 1178 301 1161 q 361 1203 339 1194 q 406 1213 383 1213 q 465 1200 439 1213 q 514 1165 492 1188 q 552 1138 536 1144 q 588 1131 568 1131 q 609 1133 597 1131 q 631 1143 621 1136 q 650 1163 642 1150 q 661 1194 658 1175 l 728 1190 q 714 1138 726 1161 q 683 1099 701 1115 q 642 1073 664 1082 q 599 1064 619 1064 q 540 1076 567 1064 q 489 1108 513 1088 z "},"ũ":{"ha":706,"x_min":78,"x_max":624,"o":"m 624 -12 l 524 -12 l 510 149 q 420 32 478 78 q 274 -14 363 -14 q 133 34 185 -14 q 78 160 81 82 l 78 581 l 196 581 l 196 213 q 227 139 199 169 q 315 104 256 108 q 392 119 357 104 q 451 158 426 133 q 490 218 476 183 q 504 294 504 253 l 504 581 l 624 581 l 624 -12 m 350 707 q 313 735 328 728 q 278 743 297 743 q 233 731 258 743 q 204 679 208 718 l 136 683 q 150 736 138 713 q 181 776 163 760 q 222 802 200 793 q 267 811 244 811 q 326 799 300 811 q 375 764 353 786 q 413 736 397 743 q 449 729 429 729 q 470 732 458 729 q 492 742 482 735 q 511 761 503 749 q 522 793 519 774 l 589 789 q 575 737 588 760 q 544 697 563 714 q 503 672 525 681 q 460 663 481 663 q 401 674 428 663 q 350 707 374 686 z "},"ė":{"ha":643,"x_min":43,"x_max":624,"o":"m 575 68 q 474 8 533 31 q 351 -14 414 -14 q 231 10 288 -14 q 133 76 175 35 q 67 172 92 117 q 43 290 43 228 q 67 408 43 353 q 133 506 92 464 q 230 572 175 547 q 347 596 285 596 q 519 537 446 596 q 624 382 592 478 q 525 344 581 367 q 410 298 469 322 q 290 250 350 274 q 179 207 231 226 q 248 131 203 160 q 349 103 293 103 q 424 117 386 103 q 486 154 463 131 l 575 68 m 475 410 q 422 462 458 444 q 349 479 386 479 q 274 464 308 479 q 215 423 240 449 q 176 364 190 397 q 161 296 161 331 q 162 286 161 289 q 163 282 163 283 q 241 313 199 296 q 325 348 283 331 q 406 381 367 365 q 475 410 444 397 m 269 803 q 294 858 269 836 q 346 881 318 881 q 397 858 374 881 q 421 803 421 836 q 397 748 421 769 q 346 726 374 726 q 294 748 318 726 q 269 803 269 769 z "},"į":{"ha":285,"x_min":-29,"x_max":272,"o":"m 68 803 q 92 858 68 836 q 144 881 117 881 q 196 858 172 881 q 219 803 219 836 q 196 748 219 769 q 144 726 172 726 q 92 748 117 726 q 68 803 68 769 m 201 0 l 83 0 l 83 581 l 201 581 l 201 0 m 161 0 l 83 0 l 83 -10 q 78 -42 83 -31 q 63 -62 72 -54 q 44 -74 54 -69 q 25 -86 33 -79 q -17 -137 -4 -108 q -29 -203 -29 -165 q -19 -259 -29 -232 q 9 -308 -10 -286 q 57 -344 28 -331 q 124 -357 86 -357 q 213 -330 172 -357 q 272 -247 253 -303 q 238 -230 256 -239 q 203 -211 219 -221 q 178 -248 196 -233 q 133 -262 161 -262 q 83 -240 100 -262 q 65 -186 65 -218 q 81 -142 65 -158 q 113 -114 96 -126 q 146 -87 131 -101 q 161 -50 161 -74 l 161 0 z "},"…":{"ha":767,"x_min":75,"x_max":690,"o":"m 75 78 q 99 134 75 111 q 154 157 124 157 q 206 134 182 157 q 231 78 231 111 q 206 21 231 42 q 154 0 182 0 q 99 21 124 0 q 75 78 75 42 m 306 78 q 330 134 306 111 q 383 157 354 157 q 435 134 411 157 q 460 78 460 111 q 435 21 460 42 q 383 0 411 0 q 330 21 354 0 q 306 78 306 42 m 536 78 q 560 134 536 111 q 614 157 585 157 q 666 134 642 157 q 690 78 690 111 q 666 21 690 42 q 614 0 642 0 q 560 21 585 0 q 536 78 536 42 z "},"‰":{"ha":1446,"x_min":54,"x_max":1397,"o":"m 708 157 q 723 115 708 132 q 763 99 738 99 q 803 115 789 99 q 817 157 817 132 q 803 197 817 181 q 763 213 789 213 q 723 197 738 213 q 708 157 708 181 m 763 -25 q 692 -11 725 -25 q 633 27 658 3 q 594 85 608 51 q 579 156 579 118 q 594 226 579 193 q 633 283 608 258 q 692 322 658 308 q 763 336 725 336 q 833 322 800 336 q 892 283 867 308 q 931 226 917 258 q 946 156 946 193 q 931 85 946 118 q 892 27 917 51 q 833 -11 867 3 q 763 -25 800 -25 m 182 547 q 197 507 182 524 q 238 490 211 490 q 277 507 263 490 q 292 547 292 524 q 277 588 292 572 q 238 604 263 604 q 197 588 211 604 q 182 547 182 572 m 238 367 q 167 381 200 367 q 108 419 133 394 q 69 478 83 444 q 54 549 54 511 q 69 619 54 586 q 108 676 83 651 q 167 714 133 700 q 238 728 200 728 q 308 714 275 728 q 365 676 340 700 q 405 619 390 651 q 419 549 419 586 q 405 478 419 511 q 365 419 390 444 q 308 381 340 394 q 238 367 275 367 m 218 0 q 428 352 324 178 q 638 704 533 526 l 778 704 q 568 352 674 526 q 358 0 463 178 l 218 0 m 1160 157 q 1174 115 1160 132 q 1214 99 1189 99 q 1254 115 1240 99 q 1268 157 1268 132 q 1254 197 1268 181 q 1214 213 1240 213 q 1174 197 1189 213 q 1160 157 1160 181 m 1214 -25 q 1143 -11 1176 -25 q 1085 27 1110 3 q 1045 85 1060 51 q 1031 156 1031 118 q 1045 226 1031 193 q 1085 283 1060 258 q 1143 322 1110 308 q 1214 336 1176 336 q 1285 322 1251 336 q 1343 283 1318 308 q 1383 226 1368 258 q 1397 156 1397 193 q 1383 85 1397 118 q 1343 27 1368 51 q 1285 -11 1318 3 q 1214 -25 1251 -25 z "},"ˆ":{"ha":625,"x_min":157,"x_max":496,"o":"m 326 929 q 410 802 368 865 q 496 675 453 739 l 407 675 q 390 698 401 683 q 367 728 379 713 q 343 760 354 744 q 326 783 332 775 q 310 760 321 775 q 286 728 299 744 q 263 698 274 713 q 247 675 253 683 l 157 675 q 242 802 200 739 q 326 929 285 865 z "},"˜":{"ha":831,"x_min":222,"x_max":675,"o":"m 436 707 q 399 735 414 728 q 364 743 383 743 q 319 731 344 743 q 290 679 294 718 l 222 683 q 236 736 224 713 q 267 776 249 760 q 308 802 286 793 q 353 811 331 811 q 413 799 386 811 q 461 764 439 786 q 499 736 483 743 q 535 729 515 729 q 556 732 544 729 q 578 742 568 735 q 597 761 589 749 q 608 793 606 774 l 675 789 q 661 737 674 760 q 630 697 649 714 q 589 672 611 681 q 546 663 567 663 q 487 674 514 663 q 436 707 460 686 z "},"ﬁ":{"ha":785,"x_min":33,"x_max":701,"o":"m 33 464 l 33 581 l 132 581 l 132 717 q 217 987 132 899 q 460 1079 303 1075 l 460 965 q 301 896 351 960 q 251 714 251 832 l 251 581 l 701 581 l 701 0 l 582 0 l 582 464 l 251 464 l 251 0 l 132 0 l 132 464 l 33 464 z "},"ﬂ":{"ha":767,"x_min":33,"x_max":682,"o":"m 33 465 l 33 582 l 132 582 l 132 717 q 217 987 132 899 q 460 1079 303 1075 l 682 1079 l 682 0 l 564 0 l 564 965 l 460 965 q 301 896 351 960 q 251 714 251 832 l 251 582 l 435 582 l 435 465 l 251 465 l 251 0 l 132 0 l 132 465 l 33 465 z "},"˚":{"ha":722,"x_min":268,"x_max":504,"o":"m 339 753 q 353 719 339 733 q 388 706 367 706 q 422 719 407 706 q 436 753 436 733 q 422 789 436 775 q 388 803 407 803 q 353 789 367 803 q 339 753 339 775 m 268 756 q 278 801 268 779 q 303 838 288 822 q 341 864 319 854 q 388 874 363 874 q 469 839 435 874 q 504 756 504 804 q 494 709 504 731 q 469 672 485 688 q 432 646 453 656 q 388 636 411 636 q 341 646 363 636 q 303 672 319 656 q 278 709 288 688 q 268 756 268 731 z "},"⁄":{"ha":494,"x_min":-12,"x_max":507,"o":"m -12 0 q 183 531 86 267 q 379 1063 279 796 l 507 1063 l 115 0 l -12 0 z "},"ƒ":{"ha":518,"x_min":-46,"x_max":489,"o":"m 281 465 l 281 132 q 195 -139 281 -51 q -46 -232 110 -226 l -46 -118 q 112 -47 63 -111 q 161 135 161 17 l 161 465 l 63 465 l 63 582 l 161 582 l 161 717 q 247 987 161 899 q 489 1079 332 1075 l 489 965 q 331 896 381 960 q 281 714 281 832 l 281 582 l 464 582 l 464 465 l 281 465 z "},"†":{"ha":485,"x_min":76,"x_max":408,"o":"m 179 3 l 179 528 l 76 528 l 76 651 l 179 651 l 179 854 l 307 854 l 307 651 l 408 651 l 408 528 l 307 528 l 307 3 l 179 3 z "},"‡":{"ha":538,"x_min":60,"x_max":478,"o":"m 204 3 l 204 293 l 60 293 l 60 418 l 204 418 l 204 528 l 101 528 l 101 651 l 204 651 l 204 854 l 332 854 l 332 651 l 433 651 l 433 528 l 332 528 l 332 418 l 478 418 l 478 293 l 332 293 l 332 3 l 204 3 z "},"™":{"ha":813,"x_min":54,"x_max":711,"o":"m 351 1067 q 370 1040 356 1060 q 403 995 385 1021 q 442 940 421 969 q 481 886 463 911 q 513 842 499 861 q 531 817 526 822 l 711 1067 l 711 692 l 654 692 l 654 894 q 655 903 654 899 q 656 910 656 907 l 531 729 q 506 763 526 736 q 465 822 486 790 q 424 879 443 853 q 404 910 406 906 q 405 903 404 907 q 406 894 406 899 l 406 692 l 351 692 l 351 1067 m 288 1051 l 288 1000 l 196 1000 l 196 692 l 143 692 l 143 1000 l 54 1000 l 54 1051 l 288 1051 z "},"−":{"ha":674,"x_min":83,"x_max":590,"o":"m 590 224 l 83 224 l 83 349 l 590 349 l 590 224 z "},"∫":{"ha":467,"x_min":35,"x_max":432,"o":"m 168 885 q 182 984 168 950 q 219 1033 196 1018 q 273 1049 242 1047 q 339 1050 304 1050 l 432 1050 l 432 926 l 372 926 q 335 922 350 926 q 313 901 321 917 q 301 857 304 885 q 297 783 297 829 l 297 -49 q 283 -146 297 -112 q 245 -194 269 -179 q 190 -210 221 -208 q 126 -211 160 -211 l 35 -211 l 35 -86 l 94 -86 q 130 -81 115 -86 q 153 -60 144 -75 q 165 -16 161 -44 q 168 58 168 13 l 168 885 z "},"∏":{"ha":685,"x_min":135,"x_max":550,"o":"m 261 -108 l 135 -108 l 135 1056 l 550 1056 l 550 -108 l 424 -108 l 424 933 l 261 933 l 261 -108 z "},"π":{"ha":613,"x_min":46,"x_max":567,"o":"m 251 368 l 251 0 l 124 0 l 124 368 l 46 368 l 46 492 l 567 492 l 567 368 l 490 368 l 490 0 l 364 0 l 364 368 l 251 368 z "},"€":{"ha":749,"x_min":53,"x_max":689,"o":"m 53 564 l 149 564 q 195 719 161 651 q 278 833 229 786 q 389 903 326 879 q 522 926 451 926 q 616 915 574 926 q 689 885 658 903 l 632 772 q 581 795 608 788 q 518 803 554 803 q 419 785 461 803 q 347 735 376 767 q 300 659 318 703 q 275 564 282 615 l 567 564 l 567 496 l 271 496 l 271 486 q 272 449 271 467 q 274 414 272 431 l 567 414 l 567 347 l 285 347 q 325 239 299 283 q 383 166 351 194 q 450 125 415 138 q 518 113 485 113 q 626 147 574 113 l 689 31 q 518 -11 611 -11 q 390 13 450 -11 q 281 81 329 36 q 198 193 232 126 q 150 347 164 260 l 54 347 l 54 414 l 143 414 q 142 438 142 425 q 142 463 142 450 q 142 479 142 471 q 143 496 142 488 l 53 496 l 53 564 z "},"≤":{"ha":757,"x_min":51,"x_max":667,"o":"m 667 475 l 667 301 l 51 657 l 667 1011 l 667 839 l 353 657 l 667 475 m 613 79 l 106 79 l 106 204 l 613 204 l 613 79 z "},"≥":{"ha":768,"x_min":104,"x_max":721,"o":"m 106 475 l 419 657 l 106 839 l 106 1011 l 721 657 l 106 301 l 106 475 m 104 204 l 611 204 l 611 79 l 104 79 l 104 204 z "},"≠":{"ha":926,"x_min":106,"x_max":818,"o":"m 818 550 l 818 425 l 560 425 l 435 276 l 818 276 l 818 151 l 328 151 q 249 59 288 103 q 179 -22 211 15 l 106 42 l 199 151 l 106 151 l 106 276 l 307 276 l 433 425 l 106 425 l 106 550 l 540 550 l 715 756 l 788 690 l 667 550 l 818 550 z "},"≈":{"ha":625,"x_min":88,"x_max":542,"o":"m 301 268 q 264 297 279 289 q 229 304 249 304 q 185 292 210 304 q 156 240 160 279 l 88 244 q 101 297 89 274 q 133 338 114 321 q 174 363 151 354 q 218 372 196 372 q 278 360 251 372 q 326 325 304 347 q 365 297 349 304 q 400 290 381 290 q 422 293 410 290 q 444 303 433 296 q 463 322 454 310 q 474 354 471 335 l 540 350 q 526 298 539 321 q 495 258 514 275 q 454 233 476 242 q 411 224 432 224 q 301 268 350 224 m 303 475 q 265 503 281 496 q 231 511 250 511 q 186 499 211 511 q 157 447 161 486 l 89 451 q 103 504 90 481 q 134 544 115 528 q 175 570 153 561 q 219 579 197 579 q 279 567 253 579 q 328 532 306 554 q 366 504 350 511 q 401 497 382 497 q 423 500 411 497 q 445 510 435 503 q 464 529 456 517 q 475 561 472 542 l 542 557 q 528 505 540 528 q 497 465 515 482 q 456 440 478 449 q 413 431 433 431 q 353 442 381 431 q 303 475 326 454 z "},"∑":{"ha":689,"x_min":75,"x_max":640,"o":"m 243 6 l 601 6 l 640 -118 l 75 -118 l 235 469 l 75 1056 l 640 1056 l 601 933 l 243 933 l 372 469 l 243 6 z "},"Ω":{"ha":931,"x_min":78,"x_max":851,"o":"m 78 124 l 247 124 q 186 171 215 143 q 135 238 157 199 q 100 330 113 278 q 88 451 88 382 q 117 626 88 551 q 197 751 146 701 q 315 824 247 800 q 463 847 383 847 q 634 815 561 847 q 755 725 707 782 q 825 592 803 668 q 843 428 847 515 q 826 319 840 367 q 792 234 813 271 q 746 170 772 197 q 692 124 719 143 l 851 124 l 851 0 l 549 0 l 549 124 q 669 238 625 157 q 714 425 714 318 q 702 533 714 479 q 661 628 690 586 q 585 697 632 671 q 468 724 538 724 q 348 696 396 724 q 271 625 300 668 q 229 530 242 582 q 217 432 217 478 q 229 326 215 375 q 268 238 243 276 q 326 169 293 199 q 396 124 358 140 l 396 0 l 78 0 l 78 124 z "},"√":{"ha":735,"x_min":29,"x_max":719,"o":"m 31 486 l 199 486 l 333 188 l 631 856 l 719 856 l 333 -6 l 143 413 l 29 413 l 31 486 z "},"∆":{"ha":578,"x_min":53,"x_max":525,"o":"m 289 1026 l 525 357 l 53 357 l 289 1026 m 168 432 l 411 432 l 289 794 l 168 432 z "},"◊":{"ha":575,"x_min":51,"x_max":524,"o":"m 51 510 l 288 1026 l 524 510 l 288 -6 l 51 510 m 142 510 l 288 188 l 435 510 l 288 833 l 142 510 z "},"∞":{"ha":707,"x_min":79,"x_max":626,"o":"m 488 300 q 413 313 449 300 q 354 349 378 325 q 293 313 329 325 q 219 300 257 300 q 157 312 183 300 q 113 342 131 324 q 88 384 96 361 q 79 428 79 407 q 88 471 79 449 q 113 512 96 493 q 157 542 131 531 q 219 554 183 554 q 293 541 257 554 q 354 504 329 528 q 414 541 378 528 q 488 554 450 554 q 550 542 524 554 q 593 512 576 531 q 618 471 610 493 q 626 428 626 449 q 618 384 626 407 q 593 342 610 361 q 550 312 576 324 q 488 300 524 300 m 317 425 q 287 463 317 449 q 221 478 257 478 q 172 464 188 478 q 156 426 156 450 q 169 391 156 407 q 221 375 183 375 q 286 389 256 375 q 317 425 317 403 m 488 478 q 422 464 451 478 q 392 426 393 450 l 392 422 q 402 403 393 411 q 424 388 411 394 q 454 378 438 382 q 488 375 471 375 q 538 391 524 375 q 551 426 551 407 q 536 464 551 450 q 488 478 521 478 z "}}}
